SplineFontDB: 3.0
FontName: TaameyDavidCLM-BoldOblique
FullName: Taamey David CLM Oblique
FamilyName: Taamey David CLM
Weight: Bold
Copyright: Copyright (c) 2009-2010 by Yoram Gnat (yoram.gnat@gmail.com)\nDistributed under the terms of GNU General Public License version 2(http://www.gnu.org/licenses/gpl.html). \n\nHebrew glyphs copyright 2002-2008 by Maxim Iorsh (iorsh@math.technion.ac.il).\nDistributed under the terms of GNU General Public License version 2(http://www.gnu.org/licenses/gpl.html). \n\nHebrew OpenType Layout logic copyright (c) 2003 & 2007, Ralph Hancock & John Hudson. This layout logic for Biblical Hebrew is open source software under the MIT License; for details  contact copyright holders at <license@tiro.com>.\n\nImplementation of above layout logic by Yoram Gnat (yoram.gnat@gmail.com) All rights reserved.\n\nLatin glyphs and part of punctuation copyright 1990 as an unpublished work by Bitstream Inc. \nHebrew cantillation marks copyright 2008 by Yoram Gnat (yoramg@shenkar.ac.il). Distributed under the terms of GNU General Public Licence version 2 (http://www.gnu.org/licenses/gpl.html)\n\n
Version: 0.110
ItalicAngle: 10
UnderlinePosition: -170
UnderlineWidth: 70
Ascent: 1638
Descent: 410
LayerCount: 2
Layer: 0 0 "Back"  1
Layer: 1 0 "Fore"  0
XUID: [1021 594 1227166039 14964671]
FSType: 0
OS2Version: 0
OS2_WeightWidthSlopeOnly: 0
OS2_UseTypoMetrics: 1
CreationTime: 1244295734
ModificationTime: 1284282172
PfmFamily: 17
TTFWeight: 700
TTFWidth: 5
LineGap: 184
VLineGap: 0
Panose: 2 0 0 0 0 0 0 0 0 0
OS2TypoAscent: 1638
OS2TypoAOffset: 0
OS2TypoDescent: -410
OS2TypoDOffset: 0
OS2TypoLinegap: 184
OS2WinAscent: 1638
OS2WinAOffset: 0
OS2WinDescent: 883
OS2WinDOffset: 0
HheadAscent: 1638
HheadAOffset: 0
HheadDescent: 883
HheadDOffset: 0
OS2SubXSize: 1433
OS2SubYSize: 1331
OS2SubXOff: 0
OS2SubYOff: 286
OS2SupXSize: 1433
OS2SupYSize: 1331
OS2SupXOff: 0
OS2SupYOff: 976
OS2StrikeYSize: 102
OS2StrikeYPos: 512
OS2Vendor: 'YGNT'
OS2CodePages: 00000021.00000000

StartChar: .notdef
Encoding: 65536 -1 0
Width: 967
GlyphClass: 2
Flags: W
HStem: -51 150<126 810> 179 233<343 498> 851 21G<140.889 243.452> 1049 201<242.094 365.975> 1311 152<-88 596>
VStem: 42 191<887 1040.88> 278 185<494.656 661.748> 398 189<812.524 1019.41>
LayerCount: 2
Fore
SplineSet
704 1463 m 1xfc
 971 -51 l 1
 14 -51 l 1
 -253 1463 l 1
 704 1463 l 1xfc
810 99 m 1
 596 1311 l 1
 -88 1311 l 1
 126 99 l 1
 810 99 l 1
498 412 m 1
 539 179 l 1
 343 179 l 1
 302 412 l 1
 498 412 l 1
299 1049 m 0
 260 1049 233 1011 233 951 c 0
 233 939 234 927 236 913 c 2
 247 851 l 1
 56 887 l 1
 48 929 l 2
 44 954 42 978 42 1001 c 0
 42 1147 127 1250 268 1250 c 0
 423 1250 550 1117 581 940 c 0
 585 916 587 894 587 874 c 0xfd
 587 731 494 669 463 589 c 1
 460 568 463 551 466 535 c 0
 468 521 470 508 473 494 c 1
 291 494 l 2
 288 494 286 503 284 517 c 0
 280 537 278 566 278 596 c 0xfe
 278 623 280 650 285 672 c 1
 311 789 398 835 398 913 c 0
 398 919 399 925 398 932 c 0xfd
 385 1005 334 1049 299 1049 c 0
EndSplineSet
Validated: 1
EndChar

StartChar: sheva
Encoding: 1456 1456 37
Width: 0
GlyphClass: 4
Flags: W
HStem: -584 469
VStem: -69 261
AnchorPoint: "A-8" -164 0 mark 0
AnchorPoint: "A-48" -208 0 basemark 0
AnchorPoint: "A-70" 50 0 mark 0
AnchorPoint: "A-4" 0 0 mark 0
LayerCount: 2
Fore
SplineSet
-69 -224 m 1
 -49 -176 -21 -144 20 -115 c 1
 71 -144 111 -176 147 -224 c 1
 128 -270 100 -304 58 -331 c 1
 8 -304 -32 -270 -69 -224 c 1
-24 -476 m 1
 -4 -429 24 -396 65 -367 c 1
 116 -396 156 -429 192 -476 c 1
 172 -523 144 -557 103 -584 c 1
 52 -557 12 -523 -24 -476 c 1
EndSplineSet
Validated: 1
LCarets2: 1 0 
EndChar

StartChar: hatafsegol
Encoding: 1457 1457 38
Width: 0
GlyphClass: 4
Flags: W
HStem: -584 469
AnchorPoint: "A-73" 100 0 mark 0
AnchorPoint: "A-6" 0.0751953 0 mark 0
LayerCount: 2
Fore
SplineSet
-367 -224 m 1
 -348 -176 -319 -144 -278 -115 c 1
 -227 -144 -187 -176 -152 -224 c 1
 -170 -270 -198 -304 -240 -331 c 1
 -290 -304 -331 -270 -367 -224 c 1
-81 -224 m 1
 -62 -176 -34 -144 7 -115 c 1
 58 -144 98 -176 134 -224 c 1
 115 -270 87 -304 45 -331 c 1
 -5 -304 -45 -270 -81 -224 c 1
-179 -476 m 1
 -160 -429 -132 -396 -91 -367 c 1
 -40 -396 1 -429 36 -476 c 1
 17 -523 -12 -557 -53 -584 c 1
 -104 -557 -144 -523 -179 -476 c 1
226 -224 m 1
 245 -176 273 -144 314 -115 c 1
 365 -144 406 -176 441 -224 c 1
 423 -270 394 -304 352 -331 c 1
 302 -304 262 -270 226 -224 c 1
271 -476 m 1
 290 -429 318 -396 359 -367 c 1
 410 -396 451 -429 486 -476 c 1
 467 -523 438 -557 397 -584 c 1
 346 -557 306 -523 271 -476 c 1
EndSplineSet
Validated: 1
LCarets2: 1 0 
EndChar

StartChar: hatafpatah
Encoding: 1458 1458 39
Width: 0
GlyphClass: 4
Flags: W
HStem: -318 162<-285.099 126.449>
AnchorPoint: "A-73" 100 0 mark 0
AnchorPoint: "A-6" 0.599609 0 mark 0
LayerCount: 2
Fore
SplineSet
222 -224 m 1
 241 -176 269 -144 311 -115 c 1
 362 -144 402 -176 437 -224 c 1
 419 -270 391 -304 349 -331 c 1
 298 -304 258 -270 222 -224 c 1
267 -476 m 1
 286 -429 314 -396 356 -367 c 1
 407 -396 447 -429 482 -476 c 1
 463 -523 435 -557 394 -584 c 1
 342 -557 302 -523 267 -476 c 1
112 -318 m 1
 -296 -318 l 1
 -297 -308 -296 -298 -296 -289 c 0
 -296 -241 -288 -199 -270 -156 c 1
 138 -156 l 1
 138 -162 138 -169 138 -175 c 0
 138 -227 131 -271 112 -318 c 1
EndSplineSet
Validated: 1
LCarets2: 1 1 
EndChar

StartChar: hatafqamats
Encoding: 1459 1459 40
Width: 0
GlyphClass: 4
Flags: W
HStem: -318 162<-347.372 -169 -7 142.449>
AnchorPoint: "A-73" 100 0 mark 0
AnchorPoint: "A-6" -0.375 0 mark 0
LayerCount: 2
Fore
SplineSet
-359 -318 m 1
 -360 -309 -359 -300 -359 -291 c 0
 -359 -242 -350 -200 -332 -156 c 1
 154 -156 l 1
 154 -162 154 -169 154 -175 c 0
 154 -227 147 -271 128 -318 c 9
 -7 -318 l 1
 26 -507 l 1
 -1 -511 -26 -513 -54 -513 c 0
 -83 -513 -107 -511 -136 -507 c 1
 -169 -318 l 1
 -359 -318 l 1
237 -224 m 1
 256 -176 285 -144 326 -115 c 1
 377 -144 417 -176 452 -224 c 1
 434 -270 406 -304 364 -331 c 1
 314 -304 273 -270 237 -224 c 1
282 -476 m 1
 301 -429 330 -396 371 -367 c 1
 422 -396 462 -429 497 -476 c 1
 478 -523 450 -557 409 -584 c 1
 358 -557 317 -523 282 -476 c 1
EndSplineSet
Validated: 1
LCarets2: 1 0 
EndChar

StartChar: hiriq
Encoding: 1460 1460 41
Width: 0
GlyphClass: 4
Flags: W
HStem: -331 217
VStem: -338 216
AnchorPoint: "A-48" -477 0 basemark 0
AnchorPoint: "A-8" -376.823 -1 mark 0
AnchorPoint: "A-59" -37.6504 0 mark 0
AnchorPoint: "A-70" -168 0 mark 0
AnchorPoint: "A-4" -268 0 mark 0
LayerCount: 2
Fore
SplineSet
-338 -223 m 1
 -318 -176 -290 -143 -249 -114 c 1
 -198 -143 -158 -176 -122 -223 c 1
 -141 -270 -169 -304 -211 -331 c 1
 -261 -304 -301 -270 -338 -223 c 1
EndSplineSet
Validated: 1
LCarets2: 1 -40 
EndChar

StartChar: tsere
Encoding: 1461 1461 42
Width: 0
GlyphClass: 4
Flags: W
HStem: -370 214
VStem: -211 518
AnchorPoint: "A-48" -398 0 basemark 0
AnchorPoint: "A-8" -100 0 mark 0
AnchorPoint: "A-71" 100 0 mark 0
AnchorPoint: "A-5" 0 0 mark 0
LayerCount: 2
Fore
SplineSet
92 -265 m 1
 111 -218 140 -185 181 -156 c 1
 232 -185 271 -218 307 -265 c 1
 288 -312 258 -342 217 -370 c 1
 166 -342 128 -312 92 -265 c 1
-211 -265 m 1
 -193 -218 -164 -185 -123 -156 c 1
 -72 -185 -33 -218 4 -265 c 1
 -16 -312 -44 -342 -85 -370 c 1
 -136 -342 -176 -312 -211 -265 c 1
EndSplineSet
Validated: 1
LCarets2: 1 0 
EndChar

StartChar: segol
Encoding: 1462 1462 43
Width: 0
GlyphClass: 4
Flags: W
HStem: -559 444
VStem: -220 518
AnchorPoint: "A-8" -100 0 mark 0
AnchorPoint: "A-48" -359.353 2 basemark 0
AnchorPoint: "A-71" 100 0 mark 0
AnchorPoint: "A-5" 0 0 mark 0
LayerCount: 2
Fore
SplineSet
-220 -224 m 1
 -201 -177 -173 -144 -132 -115 c 1
 -81 -144 -41 -177 -5 -224 c 1
 -24 -271 -52 -305 -93 -332 c 1
 -144 -305 -184 -271 -220 -224 c 1
83 -224 m 1
 103 -177 131 -144 172 -115 c 1
 223 -144 263 -177 298 -224 c 1
 280 -271 252 -305 211 -332 c 1
 160 -305 120 -271 83 -224 c 1
-28 -451 m 1
 -9 -404 19 -371 60 -342 c 1
 111 -371 151 -404 188 -451 c 1
 168 -497 140 -532 99 -559 c 1
 48 -532 8 -497 -28 -451 c 1
EndSplineSet
Validated: 1
LCarets2: 1 0 
EndChar

StartChar: patah
Encoding: 1463 1463 44
Width: 0
GlyphClass: 4
Flags: W
HStem: -320 164<-148.812 232.812>
VStem: -161 406<-317.845 -158.109>
AnchorPoint: "A-8" -100 0 mark 0
AnchorPoint: "A-48" -361 0 basemark 0
AnchorPoint: "A-71" 100 0 mark 0
AnchorPoint: "A-5" -0.0751953 0 mark 0
LayerCount: 2
Fore
SplineSet
218 -320 m 1
 -161 -320 l 1
 -161 -312 -161 -304 -161 -296 c 0
 -161 -246 -152 -201 -134 -156 c 1
 244 -156 l 1
 244 -164 245 -172 245 -180 c 0
 245 -230 236 -274 218 -320 c 1
EndSplineSet
Validated: 1
LCarets2: 1 0 
EndChar

StartChar: qamats
Encoding: 1464 1464 45
Width: 0
GlyphClass: 4
Flags: W
HStem: -318 162<-203.372 -25 137 286.812>
VStem: -215 514<-315.846 -158.061>
AnchorPoint: "A-8" -100 0 mark 0
AnchorPoint: "A-48" -370 0 basemark 0
AnchorPoint: "A-71" 100 0 mark 0
AnchorPoint: "A-5" 0.0751953 0 mark 0
LayerCount: 2
Fore
SplineSet
-215 -318 m 1
 -216 -309 -215 -300 -215 -291 c 0
 -215 -242 -206 -200 -188 -156 c 1
 298 -156 l 1
 298 -164 299 -172 299 -180 c 0
 299 -229 290 -272 272 -318 c 9
 137 -318 l 1
 170 -507 l 1
 143 -511 119 -513 90 -513 c 0
 61 -513 37 -511 8 -507 c 1
 -25 -318 l 1
 -215 -318 l 1
EndSplineSet
Validated: 1
LCarets2: 1 0 
EndChar

StartChar: holam
Encoding: 1465 1465 46
Width: 0
GlyphClass: 4
Flags: W
HStem: 1122 217
VStem: -500 216
AnchorPoint: "A-21" -385.618 0 mark 0
AnchorPoint: "A-20" -284.736 -5 mark 0
LayerCount: 2
Fore
SplineSet
-500 1230 m 1
 -480 1277 -452 1310 -411 1339 c 1
 -360 1310 -320 1277 -284 1230 c 1
 -304 1184 -332 1149 -373 1122 c 1
 -424 1149 -464 1184 -500 1230 c 1
EndSplineSet
Validated: 1
LCarets2: 1 -18 
EndChar

StartChar: qubuts
Encoding: 1467 1467 48
Width: 0
GlyphClass: 4
Flags: W
HStem: -623 510
VStem: -260 651
AnchorPoint: "A-8" -200 0 mark 0
AnchorPoint: "A-48" -399 0 basemark 0
AnchorPoint: "A-72" 100 0 mark 0
AnchorPoint: "A-5" 0 0 mark 0
LayerCount: 2
Fore
SplineSet
-42 -374 m 1
 -23 -326 6 -293 47 -264 c 1
 98 -293 137 -326 174 -374 c 1
 154 -420 126 -453 85 -481 c 1
 34 -453 -6 -420 -42 -374 c 1
-260 -222 m 1
 -240 -174 -212 -142 -171 -113 c 1
 -120 -142 -80 -174 -45 -222 c 1
 -64 -268 -92 -302 -133 -329 c 1
 -184 -302 -224 -268 -260 -222 c 1
176 -515 m 1
 195 -468 223 -435 264 -406 c 1
 315 -435 355 -468 391 -515 c 1
 371 -562 343 -596 302 -623 c 1
 251 -596 211 -562 176 -515 c 1
EndSplineSet
Validated: 1
LCarets2: 1 0 
EndChar

StartChar: dagesh
Encoding: 1468 1468 49
Width: 0
GlyphClass: 4
Flags: W
HStem: 399 226
VStem: -203 226
AnchorPoint: "A-3" 0 0 mark 0
LayerCount: 2
Fore
SplineSet
-203 512 m 1
 -180 558 -151 593 -110 625 c 1
 -57 593 -17 558 23 512 c 1
 -4 464 -30 432 -70 399 c 1
 -121 430 -162 465 -203 512 c 1
EndSplineSet
Validated: 1
LCarets2: 1 0 
EndChar

StartChar: meteg
Encoding: 1469 1469 50
Width: 0
GlyphClass: 4
Flags: W
HStem: -526 411<11 103>
VStem: -59 232
AnchorPoint: "A-48" 80 0 mark 0
AnchorPoint: "A-63" -152.925 0 mark 0
AnchorPoint: "A-62" -271.925 0 mark 0
AnchorPoint: "A-61" -382.425 0 mark 0
AnchorPoint: "A-73" -424.925 0 basemark 0
AnchorPoint: "A-72" -339.925 0 basemark 0
AnchorPoint: "A-71" -305.925 0 basemark 0
AnchorPoint: "A-70" -237.925 0 basemark 0
AnchorPoint: "A-4" 0.0751953 0 mark 0
LayerCount: 2
Fore
SplineSet
173 -519 m 1
 145 -524 122 -526 93 -526 c 0
 64 -526 39 -524 11 -519 c 1
 -59 -122 l 1
 -32 -117 -9 -115 20 -115 c 0
 49 -115 74 -117 103 -122 c 1
 173 -519 l 1
EndSplineSet
Validated: 1
Ligature2: "remove taam if with meteg subtable" tipeha meteg
Ligature2: "remove taam if with meteg subtable" yetiv meteg
Ligature2: "remove taam if with meteg subtable" tevir meteg
Ligature2: "remove taam if with meteg subtable" atnah meteg
Ligature2: "remove taam if with meteg subtable" atnahhafukh meteg
Ligature2: "remove taam if with meteg subtable" munah meteg
Ligature2: "remove taam if with meteg subtable" mahapakh meteg
Ligature2: "remove taam if with meteg subtable" merkha meteg
Ligature2: "remove taam if with meteg subtable" merkhakefula meteg
Ligature2: "remove taam if with meteg subtable" darga meteg
Ligature2: "remove taam if with meteg subtable" yerahbenyomo meteg
Ligature2: "remove taam if with meteg subtable" dehi meteg
Ligature2: "remove taam if with meteg subtable" lowerdot meteg
LCarets2: 1 0 
EndChar

StartChar: makaf
Encoding: 1470 1470 51
Width: 868
GlyphClass: 2
Flags: W
HStem: 744 304<182.951 683.513>
VStem: 125 618
LayerCount: 2
Fore
SplineSet
125 744 m 1
 125 849 143 943 187 1048 c 1
 743 1048 l 1
 741 934 718 826 678 744 c 1
 125 744 l 1
EndSplineSet
EndChar

StartChar: rafe
Encoding: 1471 1471 52
Width: 0
GlyphClass: 4
Flags: W
HStem: 1161 153<-436.812 4.06445>
VStem: -449 462<1162.83 1311.89>
AnchorPoint: "A-3" 0 0 mark 0
LayerCount: 2
Fore
SplineSet
-11 1161 m 1
 -449 1161 l 1
 -449 1166 -449 1171 -449 1176 c 0
 -449 1224 -440 1269 -422 1314 c 1
 12 1314 l 1
 13 1303 13 1292 13 1281 c 0
 13 1237 6 1200 -11 1161 c 1
EndSplineSet
Validated: 1
LCarets2: 1 0 
EndChar

StartChar: paseq
Encoding: 1472 1472 53
Width: 660
GlyphClass: 2
Flags: W
VStem: 125 410
LayerCount: 2
Fore
SplineSet
125 1069 m 1
 184 1098 250 1113 318 1116 c 1
 535 -113 l 1
 485 -140 417 -154 341 -160 c 1
 125 1069 l 1
EndSplineSet
EndChar

StartChar: shindot
Encoding: 1473 1473 54
Width: 0
GlyphClass: 4
Flags: W
HStem: 1120 216
VStem: 65 215
AnchorPoint: "A-60" 58.2002 0 mark 0
LayerCount: 2
Fore
SplineSet
65 1227 m 1
 83 1275 112 1307 152 1336 c 1
 205 1307 244 1275 280 1227 c 1
 261 1181 233 1147 191 1120 c 1
 140 1147 100 1181 65 1227 c 1
EndSplineSet
Validated: 1
EndChar

StartChar: sindot
Encoding: 1474 1474 55
Width: 0
GlyphClass: 4
Flags: W
HStem: 1120 216
VStem: -743 215
AnchorPoint: "A-60" -63 0 mark 0
LayerCount: 2
Fore
SplineSet
-743 1227 m 1
 -725 1275 -696 1307 -656 1336 c 1
 -604 1307 -565 1275 -528 1227 c 1
 -548 1181 -576 1147 -617 1120 c 1
 -668 1147 -708 1181 -743 1227 c 1
EndSplineSet
Validated: 1
EndChar

StartChar: sofpasuq
Encoding: 1475 1475 56
Width: 743
VWidth: 1706
GlyphClass: 2
Flags: W
VStem: 125 493
LayerCount: 2
Fore
SplineSet
278 966 m 1
 378 901 444 847 514 765 c 1
 478 688 425 622 369 570 c 1
 271 623 189 692 125 768 c 1
 163 846 219 924 278 966 c 1
382 358 m 1
 485 291 550 237 618 157 c 1
 583 82 531 17 474 -38 c 1
 378 13 296 82 229 160 c 1
 269 240 325 319 382 358 c 1
EndSplineSet
EndChar

StartChar: nunhapukha
Encoding: 1478 1478 59
Width: 739
GlyphClass: 2
Flags: W
HStem: -21 21G<586.5 697.5> 781 251<318.356 466.19>
VStem: 47 240<464.085 748.937>
LayerCount: 2
Fore
SplineSet
462 1046 m 1
 484 981 511 858 569 773 c 1
 529 778 494 781 463 781 c 0
 343 781 287 741 287 639 c 0
 287 588 301 522 328 438 c 1
 421 351 508 340 594 297 c 1
 626 244 637 202 658 144 c 0
 673 104 693 21 702 -21 c 1
 471 18 385 53 245 150 c 1
 169 281 130 353 104 427 c 0
 86 475 74 523 59 587 c 0
 51 623 47 657 47 688 c 0
 47 741 57 788 75 829 c 1
 22 892 3 945 3 994 c 0
 3 1047 26 1095 54 1145 c 9
 237 1149 l 17
 248 1066 310 1032 381 1032 c 0
 407 1032 435 1037 462 1046 c 1
EndSplineSet
Validated: 1
EndChar

StartChar: qamatsqatan
Encoding: 1479 1479 60
Width: 0
GlyphClass: 4
Flags: W
HStem: -318 162<-203.372 -25 137 286.812>
VStem: -215 514<-315.846 -158.061>
AnchorPoint: "A-8" -100 0 mark 0
AnchorPoint: "A-48" -370 0 basemark 0
AnchorPoint: "A-5" 0 0 mark 0
LayerCount: 2
Fore
SplineSet
-215 -318 m 1
 -216 -309 -215 -300 -215 -291 c 0
 -215 -242 -206 -200 -188 -156 c 1
 298 -156 l 1
 298 -164 299 -172 299 -180 c 0
 299 -229 290 -272 272 -318 c 9
 137 -318 l 1
 193 -634 l 1
 165 -638 142 -640 113 -640 c 0
 84 -640 59 -638 31 -634 c 1
 -25 -318 l 1
 -215 -318 l 1
EndSplineSet
Validated: 1
EndChar

StartChar: alef
Encoding: 1488 1488 61
Width: 1451
GlyphClass: 2
Flags: W
VStem: 399 204<173.65 293.464> 1035 219<649.402 906.497>
AnchorPoint: "A-8" 906 0 basechar 0
AnchorPoint: "A-63" 1063 0 basechar 0
AnchorPoint: "A-62" 748.975 0 basechar 0
AnchorPoint: "A-61" 748.975 0 basechar 0
AnchorPoint: "A-59" 243.225 0 basechar 0
AnchorPoint: "A-21" -122.275 0 basechar 0
AnchorPoint: "A-20" 277.225 0 basechar 0
AnchorPoint: "A-7" 813 0 basechar 0
AnchorPoint: "A-6" 813 0 basechar 0
AnchorPoint: "A-5" 858 0 basechar 0
AnchorPoint: "A-4" 913 0 basechar 0
LayerCount: 2
Fore
SplineSet
399 -33 m 1
 353 399 303 578 152 833 c 1
 178 885 215 958 355 1101 c 1
 430 1000 486 887 522 761 c 1
 714 761 849 739 1014 628 c 1
 1028 656 1035 681 1035 703 c 0
 1035 756 997 797 929 848 c 1
 990 977 1102 1073 1116 1101 c 1
 1218 1009 1254 914 1254 825 c 0
 1254 710 1194 607 1135 536 c 1
 1234 433 1295 347 1359 196 c 1
 1317 106 1260 30 1188 -33 c 1
 1125 185 944 406 789 478 c 0
 734 503 662 526 572 548 c 1
 590 451 603 334 603 196 c 1
 551 99 484 23 399 -33 c 1
EndSplineSet
LCarets2: 1 90 
Substitution2: "'jalt' Wide Letter Alternatives in Hebrew subtable" alef.wide
EndChar

StartChar: bet
Encoding: 1489 1489 62
Width: 1113
GlyphClass: 2
Flags: W
VStem: 684 192<443 641.323> 706 170<470.647 687.149>
AnchorPoint: "A-8" 629 0 basechar 0
AnchorPoint: "A-63" 631.55 0 basechar 0
AnchorPoint: "A-62" 631.55 0 basechar 0
AnchorPoint: "A-61" 631.55 0 basechar 0
AnchorPoint: "A-59" 202.3 0 basechar 0
AnchorPoint: "A-21" -163.2 0 basechar 0
AnchorPoint: "A-20" 185.3 0 basechar 0
AnchorPoint: "A-7" 631.55 0 basechar 0
AnchorPoint: "A-6" 631.55 0 basechar 0
AnchorPoint: "A-5" 631.55 0 basechar 0
AnchorPoint: "A-4" 631.55 0 basechar 0
LayerCount: 2
Fore
SplineSet
102 829 m 1x40
 128 888 195 1013 292 1095 c 1
 578 1024 768 964 862 915 c 0
 923 882 942 835 942 788 c 0
 942 715 899 642 891 615 c 1
 881 588 876 566 876 547 c 0
 876 515 892 491 933 461 c 1
 986 432 978 440 1015 420 c 1
 1034 412 1046 395 1046 371 c 0
 1046 341 1028 298 985 245 c 0
 903 143 545 -40 186 -71 c 1
 211 31 277 148 340 222 c 1
 622 273 699 306 766 357 c 1
 717 396 684 420 684 466 c 0x80
 684 475 685 485 688 496 c 1
 698 529 706 565 706 597 c 0
 706 643 690 683 638 702 c 1
 373 794 197 808 102 829 c 1x40
EndSplineSet
LCarets2: 1 81 
EndChar

StartChar: gimel
Encoding: 1490 1490 63
Width: 843
GlyphClass: 2
Flags: W
VStem: 176 640
AnchorPoint: "A-8" 511 0 basechar 0
AnchorPoint: "A-3" 583.176 0 basechar 0
AnchorPoint: "A-63" 654 0 basechar 0
AnchorPoint: "A-62" 513.476 0 basechar 0
AnchorPoint: "A-61" 513.476 0 basechar 0
AnchorPoint: "A-59" 207.476 0 basechar 0
AnchorPoint: "A-21" -158.024 0 basechar 0
AnchorPoint: "A-20" 283.976 0 basechar 0
AnchorPoint: "A-7" 513.476 0 basechar 0
AnchorPoint: "A-6" 513.476 0 basechar 0
AnchorPoint: "A-5" 513.476 0 basechar 0
AnchorPoint: "A-4" 513.476 0 basechar 0
LayerCount: 2
Fore
SplineSet
477 462 m 0
 477 493 461 532 430 580 c 1
 366 682 318 730 210 838 c 1
 262 932 l 2
 283 968 339 1045 386 1091 c 1
 575 928 767 556 816 208 c 1
 802 137 680 -4 632 -43 c 1
 611 64 585 165 553 259 c 1
 521 183 324 -12 176 -43 c 1
 174 -21 173 1 173 23 c 0
 173 106 185 186 209 263 c 1
 438 353 476 421 477 462 c 0
EndSplineSet
LCarets2: 1 54 
EndChar

StartChar: dalet
Encoding: 1491 1491 64
Width: 1212
GlyphClass: 2
Flags: W
HStem: 804 271<208.144 538.562>
VStem: 560 229<351.813 595.004>
AnchorPoint: "A-8" 733 0 basechar 0
AnchorPoint: "A-3" 718.367 100 basechar 0
AnchorPoint: "A-63" 836 0 basechar 0
AnchorPoint: "A-62" 608.25 0 basechar 0
AnchorPoint: "A-61" 523.25 0 basechar 0
AnchorPoint: "A-59" 208.75 0 basechar 0
AnchorPoint: "A-21" -156.75 0 basechar 0
AnchorPoint: "A-20" 123.75 0 basechar 0
AnchorPoint: "A-7" 636 0 basechar 0
AnchorPoint: "A-6" 672 0 basechar 0
AnchorPoint: "A-5" 736 0 basechar 0
AnchorPoint: "A-4" 791 0 basechar 0
LayerCount: 2
Fore
SplineSet
715 -43 m 1
 616 173 560 312 560 428 c 0
 560 530 603 615 699 720 c 1
 558 766 350 794 75 804 c 1
 94 876 179 1035 221 1075 c 1
 482 1075 895 987 1000 916 c 1
 1001 909 998 891 991 863 c 2
 970 782 l 2
 954 724 931 652 926 638 c 1
 873 626 789 599 789 520 c 0
 789 510 790 499 793 488 c 0
 817 388 849 298 889 217 c 1
 858 137 781 25 715 -43 c 1
EndSplineSet
LCarets2: 1 73 
Substitution2: "'jalt' Wide Letter Alternatives in Hebrew subtable" dalet.wide
EndChar

StartChar: he
Encoding: 1492 1492 65
Width: 1286
GlyphClass: 2
Flags: W
HStem: 794 278<283.457 463.252>
AnchorPoint: "A-8" 742 0 basechar 0
AnchorPoint: "A-63" 907 0 basechar 0
AnchorPoint: "A-62" 741.925 0 basechar 0
AnchorPoint: "A-61" 741.925 0 basechar 0
AnchorPoint: "A-59" 244.675 0 basechar 0
AnchorPoint: "A-21" -120.825 0 basechar 0
AnchorPoint: "A-20" 244.675 0 basechar 0
AnchorPoint: "A-7" 741.925 0 basechar 0
AnchorPoint: "A-6" 741.925 0 basechar 0
AnchorPoint: "A-5" 741.925 0 basechar 0
AnchorPoint: "A-4" 741.925 0 basechar 0
LayerCount: 2
Fore
SplineSet
485 -44 m 1
 397 31 302 194 278 314 c 1
 291 406 379 578 444 589 c 1
 499 428 551 306 597 222 c 1
 597 149 515 -7 485 -44 c 1
294 1072 m 1
 521 1055 713 1013 869 945 c 1
 984 896 1203 777 1242 220 c 1
 1217 161 1166 28 1072 -43 c 1
 1043 111 1030 214 973 396 c 1
 920 575 838 659 710 693 c 1
 538 742 345 775 131 794 c 1
 164 887 218 980 294 1072 c 1
EndSplineSet
LCarets2: 1 88 
Substitution2: "'jalt' Wide Letter Alternatives in Hebrew subtable" he.wide
EndChar

StartChar: vav
Encoding: 1493 1493 66
Width: 780
GlyphClass: 2
Flags: W
VStem: 511 186<145.581 293.203>
AnchorPoint: "A-8" 518 0 basechar 0
AnchorPoint: "A-63" 632 0 basechar 0
AnchorPoint: "A-62" 361.25 0 basechar 0
AnchorPoint: "A-61" 429.25 0 basechar 0
AnchorPoint: "A-59" 221 0 basechar 0
AnchorPoint: "A-21" 323 0 basechar 0
AnchorPoint: "A-20" 323 0 basechar 0
AnchorPoint: "A-7" 477 0 basechar 0
AnchorPoint: "A-6" 467.5 0 basechar 0
AnchorPoint: "A-5" 514.25 0 basechar 0
AnchorPoint: "A-4" 562 0 basechar 0
LayerCount: 2
Fore
SplineSet
511 -43 m 1
 475 480 370 627 115 823 c 1
 153 910 213 1000 296 1091 c 1
 591 898 691 628 697 169 c 1
 679 126 557 -16 511 -43 c 1
EndSplineSet
LCarets2: 1 39 
EndChar

StartChar: zain
Encoding: 1494 1494 67
Width: 945
GlyphClass: 2
Flags: W
VStem: 230 202<506.985 667.57>
AnchorPoint: "A-8" 533 0 basechar 0
AnchorPoint: "A-63" 632 0 basechar 0
AnchorPoint: "A-62" 389.139 0 basechar 0
AnchorPoint: "A-61" 389.139 0 basechar 0
AnchorPoint: "A-59" 227.639 0 basechar 0
AnchorPoint: "A-21" -137.861 0 basechar 0
AnchorPoint: "A-20" 185.139 0 basechar 0
AnchorPoint: "A-7" 482 0 basechar 0
AnchorPoint: "A-6" 474.139 0 basechar 0
AnchorPoint: "A-5" 482.639 0 basechar 0
AnchorPoint: "A-4" 532 0 basechar 0
LayerCount: 2
Fore
SplineSet
656 261 m 1
 655 154 598 20 544 -43 c 1
 429 115 l 1
 270 345 232 451 230 536 c 1
 230 579 252 670 330 753 c 1
 286 780 228 810 156 843 c 1
 203 943 261 1026 329 1091 c 1
 504 1006 642 912 742 809 c 1
 710 719 662 635 597 558 c 1
 548 601 501 638 455 669 c 1
 439 654 432 636 432 616 c 0
 432 524 580 384 656 261 c 1
EndSplineSet
LCarets2: 1 46 
EndChar

StartChar: het
Encoding: 1495 1495 68
Width: 1308
GlyphClass: 2
Flags: W
VStem: 374 211<193.086 406.351>
AnchorPoint: "A-8" 794 0 basechar 0
AnchorPoint: "A-63" 917 0 basechar 0
AnchorPoint: "A-62" 793.325 0 basechar 0
AnchorPoint: "A-61" 793.325 0 basechar 0
AnchorPoint: "A-59" 257.825 0 basechar 0
AnchorPoint: "A-21" -107.675 0 basechar 0
AnchorPoint: "A-20" 257.825 0 basechar 0
AnchorPoint: "A-7" 793.325 0 basechar 0
AnchorPoint: "A-6" 793.325 0 basechar 0
AnchorPoint: "A-5" 793.325 0 basechar 0
AnchorPoint: "A-4" 793.325 0 basechar 0
AnchorPoint: "A-3" 767 0 basechar 0
LayerCount: 2
Fore
SplineSet
314 1091 m 1
 345 1071 357 1052 391 1038 c 1
 427 1020 419 1032 676 998 c 1
 751 982 772 982 862 949 c 1
 1011 897 1118 771 1171 640 c 0
 1225 507 1258 363 1270 208 c 1
 1227 110 1164 27 1078 -43 c 1
 1074 61 1056 177 1024 307 c 0
 950 612 768 711 625 748 c 1
 568 764 514 772 464 773 c 1
 545 651 585 469 585 225 c 1
 538 109 468 20 374 -43 c 1
 338 383 329 566 218 737 c 1
 207 762 154 803 147 819 c 1
 185 927 241 1018 314 1091 c 1
EndSplineSet
LCarets2: 1 91 
EndChar

StartChar: tet
Encoding: 1496 1496 69
Width: 1452
GlyphClass: 2
Flags: W
HStem: -33 316<661.953 864.23> 785 288<766.426 987.637>
VStem: 1044 208<444.897 722.939>
AnchorPoint: "A-8" 802 0 basechar 0
AnchorPoint: "A-63" 914 0 basechar 0
AnchorPoint: "A-62" 800.25 0 basechar 0
AnchorPoint: "A-61" 800.25 0 basechar 0
AnchorPoint: "A-59" 298.75 0 basechar 0
AnchorPoint: "A-21" -66.75 0 basechar 0
AnchorPoint: "A-20" 281.75 0 basechar 0
AnchorPoint: "A-7" 800.25 0 basechar 0
AnchorPoint: "A-6" 800.25 0 basechar 0
AnchorPoint: "A-5" 800.25 0 basechar 0
AnchorPoint: "A-4" 800.25 0 basechar 0
LayerCount: 2
Fore
SplineSet
337 1091 m 1
 404 977 464 850 518 710 c 1
 578 538 l 1
 650 324 665 297 729 285 c 0
 737 283 746 283 754 283 c 0
 783 283 810 292 837 311 c 1
 916 359 1044 439 1044 564 c 0
 1044 576 1042 588 1040 601 c 1
 1018 746 956 785 900 785 c 0
 828 785 743 749 644 676 c 1
 643 690 643 707 643 727 c 0
 643 803 649 911 661 952 c 1
 750 1035 844 1073 931 1073 c 0
 1086 1073 1217 951 1243 756 c 1
 1249 715 1252 674 1252 635 c 0
 1252 475 1202 334 1134 242 c 0
 1069 155 950 53 844 0 c 1
 799 -22 758 -33 722 -33 c 0
 674 -33 634 -13 601 26 c 0
 413 251 350 513 154 782 c 1
 172 850 284 1032 337 1091 c 1
EndSplineSet
LCarets2: 1 85 
EndChar

StartChar: yod
Encoding: 1497 1497 70
Width: 863
GlyphClass: 2
Flags: W
VStem: 111 582
AnchorPoint: "A-8" 511 0 basechar 0
AnchorPoint: "A-63" 621 0 basechar 0
AnchorPoint: "A-62" 485.875 0 basechar 0
AnchorPoint: "A-61" 485.875 0 basechar 0
AnchorPoint: "A-59" 307.375 0 basechar 0
AnchorPoint: "A-21" -58.125 0 basechar 0
AnchorPoint: "A-20" 247.875 0 basechar 0
AnchorPoint: "A-7" 521 0 basechar 0
AnchorPoint: "A-6" 502.875 0 basechar 0
AnchorPoint: "A-5" 502.875 0 basechar 0
AnchorPoint: "A-4" 502.875 0 basechar 0
LayerCount: 2
Fore
SplineSet
111 829 m 1
 134 881 216 1044 290 1103 c 1
 569 961 686 844 693 585 c 1
 656 489 598 406 517 336 c 1
 466 677 392 705 197 790 c 1
 111 829 l 1
EndSplineSet
LCarets2: 1 36 
EndChar

StartChar: finalkaf
Encoding: 1498 1498 71
Width: 1205
GlyphClass: 2
Flags: W
HStem: 797 283<219.672 368.087>
VStem: 542 205<312.487 565.007>
AnchorPoint: "A-8" 425 0 basechar 0
AnchorPoint: "A-63" 428.95 0 basechar 0
AnchorPoint: "A-62" 369.45 0 basechar 0
AnchorPoint: "A-61" 267.45 0 basechar 0
AnchorPoint: "A-59" 233.45 0 basechar 0
AnchorPoint: "A-21" -132.05 0 basechar 0
AnchorPoint: "A-20" 165.45 0 basechar 0
AnchorPoint: "A-7" 141 0 basechar 0
AnchorPoint: "A-6" 221 0 basechar 0
AnchorPoint: "A-5" 341 0 basechar 0
AnchorPoint: "A-4" 539.45 0 basechar 0
LayerCount: 2
Fore
SplineSet
229 1080 m 1
 534 1038 786 965 985 862 c 1
 984 838 975 794 958 730 c 0
 941 667 928 624 919 602 c 1
 887 600 856 594 827 584 c 0
 774 566 747 533 747 485 c 0
 747 470 750 453 755 435 c 1
 924 -126 l 1
 890 -210 832 -296 750 -384 c 1
 668 -141 607 57 567 210 c 0
 550 273 542 332 542 388 c 0
 542 500 575 598 642 681 c 1
 486 734 303 773 91 797 c 1
 133 919 179 1013 229 1080 c 1
EndSplineSet
LCarets2: 1 72 
EndChar

StartChar: kaf
Encoding: 1499 1499 72
Width: 1095
GlyphClass: 2
Flags: W
HStem: -57 271<329.617 472.094> 789 297<281.686 476.343>
VStem: 747 226<340.739 587.16>
AnchorPoint: "A-8" 647 0 basechar 0
AnchorPoint: "A-63" 713 0 basechar 0
AnchorPoint: "A-62" 627.65 0 basechar 0
AnchorPoint: "A-61" 627.65 0 basechar 0
AnchorPoint: "A-59" 236.65 0 basechar 0
AnchorPoint: "A-21" -128.85 0 basechar 0
AnchorPoint: "A-20" 202.65 0 basechar 0
AnchorPoint: "A-7" 643 0 basechar 0
AnchorPoint: "A-6" 563 0 basechar 0
AnchorPoint: "A-5" 563 0 basechar 0
AnchorPoint: "A-4" 593 0 basechar 0
LayerCount: 2
Fore
SplineSet
747 359 m 1
 738 729 583 752 112 789 c 1
 158 898 218 997 292 1086 c 1
 417 1065 654 1035 778 943 c 1
 911 841 966 706 973 482 c 1
 973 481 973 480 973 478 c 0
 973 397 940 301 874 190 c 0
 818 97 579 -18 235 -57 c 1
 257 40 290 131 336 214 c 1
 492 253 629 301 747 359 c 1
EndSplineSet
LCarets2: 1 74 
Substitution2: "'jalt' Wide Letter Alternatives in Hebrew subtable" kaf.wide
EndChar

StartChar: lamed
Encoding: 1500 1500 73
Width: 1080
GlyphClass: 2
Flags: W
VStem: 623 253<588.792 710.406>
AnchorPoint: "A-8" 597 0 basechar 0
AnchorPoint: "A-63" 599 0 basechar 0
AnchorPoint: "A-62" 453.825 0 basechar 0
AnchorPoint: "A-61" 479.325 0 basechar 0
AnchorPoint: "A-59" 215.825 0 basechar 0
AnchorPoint: "A-21" -149.675 0 basechar 0
AnchorPoint: "A-20" -68.6328 100 basechar 0
AnchorPoint: "A-7" 401 0 basechar 0
AnchorPoint: "A-6" 564.325 0 basechar 0
AnchorPoint: "A-5" 549 0 basechar 0
AnchorPoint: "A-4" 531 0 basechar 0
LayerCount: 2
Fore
SplineSet
702 364 m 0
 702 361 702 358 702 356 c 0
 702 302 711 266 732 227 c 1
 681 120 612 30 526 -43 c 1
 505 2 466 98 466 244 c 0
 466 407 623 501 623 630 c 0
 623 645 621 661 616 679 c 1
 609 712 566 720 479 741 c 1
 314 777 l 1
 145 812 77 822 53 901 c 0
 37 953 21 1031 4 1135 c 1
 62 1242 133 1329 217 1398 c 1
 227 1290 234 1225 243 1183 c 1
 256 1096 292 1077 503 1033 c 0
 598 1013 666 998 707 986 c 0
 813 957 869 862 876 703 c 1
 876 700 876 698 876 695 c 0
 876 575 704 498 702 364 c 0
EndSplineSet
LCarets2: 1 67 
Substitution2: "'jalt' Wide Letter Alternatives in Hebrew subtable" lamed.wide
EndChar

StartChar: finalmem
Encoding: 1501 1501 74
Width: 1328
GlyphClass: 2
Flags: W
HStem: -81 281<621.118 833.375>
VStem: 979 198<446.68 719> 1015 226<280.253 376.448>
AnchorPoint: "A-8" 901 0 basechar 0
AnchorPoint: "A-63" 959 0 basechar 0
AnchorPoint: "A-62" 771.9 0 basechar 0
AnchorPoint: "A-61" 771.9 0 basechar 0
AnchorPoint: "A-59" 291.65 0 basechar 0
AnchorPoint: "A-21" -73.8496 0 basechar 0
AnchorPoint: "A-20" 257.65 0 basechar 0
AnchorPoint: "A-7" 859 0 basechar 0
AnchorPoint: "A-6" 899 0 basechar 0
AnchorPoint: "A-5" 859 0 basechar 0
AnchorPoint: "A-4" 809 0 basechar 0
AnchorPoint: "A-3" 859 0 basechar 0
LayerCount: 2
Fore
SplineSet
472 759 m 1xc0
 526 557 l 2
 559 434 586 341 605 280 c 0
 621 227 653 200 700 200 c 0
 711 200 724 202 738 205 c 0
 913 248 1005 285 1015 316 c 0xa0
 1017 324 1014 332 1005 340 c 2
 975 371 l 1
 964 384 957 399 953 415 c 1
 953 462 979 533 979 586 c 0
 979 612 972 633 953 644 c 1
 914 669 898 670 840 684 c 1
 751 708 628 733 472 759 c 1xc0
107 829 m 1
 133 890 234 1038 282 1072 c 1
 289 1072 323 1067 385 1056 c 1
 503 1037 l 2
 602 1020 804 981 992 911 c 1
 1139 860 1177 771 1177 667 c 0xc0
 1177 606 1164 540 1153 473 c 1
 1197 411 1223 368 1230 341 c 0
 1237 313 1241 287 1241 263 c 0
 1241 221 1230 186 1207 157 c 1
 1179 118 1136 85 1079 58 c 0
 934 -13 722 -81 620 -81 c 0
 612 -81 605 -82 598 -81 c 1
 509 -71 450 -15 421 85 c 0
 365 280 309 518 253 799 c 1
 107 829 l 1
EndSplineSet
LCarets2: 1 83 
Substitution2: "'jalt' Wide Letter Alternatives in Hebrew subtable" finalmem.wide
EndChar

StartChar: mem
Encoding: 1502 1502 75
Width: 1378
GlyphClass: 2
Flags: W
HStem: 760 302<759.913 958.013>
VStem: 360 239<489.228 642.689>
AnchorPoint: "A-8" 792 0 basechar 0
AnchorPoint: "A-63" 963 0 basechar 0
AnchorPoint: "A-62" 786.75 0 basechar 0
AnchorPoint: "A-61" 786.75 0 basechar 0
AnchorPoint: "A-59" 302.25 0 basechar 0
AnchorPoint: "A-21" -63.25 0 basechar 0
AnchorPoint: "A-20" 336.25 0 basechar 0
AnchorPoint: "A-7" 786.75 0 basechar 0
AnchorPoint: "A-6" 786.75 0 basechar 0
AnchorPoint: "A-5" 786.75 0 basechar 0
AnchorPoint: "A-4" 786.75 0 basechar 0
LayerCount: 2
Fore
SplineSet
360 250 m 1
 351 308 344 365 344 421 c 0
 344 461 360 492 360 531 c 0
 360 539 361 546 360 554 c 1
 337 664 203 760 122 806 c 1
 152 871 253 1026 312 1085 c 1
 416 1005 495 905 547 786 c 1
 578 940 798 1062 912 1062 c 0
 979 1061 1100 1047 1191 763 c 1
 1218 683 1238 583 1238 520 c 0
 1238 502 1236 488 1233 477 c 1
 1204 378 1168 292 1127 219 c 1
 1105 176 1070 144 1025 122 c 0
 838 33 638 -30 424 -67 c 1
 449 9 533 190 581 252 c 1
 586 253 606 259 641 269 c 2
 712 289 l 1
 943 366 1018 406 1045 460 c 1
 1008 659 968 760 864 760 c 0
 825 760 778 746 718 718 c 0
 655 689 613 665 591 644 c 1
 596 619 599 601 599 582 c 0
 599 525 583 350 360 250 c 1
EndSplineSet
LCarets2: 1 89 
EndChar

StartChar: finalnun
Encoding: 1503 1503 76
Width: 787
GlyphClass: 2
Flags: W
VStem: 111 616
AnchorPoint: "A-8" 51 0 basechar 0
AnchorPoint: "A-63" 171 0 basechar 0
AnchorPoint: "A-62" -64.7002 0 basechar 0
AnchorPoint: "A-61" -175.2 0 basechar 0
AnchorPoint: "A-59" 207.3 0 basechar 0
AnchorPoint: "A-21" -158.2 0 basechar 0
AnchorPoint: "A-20" 147.8 0 basechar 0
AnchorPoint: "A-7" -47.7002 0 basechar 0
AnchorPoint: "A-6" -13.7002 0 basechar 0
AnchorPoint: "A-5" 96.7998 0 basechar 0
AnchorPoint: "A-4" 207.3 0 basechar 0
AnchorPoint: "A-3" 261 0 basechar 0
LayerCount: 2
Fore
SplineSet
304 1091 m 1
 515 952 624 709 666 490 c 0
 707 278 727 96 727 -58 c 0
 727 -75 727 -92 726 -108 c 1
 696 -170 633 -243 536 -326 c 1
 535 -305 532 -262 528 -195 c 1
 516 -38 l 1
 461 484 385 604 111 823 c 1
 138 882 246 1033 304 1091 c 1
EndSplineSet
LCarets2: 1 36 
EndChar

StartChar: nun
Encoding: 1504 1504 77
Width: 852
GlyphClass: 2
Flags: W
VStem: 135 591
AnchorPoint: "A-8" 481 0 basechar 0
AnchorPoint: "A-63" 561 0 basechar 0
AnchorPoint: "A-62" 420.825 0 basechar 0
AnchorPoint: "A-61" 420.825 0 basechar 0
AnchorPoint: "A-59" 208.325 0 basechar 0
AnchorPoint: "A-21" -135.925 0 basechar 0
AnchorPoint: "A-20" 259.325 0 basechar 0
AnchorPoint: "A-7" 332 0 basechar 0
AnchorPoint: "A-6" 480.325 0 basechar 0
AnchorPoint: "A-5" 441 0 basechar 0
AnchorPoint: "A-4" 480.325 0 basechar 0
LayerCount: 2
Fore
SplineSet
135 816 m 1
 159 902 246 1037 286 1082 c 1
 422 1048 675 905 712 630 c 0
 721 566 726 518 726 470 c 0
 726 396 714 324 685 193 c 1
 581 96 435 4 246 -84 c 1
 240 -42 237 -2 237 38 c 0
 237 96 244 152 257 205 c 1
 540 382 l 1
 525 641 345 745 135 816 c 1
EndSplineSet
LCarets2: 1 47 
EndChar

StartChar: samekh
Encoding: 1505 1505 78
Width: 1373
GlyphClass: 2
Flags: W
HStem: -36 287<706.164 887.821>
AnchorPoint: "A-8" 851 0 basechar 0
AnchorPoint: "A-63" 933 0 basechar 0
AnchorPoint: "A-62" 812.7 0 basechar 0
AnchorPoint: "A-61" 812.7 0 basechar 0
AnchorPoint: "A-59" 319.7 0 basechar 0
AnchorPoint: "A-21" -37.2998 0 basechar 0
AnchorPoint: "A-20" 319.7 0 basechar 0
AnchorPoint: "A-7" 812.7 0 basechar 0
AnchorPoint: "A-6" 853 0 basechar 0
AnchorPoint: "A-5" 812.7 0 basechar 0
AnchorPoint: "A-4" 812.7 0 basechar 0
LayerCount: 2
Fore
SplineSet
515 753 m 1
 575 566 640 412 709 290 c 1
 725 262 749 251 776 251 c 0
 877 251 1028 404 1046 435 c 1
 1061 457 1048 498 1048 498 c 2
 1034 538 l 1
 947 756 619 734 515 753 c 1
107 787 m 1
 126 860 213 1040 259 1080 c 1
 925 988 1001 970 1114 874 c 0
 1188 810 1229 732 1238 640 c 0
 1241 607 1243 577 1243 548 c 0
 1243 436 1218 352 1160 266 c 0
 1094 168 914 -36 739 -36 c 0
 698 -36 658 -25 620 0 c 0
 576 28 540 73 513 135 c 0
 420 352 355 563 320 766 c 1
 238 775 167 782 107 787 c 1
EndSplineSet
LCarets2: 1 87 
EndChar

StartChar: ayin
Encoding: 1506 1506 79
Width: 1335
GlyphClass: 2
Flags: W
VStem: 940 210<408.848 620.008>
AnchorPoint: "A-63" 882 0 basechar 0
AnchorPoint: "A-62" 693.125 0 basechar 0
AnchorPoint: "A-61" 693.125 0 basechar 0
AnchorPoint: "A-59" 259.625 0 basechar 0
AnchorPoint: "A-21" -105.875 0 basechar 0
AnchorPoint: "A-20" 242.625 0 basechar 0
AnchorPoint: "A-7" 659.125 0 basechar 0
AnchorPoint: "A-6" 792 0 basechar 0
AnchorPoint: "A-5" 712 0 basechar 0
AnchorPoint: "A-4" 693.125 0 basechar 0
AnchorPoint: "A-3" 824.947 40 basechar 0
LayerCount: 2
Fore
SplineSet
557 239 m 1
 450 529 259 672 148 763 c 1
 183 897 230 1006 290 1091 c 1
 532 885 664 652 730 304 c 1
 788 326 940 399 940 488 c 0
 940 599 840 702 778 751 c 1
 821 880 878 993 950 1091 c 1
 1095 942 1150 787 1150 602 c 0
 1150 176 834 138 650 26 c 1
 499 -68 632 -164 281 -207 c 1
 282 -181 283 -156 283 -130 c 0
 283 -104 283 -79 284 -57 c 1
 284 121 486 208 557 239 c 1
EndSplineSet
LCarets2: 1 78 
Substitution2: "Automatic Alternate Ayin Subtable" ayin.alt
Substitution2: "'salt' Stylistic Alternatives in Hebrew subtable" ayin.alt
EndChar

StartChar: finalpe
Encoding: 1507 1507 80
Width: 1219
GlyphClass: 2
Flags: W
VStem: 213 228<601.763 786.704> 980 181<-153.252 -63.0312>
AnchorPoint: "A-8" 517 0 basechar 0
AnchorPoint: "A-63" 618.376 0 basechar 0
AnchorPoint: "A-62" 524.876 0 basechar 0
AnchorPoint: "A-61" 431.376 0 basechar 0
AnchorPoint: "A-59" 329.376 0 basechar 0
AnchorPoint: "A-21" -36.124 0 basechar 0
AnchorPoint: "A-20" 329.376 0 basechar 0
AnchorPoint: "A-7" 357 0 basechar 0
AnchorPoint: "A-6" 457 0 basechar 0
AnchorPoint: "A-5" 607 0 basechar 0
AnchorPoint: "A-4" 720.376 0 basechar 0
LayerCount: 2
Fore
SplineSet
471 287 m 1
 327 325 213 450 213 618 c 0
 213 765 294 918 456 1077 c 1
 648 1057 803 995 920 891 c 0
 994 825 1046 728 1075 599 c 0
 1133 345 1162 124 1162 -62 c 0
 1162 -84 1162 -106 1161 -128 c 1
 1113 -219 1053 -297 980 -363 c 1
 954 -50 910 226 875 369 c 1
 837 516 758 648 657 718 c 0
 605 754 541 777 466 789 c 1
 449 757 441 728 441 700 c 0
 441 637 486 584 575 543 c 1
 575 542 575 541 575 540 c 0
 575 475 506 331 471 287 c 1
EndSplineSet
LCarets2: 1 73 
EndChar

StartChar: pe
Encoding: 1508 1508 81
Width: 1232
GlyphClass: 2
Flags: W
HStem: -69 297<430.453 591.238>
VStem: 207 225<570.5 800.406> 903 207<381.206 613.29>
AnchorPoint: "A-8" 736.179 16 basechar 0
AnchorPoint: "A-63" 847 0 basechar 0
AnchorPoint: "A-62" 738.65 0 basechar 0
AnchorPoint: "A-61" 738.65 0 basechar 0
AnchorPoint: "A-59" 322.15 0 basechar 0
AnchorPoint: "A-21" -43.3496 0 basechar 0
AnchorPoint: "A-20" 390.15 0 basechar 0
AnchorPoint: "A-7" 697 0 basechar 0
AnchorPoint: "A-6" 647 0 basechar 0
AnchorPoint: "A-5" 697 0 basechar 0
AnchorPoint: "A-4" 697 0 basechar 0
LayerCount: 2
Fore
SplineSet
453 1082 m 1
 588 1064 745 1045 903 948 c 1
 1034 869 1110 694 1110 527 c 0
 1110 482 1104 438 1093 396 c 1
 1074 320 998 183 963 153 c 1
 852 65 560 -69 332 -69 c 1
 341 37 377 136 439 228 c 1
 728 279 847 369 903 413 c 1
 894 621 843 690 658 756 c 0
 590 780 521 795 448 802 c 1
 440 786 432 766 432 746 c 0
 432 720 445 692 488 665 c 0
 503 655 530 639 567 617 c 1
 558 577 514 427 431 353 c 1
 282 421 207 513 207 628 c 0
 207 810 318 972 453 1082 c 1
EndSplineSet
LCarets2: 1 75 
EndChar

StartChar: finaltsadi
Encoding: 1509 1509 82
Width: 1292
GlyphClass: 2
Flags: W
VStem: 793 268<653.074 894.201> 804 189<-166.349 -32.2246>
AnchorPoint: "A-8" 1413 0 basechar 0
AnchorPoint: "A-63" 1345 0 basechar 0
AnchorPoint: "A-62" 1063.25 0 basechar 0
AnchorPoint: "A-61" 1063.25 0 basechar 0
AnchorPoint: "A-59" 570.25 0 basechar 0
AnchorPoint: "A-21" 204.75 0 basechar 0
AnchorPoint: "A-20" 393 0 basechar 0
AnchorPoint: "A-7" 1545 0 basechar 0
AnchorPoint: "A-6" 1409 0 basechar 0
AnchorPoint: "A-5" 1235 0 basechar 0
AnchorPoint: "A-4" 1145 0 basechar 0
AnchorPoint: "A-3" 412.633 -100 basechar 0
LayerCount: 2
Fore
SplineSet
842 441 m 1x80
 902 334 993 189 993 -141 c 1
 945 -235 890 -286 804 -349 c 1x40
 794 90 629 282 456 451 c 1
 330 571 l 1
 259 636 177 727 140 809 c 1
 179 915 239 1008 321 1088 c 1
 419 858 566 731 639 663 c 1
 741 564 l 1
 776 598 793 634 793 672 c 0
 793 715 771 761 727 809 c 1
 784 911 859 1003 952 1088 c 1
 1033 986 1061 895 1061 819 c 0
 1061 704 1000 621 968 580 c 0
 945 550 925 525 906 506 c 2
 842 441 l 1x80
EndSplineSet
LCarets2: 1 71 
EndChar

StartChar: tsadi
Encoding: 1510 1510 83
Width: 1255
GlyphClass: 2
Flags: W
VStem: 819 221<669.797 927.153>
AnchorPoint: "A-8" 694 0 basechar 0
AnchorPoint: "A-63" 834 0 basechar 0
AnchorPoint: "A-62" 699.625 0 basechar 0
AnchorPoint: "A-61" 699.625 0 basechar 0
AnchorPoint: "A-59" 308.625 0 basechar 0
AnchorPoint: "A-21" -56.875 0 basechar 0
AnchorPoint: "A-20" 257.625 0 basechar 0
AnchorPoint: "A-7" 699.625 0 basechar 0
AnchorPoint: "A-6" 674 0 basechar 0
AnchorPoint: "A-5" 684 0 basechar 0
AnchorPoint: "A-4" 699.625 0 basechar 0
LayerCount: 2
Fore
SplineSet
1067 453 m 0
 1038 246 945 146 649 33 c 0
 502 -23 365 -59 238 -76 c 1
 244 1 328 169 380 221 c 1
 701 297 841 331 843 364 c 1
 843 383 813 391 803 392 c 1
 734 415 390 502 227 682 c 0
 190 723 169 754 162 777 c 1
 202 892 263 996 346 1090 c 1
 392 888 620 756 800 663 c 1
 815 692 819 707 819 718 c 0
 819 730 813 737 810 753 c 0
 809 759 803 766 791 774 c 2
 768 789 l 2
 766 791 755 797 738 806 c 2
 706 822 l 1
 756 931 813 1020 875 1090 c 1
 991 1034 1040 951 1040 859 c 1
 1038 750 996 657 950 588 c 1
 1027 552 1067 521 1067 458 c 0
 1067 456 1067 455 1067 453 c 0
EndSplineSet
LCarets2: 1 75 
EndChar

StartChar: kof
Encoding: 1511 1511 84
Width: 1334
GlyphClass: 2
Flags: W
VStem: 779 257<82.4404 282.988>
AnchorPoint: "A-8" 1174 0 basechar 0
AnchorPoint: "A-63" 1178 0 basechar 0
AnchorPoint: "A-62" 821.825 0 basechar 0
AnchorPoint: "A-61" 821.825 0 basechar 0
AnchorPoint: "A-59" 362.825 0 basechar 0
AnchorPoint: "A-21" -2.6748 0 basechar 0
AnchorPoint: "A-20" 345.825 0 basechar 0
AnchorPoint: "A-7" 1178 0 basechar 0
AnchorPoint: "A-6" 1078 0 basechar 0
AnchorPoint: "A-5" 958 0 basechar 0
AnchorPoint: "A-4" 821.825 0 basechar 0
LayerCount: 2
Fore
SplineSet
527 -319 m 1
 455 4 380 275 300 495 c 1
 333 583 385 655 457 710 c 1
 563 437 l 1
 609 314 667 138 713 -67 c 1
 665 -179 634 -220 527 -319 c 1
1042 283 m 1
 1038 283 1036 266 1036 233 c 0
 1036 225 1036 217 1036 210 c 0
 1036 186 1035 166 1032 148 c 1
 999 76 931 -5 838 -43 c 1
 801 -2 779 73 779 149 c 0
 779 203 790 258 815 302 c 1
 905 441 l 1
 936 487 959 521 972 544 c 1
 961 602 938 646 903 676 c 1
 873 700 609 751 433 771 c 1
 400 776 166 799 99 807 c 1
 149 912 211 1000 285 1071 c 1
 574 1044 810 1003 993 947 c 0
 1078 921 1206 764 1208 590 c 1
 1159 456 1076 345 1042 283 c 1
EndSplineSet
LCarets2: 1 85 
EndChar

StartChar: resh
Encoding: 1512 1512 85
Width: 1134
GlyphClass: 2
Flags: W
VStem: 807 191<150.127 244.062>
AnchorPoint: "A-8" 861 0 basechar 0
AnchorPoint: "A-63" 864 0 basechar 0
AnchorPoint: "A-62" 687.2 0 basechar 0
AnchorPoint: "A-61" 602.2 0 basechar 0
AnchorPoint: "A-59" 185.7 0 basechar 0
AnchorPoint: "A-21" -179.8 0 basechar 0
AnchorPoint: "A-20" 109.2 0 basechar 0
AnchorPoint: "A-7" 657.45 0 basechar 0
AnchorPoint: "A-6" 712.7 0 basechar 0
AnchorPoint: "A-5" 831.7 0 basechar 0
AnchorPoint: "A-4" 865.7 0 basechar 0
LayerCount: 2
Fore
SplineSet
244 1080 m 1
 434 1042 565 998 587 992 c 1
 616 982 640 974 657 965 c 2
 716 935 l 2
 739 924 785 896 821 860 c 1
 916 761 975 534 998 179 c 1
 956 76 831 -26 807 -43 c 1
 794 101 755 353 688 503 c 1
 627 648 563 675 507 711 c 1
 492 719 474 728 452 736 c 2
 398 756 l 1
 365 770 328 776 281 788 c 0
 274 789 85 826 59 826 c 1
 113 931 174 1015 244 1080 c 1
EndSplineSet
LCarets2: 1 72 
Substitution2: "'jalt' Wide Letter Alternatives in Hebrew subtable" resh.wide
EndChar

StartChar: shin
Encoding: 1513 1513 86
Width: 1531
GlyphClass: 2
Flags: W
HStem: -30 294<697.035 893.516>
VStem: 654 262<601.842 872.724> 1078 238<433.714 730.061>
AnchorPoint: "A-8" 937 0 basechar 0
AnchorPoint: "A-63" 1071 0 basechar 0
AnchorPoint: "A-62" 940.575 0 basechar 0
AnchorPoint: "A-61" 940.575 0 basechar 0
AnchorPoint: "A-59" 375.325 0 basechar 0
AnchorPoint: "A-21" 9.8252 0 basechar 0
AnchorPoint: "A-20" 307.325 0 basechar 0
AnchorPoint: "A-7" 940.575 0 basechar 0
AnchorPoint: "A-6" 940.575 0 basechar 0
AnchorPoint: "A-5" 871 0 basechar 0
AnchorPoint: "A-4" 871 0 basechar 0
LayerCount: 2
Fore
SplineSet
592 562 m 1
 637 597 654 635 654 673 c 0
 654 723 624 774 589 820 c 1
 639 935 704 1026 785 1095 c 1
 868 995 916 873 916 764 c 0
 916 713 906 666 884 624 c 0
 842 542 763 470 647 408 c 1
 680 316 716 264 776 264 c 0
 813 264 860 284 922 327 c 1
 981 366 1033 415 1078 472 c 1
 1078 481 1078 491 1078 500 c 0
 1078 621 1047 731 986 829 c 1
 1031 932 1119 1033 1184 1084 c 1
 1261 991 1316 847 1316 685 c 0
 1316 582 1294 471 1241 362 c 1
 1192 263 1118 132 942 23 c 1
 882 -15 829 -30 782 -30 c 0
 679 -30 607 42 564 104 c 1
 396 328 370 574 135 813 c 1
 170 916 240 1031 314 1095 c 1
 445 891 537 713 592 562 c 1
EndSplineSet
LCarets2: 1 104 
EndChar

StartChar: tav
Encoding: 1514 1514 87
Width: 1307
GlyphClass: 2
Flags: W
VStem: 1076 184<135.812 246.922>
AnchorPoint: "A-8" 847 0 basechar 0
AnchorPoint: "A-3" 851 0 basechar 0
AnchorPoint: "A-63" 951 0 basechar 0
AnchorPoint: "A-62" 790.6 0 basechar 0
AnchorPoint: "A-61" 790.6 0 basechar 0
AnchorPoint: "A-59" 242.35 0 basechar 0
AnchorPoint: "A-21" -101.9 0 basechar 0
AnchorPoint: "A-20" 276.35 0 basechar 0
AnchorPoint: "A-7" 751 0 basechar 0
AnchorPoint: "A-6" 790.6 0 basechar 0
AnchorPoint: "A-5" 790.6 0 basechar 0
AnchorPoint: "A-4" 851 0 basechar 0
LayerCount: 2
Fore
SplineSet
165 824 m 1
 186 889 267 1036 349 1082 c 1
 553 1065 886 992 1055 838 c 0
 1097 799 1129 752 1151 696 c 0
 1207 559 1243 379 1260 159 c 1
 1223 88 1161 20 1076 -44 c 1
 1004 562 911 664 622 748 c 1
 666 560 682 466 682 407 c 0
 682 348 666 324 646 275 c 0
 583 121 563 104 437 45 c 0
 360 9 282 -20 202 -43 c 1
 196 -7 193 28 193 63 c 0
 193 123 202 182 219 239 c 1
 221 241 294 267 305 272 c 2
 346 289 l 2
 359 295 427 324 468 362 c 1
 440 513 408 656 373 792 c 1
 284 808 215 819 165 824 c 1
EndSplineSet
LCarets2: 1 91 
Substitution2: "'jalt' Wide Letter Alternatives in Hebrew subtable" tav.wide
EndChar

StartChar: zerononjoin
Encoding: 8204 8204 95
Width: 0
GlyphClass: 2
Flags: W
HStem: 1195 424
VStem: -480 464
LayerCount: 2
Fore
SplineSet
-267 1512 m 1
 -180 1619 l 1
 -54 1515 l 1
 -143 1407 l 1
 -16 1299 l 1
 -106 1195 l 1
 -229 1301 l 1
 -320 1195 l 1
 -442 1301 l 1
 -354 1407 l 1
 -480 1513 l 1
 -395 1621 l 1
 -267 1512 l 1
EndSplineSet
Validated: 1
EndChar

StartChar: zerojoin
Encoding: 8205 8205 96
Width: 0
GlyphClass: 2
Flags: W
HStem: 1396 242<-500 -369 -140 -35> 1489 149<-369 -157>
VStem: -543 551
LayerCount: 2
Fore
SplineSet
-157 1489 m 1x60
 -369 1489 l 1x60
 -352 1396 l 1
 -500 1396 l 1xa0
 -543 1638 l 1x60
 -35 1638 l 1
 8 1396 l 1
 -140 1396 l 1xa0
 -157 1489 l 1x60
EndSplineSet
Validated: 1
EndChar

StartChar: lrm
Encoding: 8206 8206 97
Width: 0
GlyphClass: 2
Flags: W
HStem: 1340 149<-472 -313>
VStem: -499 486
LayerCount: 2
Fore
SplineSet
-350 1520 m 1
 -265 1628 l 1
 -13 1414 l 1
 -190 1200 l 1
 -313 1308 l 1
 -285 1340 l 1
 -472 1340 l 1
 -499 1489 l 1
 -313 1489 l 1
 -350 1520 l 1
EndSplineSet
Validated: 1
EndChar

StartChar: rlm
Encoding: 8207 8207 98
Width: 0
GlyphClass: 2
Flags: W
HStem: 1332 149<-185 -25>
VStem: -484 484
LayerCount: 2
Fore
SplineSet
-147 1301 m 1
 -232 1193 l 1
 -484 1407 l 1
 -308 1621 l 1
 -185 1513 l 1
 -212 1481 l 1
 -25 1481 l 1
 0 1332 l 1
 -185 1332 l 1
 -147 1301 l 1
EndSplineSet
Validated: 1
EndChar

StartChar: quoteleft
Encoding: 8216 8216 99
Width: 418
GlyphClass: 2
Flags: W
VStem: -102 187<1036.66 1246.44>
LayerCount: 2
Fore
SplineSet
-9 541 m 1
 -71 695 -102 857 -102 1027 c 0
 -102 1100 -96 1174 -85 1250 c 1
 -39 1300 18 1336 85 1359 c 1
 97 1114 145 917 230 767 c 1
 181 675 102 600 -9 541 c 1
EndSplineSet
Validated: 1
EndChar

StartChar: newshekel
Encoding: 8362 8362 105
Width: 1776
GlyphClass: 2
Flags: W
HStem: -83 290<828 1019.53>
VStem: 270 211<193.086 422.727> 1266 314<735.4 898.854>
LayerCount: 2
Fore
SplineSet
1417 451 m 1
 1381 593 1331 711 1266 806 c 1
 1304 900 1363 995 1444 1091 c 1
 1506 1005 1552 912 1580 812 c 1
 1601 745 1615 674 1621 599 c 0
 1623 587 1623 575 1623 565 c 0
 1623 550 1622 537 1618 526 c 0
 1602 472 1588 431 1576 402 c 0
 1564 373 1546 336 1522 292 c 0
 1498 247 1461 207 1410 171 c 0
 1318 106 1223 50 1125 4 c 0
 1027 -42 939 -70 862 -80 c 0
 850 -82 839 -83 828 -83 c 0
 763 -83 714 -51 681 10 c 0
 658 55 625 186 580 404 c 1
 633 476 697 534 773 579 c 1
 841 268 l 2
 847 244 860 227 880 216 c 0
 891 210 903 207 916 207 c 0
 926 207 937 209 949 213 c 0
 1118 271 1274 350 1417 451 c 1
210 1091 m 1
 218 1086 229 1078 243 1066 c 0
 257 1054 272 1044 287 1038 c 0
 302 1031 320 1026 343 1024 c 0
 359 1023 399 1020 463 1015 c 0
 526 1009 580 1005 623 1001 c 0
 666 997 716 990 772 980 c 0
 829 971 875 960 911 947 c 0
 981 922 1043 881 1097 825 c 0
 1152 769 1194 706 1222 637 c 1
 1179 546 1118 471 1039 413 c 1
 990 534 916 625 816 688 c 0
 783 709 714 729 609 746 c 0
 505 763 422 772 362 773 c 1
 441 651 481 469 481 225 c 1
 435 109 364 20 270 -43 c 1
 259 89 248 217 236 341 c 0
 220 505 180 637 116 737 c 0
 109 748 96 762 76 782 c 0
 56 801 45 814 43 819 c 1
 81 927 137 1018 210 1091 c 1
EndSplineSet
Validated: 1
EndChar

StartChar: Euro
Encoding: 8364 8364 106
Width: 976
GlyphClass: 2
Flags: W
HStem: -40 282<474.162 645.617> 816 20G<614.577 678> 996 249<367.928 644.567>
VStem: 116 197<725 925.826>
LayerCount: 2
Fore
SplineSet
739 1215 m 1
 722 1114 691 1035 647 980 c 1
 595 991 549 996 509 996 c 0
 485 996 463 994 444 990 c 0
 393 980 357 959 338 927 c 0
 323 902 315 874 313 842 c 0
 313 837 313 834 313 829 c 0
 313 801 317 767 326 729 c 1
 326 725 l 1
 678 836 l 1
 678 833 678 832 678 829 c 0
 678 783 670 735 654 688 c 1
 358 594 l 1
 370 551 370 551 382 512 c 1
 669 602 l 1
 667 549 658 500 643 456 c 1
 425 384 l 1
 430 370 l 2
 462 285 501 242 546 242 c 0
 552 242 557 243 563 244 c 0
 643 265 749 308 881 375 c 1
 882 360 882 346 882 331 c 0
 882 262 873 193 853 121 c 1
 751 48 648 -2 544 -29 c 1
 523 -36 504 -40 485 -40 c 0
 478 -40 471 -41 464 -40 c 0
 440 -35 421 -26 407 -17 c 0
 393 -8 378 6 362 26 c 0
 312 85 260 181 207 314 c 1
 102 280 l 1
 102 329 112 379 130 432 c 1
 162 442 l 1
 153 470 146 497 140 522 c 1
 111 514 l 1
 113 549 117 580 123 606 c 1
 118 635 116 663 116 687 c 0
 116 692 116 696 116 701 c 0
 117 778 128 846 148 906 c 0
 175 981 214 1050 265 1112 c 0
 317 1174 376 1213 442 1231 c 0
 472 1238 502 1243 533 1244 c 0
 545 1244 556 1245 566 1245 c 0
 583 1245 599 1244 613 1242 c 0
 634 1240 656 1237 678 1232 c 0
 699 1228 714 1224 721 1221 c 0
 728 1218 734 1216 739 1215 c 1
EndSplineSet
Validated: 1
EndChar

StartChar: dottedcircle
Encoding: 9676 9676 107
Width: 1150
GlyphClass: 2
Flags: W
HStem: 55 125<540.15 654.729> 109 125<330.236 444.729 732.15 846.856> 255 126<158.144 271.729 853.15 966.77> 456 126<69.5149 181.942 872.521 984.949> 657 126<87.1436 200.729 782.15 895.77> 804 125<207.25 321.942 609.15 723.856> 858 125<399.15 513.942>
VStem: 81 127<720.187 775.537> 152 127<318.187 373.77> 201 128<811.562 922.172> 324 128<171.187 226.537> 534 128<117.187 172.77> 603 128<867.187 921.468> 726 128<171.187 226.438> 776 127<720.187 775.537> 847 127<318.187 373.77>
AnchorPoint: "A-63" 750 0 basechar 0
AnchorPoint: "A-62" 656.075 0 basechar 0
AnchorPoint: "A-61" 656.075 0 basechar 0
AnchorPoint: "A-59" 93.375 0 basechar 0
AnchorPoint: "A-21" -272.125 0 basechar 0
AnchorPoint: "A-60" 622.075 0 basechar 0
AnchorPoint: "A-20" 25.375 0 basechar 0
AnchorPoint: "A-7" 600 0 basechar 0
AnchorPoint: "A-6" 622.075 0 basechar 0
AnchorPoint: "A-5" 600 0 basechar 0
AnchorPoint: "A-4" 622.075 0 basechar 0
AnchorPoint: "A-3" 610 0 basechar 0
LayerCount: 2
Fore
SplineSet
829 783 m 0x3802
 863 783 896 754 902 720 c 0
 903 716 903 713 903 709 c 0
 903 679 881 657 851 657 c 0
 816 657 782 685 776 720 c 0
 775 724 776 727 776 731 c 0
 776 760 798 783 829 783 c 0x3802
779 234 m 0x7804
 813 234 847 206 853 171 c 0
 854 167 854 164 854 161 c 0
 854 132 831 109 801 109 c 0
 766 109 732 137 726 171 c 0
 725 175 726 178 726 182 c 0
 726 212 748 234 779 234 c 0x7804
204 381 m 0
 239 381 272 353 278 318 c 0
 279 314 279 311 279 307 c 0
 279 278 257 255 226 255 c 0
 192 255 158 284 152 318 c 0
 151 322 152 325 152 329 c 0x3880
 152 359 174 381 204 381 c 0
254 929 m 0x3c40
 289 929 322 901 328 867 c 0
 329 863 329 862 329 858 c 0x3a40
 329 828 307 804 276 804 c 0
 242 804 207 832 201 867 c 0
 200 871 201 874 201 877 c 0
 201 906 224 929 254 929 c 0x3c40
133 783 m 0
 168 783 201 754 207 720 c 0
 208 716 208 713 208 709 c 0
 208 679 186 657 155 657 c 0
 121 657 87 685 81 720 c 0
 80 724 81 727 81 731 c 0x39
 81 760 103 783 133 783 c 0
377 234 m 0x7820
 412 234 445 206 451 171 c 0
 452 167 452 164 452 160 c 0
 452 131 430 109 399 109 c 0
 365 109 330 137 324 171 c 0
 323 175 324 178 324 182 c 0
 324 211 347 234 377 234 c 0x7820
900 381 m 0
 934 381 967 353 973 318 c 0
 974 314 974 311 974 307 c 0
 974 278 952 255 922 255 c 0
 887 255 853 284 847 318 c 0
 846 322 847 325 847 329 c 0x3801
 847 359 869 381 900 381 c 0
656 929 m 0x3c08
 690 929 724 901 730 867 c 0
 731 863 731 862 731 858 c 0x3a08
 731 829 708 804 678 804 c 0
 643 804 609 832 603 867 c 0
 602 871 603 874 603 878 c 0
 603 907 625 929 656 929 c 0x3c08
587 180 m 0xb810
 622 180 655 152 661 117 c 0
 662 113 662 110 662 106 c 0
 662 77 640 55 609 55 c 0
 574 55 540 83 534 117 c 0
 533 121 534 124 534 128 c 0
 534 158 556 180 587 180 c 0xb810
918 582 m 0
 952 582 985 554 991 519 c 0
 992 515 992 511 992 507 c 0
 992 478 971 456 941 456 c 0
 906 456 873 484 866 519 c 0
 865 523 865 526 865 530 c 0
 865 560 887 582 918 582 c 0
446 983 m 0x3a
 481 983 514 955 520 921 c 0
 521 917 521 914 521 910 c 0
 521 880 499 858 468 858 c 0
 433 858 399 886 393 921 c 0
 392 925 393 928 393 932 c 0
 393 961 415 983 446 983 c 0x3a
114 582 m 0
 149 582 182 554 188 519 c 0
 189 515 189 511 189 507 c 0
 189 478 168 456 137 456 c 0
 103 456 70 484 63 519 c 0
 62 523 62 526 62 530 c 0
 62 560 84 582 114 582 c 0
EndSplineSet
Validated: 1
LCarets2: 1 93 
EndChar

StartChar: ayin.alt
Encoding: 64288 64288 111
Width: 1335
GlyphClass: 2
Flags: W
VStem: 947 203<386.6 613.021>
AnchorPoint: "A-8" 859 0 basechar 0
AnchorPoint: "A-63" 911 0 basechar 0
AnchorPoint: "A-62" 704.15 0 basechar 0
AnchorPoint: "A-61" 704.15 0 basechar 0
AnchorPoint: "A-59" 287.65 0 basechar 0
AnchorPoint: "A-21" -77.8496 0 basechar 0
AnchorPoint: "A-20" 287.65 0 basechar 0
AnchorPoint: "A-7" 704.15 0 basechar 0
AnchorPoint: "A-6" 704.15 0 basechar 0
AnchorPoint: "A-5" 641 0 basechar 0
AnchorPoint: "A-4" 704.15 0 basechar 0
AnchorPoint: "A-3" 854.236 10 basechar 0
LayerCount: 2
Fore
SplineSet
542 276 m 1
 462 474 345 617 148 763 c 1
 183 897 230 1006 290 1091 c 1
 394 1002 617 812 723 311 c 1
 872 341 947 392 947 463 c 0
 947 591 854 695 778 751 c 1
 821 880 877 993 947 1091 c 1
 1092 944 1150 791 1150 602 c 0
 1150 83 758 40 580 11 c 0
 544 5 524 0 522 0 c 0
 455 -13 488 -116 251 -116 c 0
 233 -116 213 -115 192 -114 c 1
 223 11 191 206 542 276 c 1
EndSplineSet
LCarets2: 1 77 
EndChar

StartChar: alef.wide
Encoding: 64289 64289 112
Width: 2080
GlyphClass: 2
Flags: W
HStem: 560 198<568 1106.22>
VStem: 399 204<169.65 287.808> 1664 219<585.402 842.497>
AnchorPoint: "A-8" 1169 0 basechar 0
AnchorPoint: "A-63" 1151.6 0 basechar 0
AnchorPoint: "A-62" 1151.6 0 basechar 0
AnchorPoint: "A-61" 1151.6 0 basechar 0
AnchorPoint: "A-59" 361.1 0 basechar 0
AnchorPoint: "A-21" -4.40039 0 basechar 0
AnchorPoint: "A-20" 369.6 0 basechar 0
AnchorPoint: "A-7" 1151.6 0 basechar 0
AnchorPoint: "A-6" 1174 0 basechar 0
AnchorPoint: "A-5" 1151.6 0 basechar 0
AnchorPoint: "A-4" 1151.6 0 basechar 0
AnchorPoint: "A-3" 1247.95 -450 basechar 0
LayerCount: 2
Fore
SplineSet
399 -37 m 1
 353 395 303 574 152 829 c 1
 178 881 215 954 355 1097 c 1
 430 996 486 883 522 757 c 1
 560 757 615 758 682 758 c 0
 953 758 1413 741 1643 564 c 1
 1657 592 1664 617 1664 639 c 0
 1664 692 1626 733 1558 784 c 1
 1619 913 1731 1009 1745 1037 c 1
 1847 945 1883 850 1883 761 c 0
 1883 646 1823 543 1764 472 c 1
 1863 369 1924 283 1988 132 c 1
 1946 42 1889 -34 1817 -97 c 1
 1754 121 1557 286 1424 392 c 0
 1188 580 658 538 568 560 c 1
 586 463 603 330 603 192 c 1
 551 95 484 19 399 -37 c 1
EndSplineSet
LCarets2: 1 137 
EndChar

StartChar: dalet.wide
Encoding: 64290 64290 113
Width: 1786
GlyphClass: 2
Flags: W
HStem: -27 21G<1240.5 1323> 819 271<208.144 678.136>
VStem: 1135 229<367.813 611.004>
AnchorPoint: "A-8" 1428 0 basechar 0
AnchorPoint: "A-63" 1221.22 0 basechar 0
AnchorPoint: "A-62" 1136.22 0 basechar 0
AnchorPoint: "A-61" 1051.22 0 basechar 0
AnchorPoint: "A-59" 150.225 0 basechar 0
AnchorPoint: "A-21" -215.275 0 basechar 0
AnchorPoint: "A-20" 65.2246 0 basechar 0
AnchorPoint: "A-7" 1227 0 basechar 0
AnchorPoint: "A-6" 1187.22 0 basechar 0
AnchorPoint: "A-5" 1347 0 basechar 0
AnchorPoint: "A-4" 1427 0 basechar 0
AnchorPoint: "A-3" 927 0 basechar 0
LayerCount: 2
Fore
SplineSet
1290 -27 m 1
 1191 189 1135 328 1135 444 c 0
 1135 546 1178 631 1274 736 c 1
 1133 782 350 809 75 819 c 1
 94 891 179 1050 221 1090 c 1
 482 1090 1470 1003 1575 932 c 1
 1576 925 1573 907 1566 879 c 2
 1545 798 l 2
 1529 740 1506 668 1501 654 c 1
 1448 642 1364 615 1364 536 c 0
 1364 526 1365 515 1368 504 c 0
 1392 404 1424 314 1464 233 c 1
 1433 153 1356 41 1290 -27 c 1
EndSplineSet
LCarets2: 1 123 
EndChar

StartChar: he.wide
Encoding: 64291 64291 114
Width: 1851
GlyphClass: 2
Flags: W
HStem: -27 21G<1622.5 1684> 800 278<283.457 741.019>
AnchorPoint: "A-8" 1081 0 basechar 0
AnchorPoint: "A-63" 997.875 0 basechar 0
AnchorPoint: "A-62" 997.875 0 basechar 0
AnchorPoint: "A-61" 997.875 0 basechar 0
AnchorPoint: "A-59" 215.875 0 basechar 0
AnchorPoint: "A-21" -149.625 0 basechar 0
AnchorPoint: "A-20" 215.875 0 basechar 0
AnchorPoint: "A-7" 1079 0 basechar 0
AnchorPoint: "A-6" 1079 0 basechar 0
AnchorPoint: "A-5" 1029 0 basechar 0
AnchorPoint: "A-4" 1079 0 basechar 0
AnchorPoint: "A-3" 1079 0 basechar 0
LayerCount: 2
Fore
SplineSet
407 -44 m 1
 319 31 224 194 200 314 c 1
 213 406 301 578 366 589 c 1
 421 428 473 306 519 222 c 1
 519 149 437 -7 407 -44 c 1
294 1078 m 1
 521 1061 1278 1029 1434 961 c 1
 1549 912 1768 793 1807 236 c 1
 1782 177 1731 44 1637 -27 c 1
 1608 127 1595 230 1538 412 c 1
 1485 591 1403 675 1275 709 c 1
 1103 758 345 781 131 800 c 1
 164 893 218 986 294 1078 c 1
EndSplineSet
LCarets2: 1 137 
EndChar

StartChar: kaf.wide
Encoding: 64292 64292 115
Width: 1740
GlyphClass: 2
Flags: W
HStem: -57 271<258.617 592.417> 792 297<281.686 672.092>
VStem: 1392 226<308.248 604.711>
AnchorPoint: "A-8" 955 0 basechar 0
AnchorPoint: "A-63" 821.525 0 basechar 0
AnchorPoint: "A-62" 821.525 0 basechar 0
AnchorPoint: "A-61" 821.525 0 basechar 0
AnchorPoint: "A-59" 175.525 0 basechar 0
AnchorPoint: "A-21" -189.975 0 basechar 0
AnchorPoint: "A-20" 158.525 0 basechar 0
AnchorPoint: "A-7" 955 0 basechar 0
AnchorPoint: "A-6" 855 0 basechar 0
AnchorPoint: "A-5" 855 0 basechar 0
AnchorPoint: "A-4" 821.525 0 basechar 0
AnchorPoint: "A-3" 955 0 basechar 0
LayerCount: 2
Fore
SplineSet
1392 321 m 1
 1389 476 1396 615 1279 660 c 0
 964 780 454 765 112 792 c 1
 158 901 218 1000 292 1089 c 1
 417 1068 1299 997 1423 905 c 1
 1556 803 1611 668 1618 444 c 1
 1618 443 1618 442 1618 440 c 0
 1618 359 1585 263 1519 152 c 0
 1463 59 508 -18 164 -57 c 1
 186 40 219 131 265 214 c 1
 421 253 1274 263 1392 321 c 1
EndSplineSet
LCarets2: 1 121 
EndChar

StartChar: lamed.wide
Encoding: 64293 64293 116
Width: 1686
GlyphClass: 2
Flags: W
HStem: 724 268<339.888 1165.87>
VStem: 1229 253<544.792 666.377>
AnchorPoint: "A-8" 1037 0 basechar 0
AnchorPoint: "A-63" 956.75 0 basechar 0
AnchorPoint: "A-62" 956.75 0 basechar 0
AnchorPoint: "A-61" 956.75 0 basechar 0
AnchorPoint: "A-59" 166.25 0 basechar 0
AnchorPoint: "A-21" -199.25 0 basechar 0
AnchorPoint: "A-20" -121.9 0 basechar 0
AnchorPoint: "A-7" 953 0 basechar 0
AnchorPoint: "A-6" 953 0 basechar 0
AnchorPoint: "A-5" 1041.75 0 basechar 0
AnchorPoint: "A-4" 1145 -48 basechar 0
AnchorPoint: "A-3" 953 0 basechar 0
LayerCount: 2
Fore
SplineSet
1308 320 m 0
 1308 317 1308 314 1308 312 c 0
 1308 258 1317 222 1338 183 c 1
 1287 76 1218 -14 1132 -87 c 1
 1111 -42 1072 54 1072 200 c 0
 1072 363 1229 457 1229 586 c 0
 1229 601 1227 617 1222 635 c 1
 1215 668 1142 693 1088 699 c 1
 969 721 846 724 723 724 c 0
 668 724 613 724 558 724 c 0
 472 724 387 725 305 734 c 1
 136 769 77 821 53 900 c 0
 37 952 21 1030 4 1134 c 1
 62 1241 133 1328 217 1397 c 1
 217 1340 216 1288 216 1245 c 0
 216 1206 217 1175 221 1155 c 1
 265 992 523 992 748 992 c 0
 859 992 968 999 1049 999 c 1
 1167 999 1280 964 1313 942 c 1
 1424 872 1482 818 1482 659 c 1
 1482 656 1482 654 1482 651 c 0
 1482 531 1308 454 1308 320 c 0
EndSplineSet
LCarets2: 1 113 
EndChar

StartChar: finalmem.wide
Encoding: 64294 64294 117
Width: 2019
GlyphClass: 2
Flags: W
HStem: -83 283<621.118 1247.91> 746 291<472 1132.64>
VStem: 1670 198<497.68 770> 1706 226<293 427.842>
AnchorPoint: "A-8" 1214 0 basechar 0
AnchorPoint: "A-63" 1089.3 0 basechar 0
AnchorPoint: "A-62" 1089.3 0 basechar 0
AnchorPoint: "A-61" 1089.3 0 basechar 0
AnchorPoint: "A-59" 341.3 0 basechar 0
AnchorPoint: "A-21" -24.2002 0 basechar 0
AnchorPoint: "A-20" 307.3 0 basechar 0
AnchorPoint: "A-7" 1159 0 basechar 0
AnchorPoint: "A-6" 1199 0 basechar 0
AnchorPoint: "A-5" 1209 0 basechar 0
AnchorPoint: "A-4" 1209 0 basechar 0
AnchorPoint: "A-3" 1159 0 basechar 0
LayerCount: 2
Fore
SplineSet
472 759 m 1xe0
 526 557 l 2
 559 434 586 341 605 280 c 0
 621 227 653 200 700 200 c 1
 924 200 1173 214 1429 256 c 1
 1604 299 1706 339 1706 367 c 0xd0
 1706 375 1705 383 1696 391 c 2
 1666 422 l 1
 1655 435 1648 450 1644 466 c 1
 1644 513 1670 584 1670 637 c 0
 1670 663 1663 684 1644 695 c 1
 1605 720 1589 721 1531 735 c 1
 1494 745 1329 746 1138 746 c 0
 1074 746 1007 746 941 746 c 0
 736 746 541 748 472 759 c 1xe0
107 829 m 1
 133 890 234 1038 282 1072 c 1
 289 1072 323 1067 385 1056 c 1
 503 1037 l 2
 602 1020 1495 1032 1683 962 c 1
 1830 911 1868 822 1868 718 c 0xe0
 1868 657 1855 591 1844 524 c 1
 1888 462 1914 419 1921 392 c 0
 1928 364 1932 338 1932 314 c 0
 1932 272 1921 237 1898 208 c 1
 1870 169 1827 136 1770 109 c 0
 1625 38 1413 -30 1311 -30 c 1
 1304 -43 757 -83 626 -83 c 0
 609 -83 599 -84 598 -83 c 1
 509 -73 450 -15 421 85 c 0
 365 280 309 518 253 799 c 1
 107 829 l 1
EndSplineSet
LCarets2: 1 132 
EndChar

StartChar: resh.wide
Encoding: 64295 64295 118
Width: 1818
GlyphClass: 2
Flags: W
HStem: 807 254<230.98 650.482>
VStem: 1491 191<124.127 233.859>
AnchorPoint: "A-8" 1592 0 basechar 0
AnchorPoint: "A-63" 1329.35 0 basechar 0
AnchorPoint: "A-62" 1244.35 0 basechar 0
AnchorPoint: "A-61" 1159.35 0 basechar 0
AnchorPoint: "A-59" 207.35 0 basechar 0
AnchorPoint: "A-21" -158.15 0 basechar 0
AnchorPoint: "A-20" 130.85 0 basechar 0
AnchorPoint: "A-7" 1389 0 basechar 0
AnchorPoint: "A-6" 1389 0 basechar 0
AnchorPoint: "A-5" 1539 0 basechar 0
AnchorPoint: "A-4" 1589 0 basechar 0
AnchorPoint: "A-3" 989 0 basechar 0
LayerCount: 2
Fore
SplineSet
59 807 m 1
 113 912 174 996 244 1061 c 1
 663 1061 983 1020 1271 966 c 1
 1300 956 1324 948 1341 939 c 2
 1400 909 l 2
 1423 898 1469 870 1505 834 c 1
 1600 735 1682 508 1682 153 c 1
 1640 50 1515 -52 1491 -69 c 1
 1491 75 1439 327 1372 477 c 1
 1311 622 1275 658 1197 694 c 1
 1191 696 1176 701 1136 710 c 1
 779 777 423 807 59 807 c 1
EndSplineSet
LCarets2: 1 118 
EndChar

StartChar: tav.wide
Encoding: 64296 64296 119
Width: 1993
GlyphClass: 2
Flags: W
VStem: 1762 184<119.812 239.689>
AnchorPoint: "A-8" 1197 0 basechar 0
AnchorPoint: "A-63" 990.67 0 basechar 0
AnchorPoint: "A-62" 990.67 0 basechar 0
AnchorPoint: "A-61" 990.67 0 basechar 0
AnchorPoint: "A-59" 132.175 0 basechar 0
AnchorPoint: "A-21" -212.075 0 basechar 0
AnchorPoint: "A-20" 166.175 0 basechar 0
AnchorPoint: "A-7" 990.67 0 basechar 0
AnchorPoint: "A-6" 1189 0 basechar 0
AnchorPoint: "A-5" 1189 0 basechar 0
AnchorPoint: "A-4" 1139 0 basechar 0
AnchorPoint: "A-3" 1139 0 basechar 0
LayerCount: 2
Fore
SplineSet
165 825 m 1
 186 890 267 1037 349 1083 c 1
 553 1083 1572 976 1741 822 c 0
 1783 783 1815 736 1837 680 c 0
 1893 543 1946 363 1946 143 c 1
 1909 72 1847 4 1762 -60 c 1
 1690 546 1669 749 622 749 c 1
 666 561 682 467 682 408 c 0
 682 349 666 325 646 276 c 0
 583 122 563 105 437 46 c 0
 360 10 282 -19 202 -42 c 1
 196 -6 193 29 193 64 c 0
 193 124 202 183 219 240 c 1
 221 242 294 268 305 273 c 2
 346 290 l 2
 359 296 427 325 468 363 c 1
 440 514 408 657 373 793 c 1
 284 809 215 825 165 825 c 1
EndSplineSet
LCarets2: 1 143 
EndChar

StartChar: hebrewplussign
Encoding: 64297 64297 120
Width: 1250
GlyphClass: 2
Flags: W
HStem: 478 222<178.041 490 700 969.94>
LayerCount: 2
Fore
SplineSet
128 478 m 1
 135 515 140 542 144 559 c 0
 148 575 155 598 166 625 c 0
 176 653 188 678 201 700 c 1
 490 700 l 1
 439 992 l 1
 490 1003 543 1008 598 1008 c 0
 613 1008 629 1008 645 1007 c 1
 700 700 l 1
 1038 700 l 1
 1018 601 993 527 963 478 c 1
 128 478 l 1
EndSplineSet
Validated: 1
EndChar

StartChar: aleflamed
Encoding: 64335 64335 153
Width: 1169
GlyphClass: 3
Flags: W
VStem: 785 219<639.857 896.135>
AnchorPoint: "A-63" 880 0 basechar 0
AnchorPoint: "A-62" 1040 0 basechar 0
AnchorPoint: "A-61" 1100 0 basechar 0
AnchorPoint: "A-20" 160 0 basechar 0
AnchorPoint: "A-7" 642 0 basechar 0
AnchorPoint: "A-6" 700 0 basechar 0
AnchorPoint: "A-5" 690 0 basechar 0
AnchorPoint: "A-4" 640 0 basechar 0
LayerCount: 2
Fore
SplineSet
884 526 m 1
 983 423 1044 337 1108 186 c 1
 1067 96 1010 20 939 -43 c 1
 877 164 774 316 630 413 c 1
 494 502 316 550 94 556 c 1
 15 734 -46 920 -90 1116 c 1
 -36 1227 35 1323 123 1406 c 1
 172 1148 229 934 294 765 c 1
 480 744 637 695 765 618 c 1
 778 645 785 669 785 691 c 0
 785 741 751 783 678 838 c 1
 706 895 769 979 867 1091 c 1
 968 998 1004 903 1004 815 c 0
 1004 699 942 596 884 526 c 1
EndSplineSet
Validated: 1
Ligature2: "'ccmp' Alef Lamed Ligature subtable" alef cgj lamed
Ligature2: "'ccmp' Alef Lamed Ligature subtable" alef .null lamed
LCarets2: 2 0 0 
Ligature2: "'ccmp' Alef Lamed Ligature subtable" alef zerojoin lamed
EndChar

StartChar: hatafsegol_meteg
Encoding: 65542 -1 159
Width: 0
GlyphClass: 4
Flags: W
HStem: -583 469
AnchorPoint: "A-7" 0 0 mark 0
LayerCount: 2
Fore
SplineSet
313 -528 m 1
 286 -533 262 -535 234 -535 c 0
 204 -535 180 -533 151 -528 c 1
 81 -131 l 1
 108 -126 132 -124 162 -124 c 0
 190 -124 214 -126 243 -131 c 1
 313 -528 l 1
-465 -223 m 1
 -447 -175 -417 -143 -376 -114 c 1
 -325 -143 -285 -175 -251 -223 c 1
 -269 -269 -297 -303 -338 -330 c 1
 -389 -303 -431 -269 -465 -223 c 1
-179 -223 m 1
 -161 -175 -133 -143 -92 -114 c 1
 -41 -143 -1 -175 35 -223 c 1
 15 -269 -13 -303 -54 -330 c 1
 -105 -303 -145 -269 -179 -223 c 1
-278 -475 m 1
 -259 -428 -230 -395 -189 -366 c 1
 -138 -395 -99 -428 -62 -475 c 1
 -82 -522 -110 -556 -151 -583 c 1
 -202 -556 -242 -522 -278 -475 c 1
329 -223 m 1
 347 -175 375 -143 416 -114 c 1
 467 -143 509 -175 543 -223 c 1
 525 -269 495 -303 454 -330 c 1
 403 -303 363 -269 329 -223 c 1
374 -475 m 1
 391 -428 420 -395 461 -366 c 1
 512 -395 553 -428 588 -475 c 1
 570 -522 540 -556 499 -583 c 1
 448 -556 408 -522 374 -475 c 1
EndSplineSet
Validated: 1
Ligature2: "'ccmp' Hataf CGJ Meteg substitutions subtable" hatafsegol cgj meteg
Ligature2: "'ccmp' Hataf CGJ Meteg substitutions subtable" hatafsegol .null meteg
Ligature2: "'ccmp' Hataf CGJ Meteg substitutions subtable" hatafsegol zerojoin meteg
LCarets2: 2 0 0 
EndChar

StartChar: hatafpatah_meteg
Encoding: 65543 -1 160
Width: 0
GlyphClass: 4
Flags: W
HStem: -320 162<-437.624 15.1453>
VStem: -451 480<-317.799 -159.92>
AnchorPoint: "A-7" 0.525391 0 mark 0
LayerCount: 2
Fore
SplineSet
0 -320 m 1
 -448 -320 l 1
 -450 -307 -451 -294 -451 -282 c 0
 -451 -238 -438 -199 -422 -158 c 1
 28 -158 l 1
 28 -165 29 -172 29 -179 c 0
 29 -229 19 -273 0 -320 c 1
313 -528 m 1
 286 -533 262 -535 234 -535 c 0
 204 -535 180 -533 151 -528 c 1
 81 -131 l 1
 108 -126 132 -124 162 -124 c 0
 190 -124 214 -126 243 -131 c 1
 313 -528 l 1
329 -223 m 1
 347 -175 375 -143 416 -114 c 1
 467 -143 509 -175 543 -223 c 1
 525 -269 495 -303 454 -330 c 1
 403 -303 363 -269 329 -223 c 1
374 -475 m 1
 391 -428 420 -395 461 -366 c 1
 512 -395 553 -428 588 -475 c 1
 570 -522 540 -556 499 -583 c 1
 448 -556 408 -522 374 -475 c 1
EndSplineSet
Validated: 1
Ligature2: "'ccmp' Hataf CGJ Meteg substitutions subtable" hatafpatah cgj meteg
Ligature2: "'ccmp' Hataf CGJ Meteg substitutions subtable" hatafpatah .null meteg
Ligature2: "'ccmp' Hataf CGJ Meteg substitutions subtable" hatafpatah zerojoin meteg
LCarets2: 2 1 0 
EndChar

StartChar: hatafqamats_meteg
Encoding: 65544 -1 161
Width: 0
GlyphClass: 4
Flags: W
HStem: -316 162<-438.099 -259 -97 2.11505>
VStem: -449 463<-313.893 -156.015>
AnchorPoint: "A-7" 0.299805 0 mark 0
LayerCount: 2
Fore
SplineSet
-449 -316 m 1
 -450 -306 -449 -296 -449 -287 c 0
 -449 -239 -441 -197 -423 -154 c 1
 13 -154 l 1
 14 -163 14 -172 14 -181 c 0
 14 -229 5 -271 -12 -316 c 9
 -97 -316 l 1
 -64 -505 l 1
 -91 -509 -115 -511 -144 -511 c 0
 -173 -511 -197 -509 -226 -505 c 1
 -259 -316 l 1
 -449 -316 l 1
313 -528 m 1
 286 -533 262 -535 234 -535 c 0
 204 -535 180 -533 151 -528 c 1
 81 -131 l 1
 108 -126 132 -124 162 -124 c 0
 190 -124 214 -126 243 -131 c 1
 313 -528 l 1
329 -223 m 1
 347 -175 375 -143 416 -114 c 1
 467 -143 509 -175 543 -223 c 1
 525 -269 495 -303 454 -330 c 1
 403 -303 363 -269 329 -223 c 1
374 -475 m 1
 391 -428 420 -395 461 -366 c 1
 512 -395 553 -428 588 -475 c 1
 570 -522 540 -556 499 -583 c 1
 448 -556 408 -522 374 -475 c 1
EndSplineSet
Validated: 1
Ligature2: "'ccmp' Hataf CGJ Meteg substitutions subtable" hatafqamats cgj meteg
Ligature2: "'ccmp' Hataf CGJ Meteg substitutions subtable" hatafqamats .null meteg
Ligature2: "'ccmp' Hataf CGJ Meteg substitutions subtable" hatafqamats zerojoin meteg
LCarets2: 2 0 0 
EndChar

StartChar: hatafsegol_leftmeteg
Encoding: 65545 -1 162
Width: 0
Flags: W
HStem: -584 469
AnchorPoint: "A-7" 0 0 mark 0
LayerCount: 2
Fore
SplineSet
-243 -563 m 1
 -270 -568 -293 -570 -322 -570 c 0
 -351 -570 -376 -568 -405 -563 c 1
 -475 -166 l 1
 -448 -161 -424 -159 -395 -159 c 0
 -366 -159 -342 -161 -313 -166 c 1
 -243 -563 l 1
-226 -218 m 1
 -207 -170 -191 -144 -150 -115 c 1
 -99 -144 -59 -176 -24 -224 c 1
 -42 -270 -70 -304 -112 -331 c 1
 -162 -304 -190 -264 -226 -218 c 1
47 -224 m 1
 66 -176 94 -144 135 -115 c 1
 186 -144 226 -176 262 -224 c 1
 243 -270 215 -304 173 -331 c 1
 123 -304 83 -270 47 -224 c 1
-51 -476 m 1
 -32 -429 -4 -396 37 -367 c 1
 88 -396 129 -429 164 -476 c 1
 145 -523 116 -557 75 -584 c 1
 24 -557 -16 -523 -51 -476 c 1
329 -223 m 1
 347 -175 375 -143 416 -114 c 1
 467 -143 509 -175 543 -223 c 1
 525 -269 495 -303 454 -330 c 1
 403 -303 363 -269 329 -223 c 1
374 -475 m 1
 391 -428 420 -395 461 -366 c 1
 512 -395 553 -428 588 -475 c 1
 570 -522 540 -557 499 -584 c 1
 448 -557 408 -522 374 -475 c 1
EndSplineSet
Validated: 1
Ligature2: "'ccmp' Hataf Meteg substitutions subtable" hatafsegol meteg
LCarets2: 1 0 
EndChar

StartChar: hatafpatah_leftmeteg
Encoding: 65546 -1 163
Width: 0
GlyphClass: 4
Flags: W
HStem: -318 161<-211.372 243.624>
VStem: -223 480<-316.08 -159.061>
AnchorPoint: "A-7" 0.525391 0 mark 0
LayerCount: 2
Fore
SplineSet
228 -318 m 1
 -223 -318 l 1
 -224 -309 -223 -300 -223 -291 c 0
 -223 -243 -214 -201 -196 -157 c 1
 254 -157 l 1
 256 -170 257 -183 257 -195 c 0
 257 -238 244 -277 228 -318 c 1
-245 -552 m 1
 -272 -557 -295 -559 -324 -559 c 0
 -353 -559 -378 -557 -407 -552 c 1
 -477 -155 l 1
 -450 -150 -426 -148 -397 -148 c 0
 -368 -148 -344 -150 -315 -155 c 1
 -245 -552 l 1
329 -223 m 1
 347 -175 375 -143 416 -114 c 1
 467 -143 509 -175 543 -223 c 1
 525 -269 495 -303 454 -330 c 1
 403 -303 363 -269 329 -223 c 1
374 -475 m 1
 391 -428 420 -395 461 -366 c 1
 512 -395 553 -428 588 -475 c 1
 570 -522 540 -556 499 -583 c 1
 448 -556 408 -522 374 -475 c 1
EndSplineSet
Validated: 1
Ligature2: "'ccmp' Hataf Meteg substitutions subtable" hatafpatah meteg
LCarets2: 1 0 
EndChar

StartChar: hatafqamats_leftmeteg
Encoding: 65547 -1 164
Width: 0
GlyphClass: 4
Flags: W
HStem: -318 162<-193.372 -15 147 246.812>
VStem: -205 464<-315.846 -158.061>
AnchorPoint: "A-7" 0.299805 0 mark 0
LayerCount: 2
Fore
SplineSet
-205 -318 m 1
 -206 -309 -205 -300 -205 -291 c 0
 -205 -242 -196 -200 -178 -156 c 1
 258 -156 l 1
 258 -164 259 -172 259 -180 c 0
 259 -229 250 -272 232 -318 c 9
 147 -318 l 1
 180 -507 l 1
 153 -511 129 -513 100 -513 c 0
 71 -513 47 -511 18 -507 c 1
 -15 -318 l 1
 -205 -318 l 1
-244 -560 m 1
 -271 -565 -295 -567 -324 -567 c 0
 -353 -567 -377 -565 -406 -560 c 1
 -476 -163 l 1
 -449 -158 -425 -156 -396 -156 c 0
 -367 -156 -343 -158 -314 -163 c 1
 -244 -560 l 1
329 -223 m 1
 347 -175 375 -143 416 -114 c 1
 467 -143 509 -175 543 -223 c 1
 525 -269 495 -303 454 -330 c 1
 403 -303 363 -269 329 -223 c 1
374 -475 m 1
 391 -428 420 -395 461 -366 c 1
 512 -395 553 -428 588 -475 c 1
 570 -522 540 -556 499 -583 c 1
 448 -556 408 -522 374 -475 c 1
EndSplineSet
Validated: 1
Ligature2: "'ccmp' Hataf Meteg substitutions subtable" hatafqamats meteg
LCarets2: 1 0 
EndChar

StartChar: exclam
Encoding: 33 33 165
Width: 622
Flags: W
VStem: 34 488
LayerCount: 2
Fore
SplineSet
288 358 m 1
 376 321 454 266 522 195 c 1
 485 107 437 32 379 -29 c 1
 289 4 209 57 138 130 c 1
 180 231 230 307 288 358 c 1
34 1075 m 1
 65 1120 102 1163 145 1204 c 0
 188 1246 230 1278 271 1300 c 1
 288 1178 288 1178 313 1013 c 0
 330 903 341 821 348 765 c 0
 354 717 357 676 357 642 c 0
 357 637 357 632 357 628 c 1
 344 600 326 569 302 537 c 0
 278 504 256 480 236 464 c 1
 147 571 80 775 34 1075 c 1
EndSplineSet
Validated: 1
EndChar

StartChar: quotedbl
Encoding: 34 34 166
Width: 839
Flags: W
VStem: 60 187<653.561 863.344> 483 187<653.609 872.625>
LayerCount: 2
Fore
SplineSet
577 1359 m 1
 639 1207 670 1046 670 877 c 0
 670 803 664 727 652 650 c 1
 606 600 550 564 483 541 c 1
 472 786 423 983 338 1133 c 1
 387 1225 466 1300 577 1359 c 1
154 1359 m 1
 216 1205 247 1043 247 873 c 0
 247 800 241 726 230 650 c 1
 184 600 127 564 60 541 c 1
 48 786 0 983 -85 1133 c 1
 -36 1225 43 1300 154 1359 c 1
EndSplineSet
Validated: 1
EndChar

StartChar: numbersign
Encoding: 35 35 167
Width: 1162
Flags: W
HStem: 305 202<55.4768 212 429 627 844 1002.52> 732 202<82.676 253 472 668 888 1030.31>
VStem: 236 193<509.383 732>
LayerCount: 2
Fore
SplineSet
834 305 m 1
 832 278 830 222 828 140 c 0
 824 40 822 -21 821 -43 c 1
 778 -49 736 -52 694 -52 c 0
 651 -52 609 -49 567 -43 c 1
 592 78 611 195 627 305 c 1
 420 305 l 1
 418 277 415 219 413 140 c 0
 410 40 407 -21 406 -43 c 1
 364 -49 321 -52 278 -52 c 0
 236 -52 193 -49 150 -43 c 1
 175 77 196 196 212 305 c 1
 26 305 l 1
 29 386 40 453 60 507 c 1
 236 507 l 1
 238 525 240 547 241 565 c 0
 246 618 249 671 253 732 c 1
 53 732 l 1
 56 813 68 880 87 934 c 1
 264 934 l 1
 267 1033 271 1146 273 1261 c 1
 311 1268 352 1272 394 1272 c 0
 438 1272 483 1268 531 1261 c 1
 518 1196 507 1132 497 1072 c 0
 472 934 l 1
 678 934 l 1
 682 1032 686 1147 688 1261 c 1
 726 1268 766 1272 809 1272 c 0
 852 1272 898 1268 945 1261 c 1
 933 1196 922 1132 911 1072 c 0
 888 934 l 1
 1060 934 l 1
 1056 856 1045 789 1026 732 c 1
 862 732 l 1
 858 682 855 642 852 620 c 0
 850 599 848 559 844 508 c 1
 1033 507 l 1
 1029 430 1018 362 998 305 c 1
 834 305 l 1
652 507 m 1
 653 525 656 547 657 565 c 0
 661 615 665 675 668 732 c 1
 449 732 l 1
 444 681 440 642 437 620 c 0
 434 599 431 558 429 507 c 1
 652 507 l 1
EndSplineSet
Validated: 1
EndChar

StartChar: dollar
Encoding: 36 36 168
Width: 1064
Flags: W
HStem: -41 277<285.208 497.042> 1000 231<497 694.952>
VStem: 778 150<338.971 465.296>
LayerCount: 2
Fore
SplineSet
452 1229 m 1
 471 1230 489 1231 507 1231 c 0
 593 1231 672 1215 746 1184 c 1
 746 1180 746 1175 746 1171 c 0
 746 1098 730 1027 698 959 c 1
 633 981 566 994 497 1000 c 1
 536 788 l 1
 668 760 761 726 814 688 c 0
 852 660 880 626 899 584 c 0
 919 542 928 499 928 457 c 0
 928 415 923 373 911 329 c 1
 877 213 799 124 676 61 c 1
 691 -19 l 1
 662 -67 623 -105 575 -133 c 1
 548 9 l 1
 456 -20 337 -36 191 -41 c 1
 209 59 243 151 292 236 c 1
 368 238 437 245 500 256 c 1
 440 561 l 1
 320 594 231 632 174 674 c 0
 121 714 85 760 68 813 c 0
 57 848 51 881 51 912 c 0
 51 928 53 944 56 959 c 0
 79 1081 164 1162 312 1203 c 1
 316 1205 l 1
 307 1249 l 1
 331 1299 369 1344 422 1382 c 1
 452 1229 l 1
633 288 m 1
 709 315 756 347 773 386 c 0
 776 393 778 399 778 406 c 0
 778 429 758 452 720 474 c 0
 692 492 651 504 587 524 c 1
 633 288 l 1
355 1000 m 1
 300 997 256 988 225 973 c 0
 199 959 187 944 188 926 c 0
 189 908 204 892 232 877 c 0
 263 860 315 841 389 821 c 1
 355 1000 l 1
EndSplineSet
Validated: 1
EndChar

StartChar: percent
Encoding: 37 37 169
Width: 1414
Flags: W
HStem: -23 21G<406 449.5>
VStem: 45 131<882.163 1009.91> 385 150<684.283 870.136> 832 131<391.639 520.906> 1171 151<192.297 383.988>
LayerCount: 2
Fore
SplineSet
797 1215 m 1
 819 1217 841 1218 863 1218 c 0
 928 1218 991 1210 1053 1195 c 1
 988 1068 988 1068 934 957 c 0
 879 845 879 845 847 777 c 0
 825 732 797 669 763 588 c 0
 712 466 712 466 695 425 c 0
 678 384 678 384 608 213 c 0
 539 43 539 43 515 -19 c 1
 489 -22 462 -23 437 -23 c 0
 375 -23 316 -15 258 0 c 1
 338 155 411 301 474 439 c 0
 538 578 588 691 624 779 c 0
 678 911 678 911 797 1215 c 1
964 521 m 0
 963 519 963 516 963 513 c 0
 963 486 990 421 1043 317 c 0
 1085 237 1116 193 1135 188 c 0
 1142 187 1148 189 1153 195 c 0
 1158 202 1162 210 1166 220 c 0
 1169 232 1171 244 1171 256 c 0
 1171 267 1170 277 1167 288 c 0
 1164 305 1155 328 1142 357 c 0
 1128 385 1113 410 1097 430 c 0
 1062 476 1023 505 980 519 c 0
 969 522 964 523 964 521 c 0
959 732 m 0
 961 732 963 732 966 732 c 0
 989 732 1024 723 1070 703 c 0
 1121 682 1163 656 1195 626 c 0
 1260 568 1300 485 1318 377 c 0
 1321 359 1322 341 1322 323 c 0
 1322 263 1307 204 1275 145 c 0
 1249 97 1213 57 1171 24 c 0
 1130 -9 1092 -27 1053 -31 c 0
 1033 -32 1016 -27 1003 -15 c 0
 990 -4 976 15 961 41 c 0
 939 77 916 129 893 195 c 0
 852 310 832 407 832 487 c 0
 832 499 831 511 832 522 c 0
 835 569 850 615 875 660 c 0
 899 706 927 730 959 732 c 0
177 1010 m 0
 176 1008 176 1006 176 1003 c 0
 176 977 203 911 256 807 c 0
 298 726 329 683 348 678 c 0
 355 676 361 679 366 684 c 0
 371 690 375 699 379 710 c 0
 383 722 385 734 385 746 c 0
 385 756 383 767 381 778 c 0
 377 794 369 817 355 846 c 0
 341 875 327 899 311 920 c 0
 275 965 236 995 193 1009 c 0
 183 1011 177 1011 177 1010 c 0
172 1222 m 0
 174 1222 176 1222 178 1222 c 0
 201 1222 236 1212 283 1192 c 0
 335 1170 376 1145 408 1116 c 0
 473 1058 514 975 531 865 c 0
 534 847 535 830 535 812 c 0
 535 753 520 694 488 635 c 0
 462 587 426 546 385 513 c 0
 343 479 305 461 266 459 c 0
 246 458 229 463 216 474 c 0
 203 486 189 504 174 529 c 0
 152 567 130 618 106 684 c 0
 65 798 45 895 45 975 c 0
 45 987 44 999 45 1010 c 0
 48 1057 63 1103 88 1149 c 0
 112 1196 141 1220 172 1222 c 0
EndSplineSet
Validated: 1
EndChar

StartChar: ampersand
Encoding: 38 38 170
Width: 1264
Flags: W
HStem: -20 138<409.118 655.281> 0 82<1094 1236> 572 78<857 937.64 1135.46 1213> 1070 97<420.17 619.088>
VStem: 90 215<224.348 474.244> 172 209<803.401 1027.72> 662 198<756.779 1022.95>
LayerCount: 2
Fore
SplineSet
541 676 m 1x36
 622 737 662 808 662 889 c 0
 662 945 649 989 623 1021 c 0
 597 1054 562 1070 519 1070 c 0
 479 1070 446 1057 420 1030 c 0
 394 1003 381 969 381 927 c 0
 381 888 394 849 420 811 c 0
 446 772 486 727 541 676 c 1x36
606 616 m 1
 874 335 l 1
 920 395 952 459 968 527 c 1
 947 556 l 1
 857 572 l 1
 857 650 l 1
 1213 650 l 1
 1213 572 l 1
 1094 550 l 1
 1056 438 1005 343 939 265 c 1
 1094 94 l 1
 1236 82 l 1
 1236 0 l 1
 877 0 l 1x76
 877 41 l 1
 806 123 l 1
 696 27 577 -20 449 -20 c 0
 344 -20 258 11 191 75 c 0
 124 139 90 219 90 316 c 0xba
 90 460 170 558 328 609 c 1
 224 692 172 782 172 879 c 0
 172 963 205 1032 271 1086 c 0
 337 1140 424 1167 531 1167 c 0
 631 1167 711 1143 771 1093 c 0
 830 1044 860 981 860 905 c 0
 860 768 775 672 606 616 c 1
398 553 m 1
 336 505 305 449 305 384 c 0
 305 304 329 240 375 191 c 0
 422 142 482 118 556 118 c 0xba
 622 118 683 142 739 191 c 1
 398 553 l 1
EndSplineSet
Validated: 1
EndChar

StartChar: quotesingle
Encoding: 39 39 171
Width: 418
Flags: W
VStem: 60 187<653.561 863.344>
LayerCount: 2
Fore
SplineSet
154 1359 m 1
 216 1205 247 1043 247 873 c 0
 247 800 241 726 230 650 c 1
 184 600 127 564 60 541 c 1
 48 786 0 983 -85 1133 c 1
 -36 1225 43 1300 154 1359 c 1
EndSplineSet
Validated: 1
EndChar

StartChar: parenleft
Encoding: 40 40 172
Width: 720
Flags: W
HStem: 1233 20G<248 334.5>
VStem: 85 241<460.484 909.247>
LayerCount: 2
Fore
SplineSet
288 1253 m 1
 381 1246 463 1224 534 1186 c 1
 527 1176 527 1176 490 1120 c 0
 465 1082 448 1056 439 1040 c 0
 430 1025 415 999 396 963 c 0
 377 926 363 895 355 870 c 0
 347 844 340 813 334 776 c 0
 328 745 326 714 326 684 c 0
 326 678 326 673 326 667 c 0
 328 604 342 538 367 470 c 0
 392 402 423 341 460 286 c 0
 497 231 532 183 566 143 c 0
 599 104 631 70 660 43 c 1
 610 -59 543 -143 457 -212 c 1
 347 -110 261 -3 201 110 c 0
 140 223 103 351 90 493 c 0
 87 534 85 574 85 613 c 0
 85 715 97 810 119 898 c 0
 151 1018 208 1137 288 1253 c 1
EndSplineSet
Validated: 1
EndChar

StartChar: parenright
Encoding: 41 41 173
Width: 694
Flags: W
VStem: 283 233<130.274 560.604>
LayerCount: 2
Fore
SplineSet
326 -189 m 1
 233 -188 149 -171 75 -138 c 1
 109 -94 137 -56 157 -24 c 0
 177 8 200 48 224 96 c 0
 249 145 266 194 275 244 c 0
 281 275 283 306 283 338 c 0
 283 358 282 379 280 399 c 0
 273 462 255 526 225 591 c 0
 196 657 160 716 119 769 c 0
 79 822 40 867 4 905 c 0
 -32 942 -65 973 -97 998 c 1
 -54 1103 8 1192 89 1266 c 1
 206 1173 299 1072 367 963 c 0
 435 855 480 730 502 589 c 0
 512 529 516 470 516 413 c 0
 516 333 507 256 489 183 c 0
 458 58 403 -67 326 -189 c 1
EndSplineSet
Validated: 1
EndChar

StartChar: asterisk
Encoding: 42 42 174
Width: 977
Flags: W
LayerCount: 2
Fore
SplineSet
751 858 m 1
 782 833 808 798 831 752 c 0
 854 706 867 657 870 606 c 1
 591 572 l 1
 831 364 l 1
 816 332 792 302 758 276 c 0
 724 249 687 229 647 217 c 1
 481 454 l 1
 403 213 l 1
 358 228 314 249 271 276 c 0
 227 302 192 332 167 364 c 1
 336 572 l 1
 43 606 l 1
 34 640 30 674 30 706 c 0
 30 722 31 738 33 753 c 0
 40 799 53 835 73 858 c 1
 343 748 l 1
 251 1021 l 1
 285 1040 328 1050 379 1050 c 0
 381 1050 384 1050 386 1050 c 0
 434 1050 479 1040 519 1021 c 1
 521 751 l 1
 751 858 l 1
EndSplineSet
Validated: 1
EndChar

StartChar: plus
Encoding: 43 43 175
Width: 1250
Flags: W
HStem: 478 222<178.041 459 708 969.94>
LayerCount: 2
Fore
SplineSet
759 188 m 1
 710 175 659 169 606 169 c 0
 588 169 569 169 551 171 c 1
 497 478 l 1
 128 478 l 1
 135 515 140 542 144 559 c 0
 148 575 155 598 166 625 c 0
 176 653 188 678 201 700 c 1
 459 700 l 1
 406 992 l 1
 457 1003 511 1008 566 1008 c 0
 582 1008 598 1008 614 1007 c 1
 669 700 l 1
 1038 700 l 1
 1018 601 993 527 963 478 c 1
 708 478 l 1
 759 188 l 1
EndSplineSet
Validated: 1
EndChar

StartChar: comma
Encoding: 44 44 176
Width: 510
Flags: W
VStem: 224 193<-347.611 15.8669>
LayerCount: 2
Fore
SplineSet
360 360 m 1
 398 239 417 114 417 -15 c 0
 417 -125 403 -238 375 -353 c 1
 327 -398 277 -426 224 -439 c 1
 224 -430 224 -421 224 -412 c 0
 224 -394 224 -376 224 -358 c 0
 224 -149 192 25 128 164 c 1
 160 212 194 251 230 282 c 0
 265 312 309 338 360 360 c 1
EndSplineSet
Validated: 1
EndChar

StartChar: hyphen
Encoding: 45 45 177
Width: 829
Flags: W
HStem: 424 272<195.05 550.11>
VStem: 85 668
LayerCount: 2
Fore
SplineSet
85 424 m 1
 112 532 151 622 205 696 c 1
 366 696 549 662 753 594 c 1
 730 513 694 438 645 369 c 1
 542 391 448 407 364 415 c 0
 301 421 234 424 161 424 c 0
 144 424 128 424 111 424 c 0
 102 424 94 424 85 424 c 1
EndSplineSet
Validated: 1
EndChar

StartChar: period
Encoding: 46 46 178
Width: 578
Flags: W
HStem: -31 388
VStem: 119 384
LayerCount: 2
Fore
SplineSet
270 357 m 1
 357 319 435 265 503 193 c 1
 466 106 418 32 360 -31 c 1
 270 3 190 56 119 128 c 1
 162 229 212 305 270 357 c 1
EndSplineSet
Validated: 1
EndChar

StartChar: slash
Encoding: 47 47 179
Width: 773
Flags: W
VStem: 34 594
LayerCount: 2
Fore
SplineSet
377 1311 m 1
 421 1319 465 1323 510 1323 c 0
 549 1323 589 1320 628 1314 c 1
 587 1179 587 1179 551 1054 c 0
 515 928 515 928 492 841 c 0
 477 783 459 710 439 622 c 0
 410 490 410 490 395 425 c 0
 381 360 381 360 345 189 c 0
 309 17 309 17 292 -65 c 1
 251 -72 209 -76 168 -76 c 0
 123 -76 79 -71 34 -63 c 1
 110 176 172 393 219 587 c 0
 267 782 319 1023 377 1311 c 1
EndSplineSet
Validated: 1
EndChar

StartChar: zero
Encoding: 48 48 180
Width: 1006
Flags: W
VStem: 70 204<688.782 984.478> 676 213<338.448 656.687>
LayerCount: 2
Fore
SplineSet
287 985 m 0
 278 974 274 954 274 925 c 0
 274 852 303 722 364 536 c 0
 420 356 474 259 524 244 c 0
 529 243 534 242 539 242 c 0
 565 242 594 263 625 305 c 0
 658 350 675 398 676 451 c 0
 676 487 667 537 649 601 c 0
 632 664 609 720 580 766 c 0
 518 871 433 942 328 978 c 0
 303 986 289 988 287 985 c 0
283 1241 m 1
 285 1241 287 1241 289 1241 c 0
 329 1241 388 1224 468 1190 c 0
 553 1155 622 1112 676 1063 c 0
 784 967 853 828 882 647 c 0
 887 617 889 587 889 558 c 0
 889 458 862 360 809 261 c 0
 766 181 709 114 640 59 c 0
 571 4 503 -26 439 -31 c 0
 436 -31 432 -31 429 -31 c 0
 399 -31 375 -23 356 -6 c 0
 335 13 312 44 287 87 c 1
 249 148 211 234 172 345 c 0
 104 534 70 696 70 829 c 0
 70 849 68 868 70 887 c 0
 73 936 86 987 105 1039 c 0
 124 1090 149 1136 181 1176 c 0
 213 1216 247 1237 283 1241 c 1
EndSplineSet
Validated: 1
EndChar

StartChar: one
Encoding: 49 49 181
Width: 832
Flags: W
HStem: 1227 20G<398 410.5>
VStem: 546 184<164.721 293.192>
LayerCount: 2
Fore
SplineSet
325 867 m 0
 324 867 324 867 323 867 c 0
 304 867 284 852 254 835 c 0
 224 816 183 790 132 757 c 0
 82 723 40 697 9 678 c 1
 9 688 8 698 8 708 c 0
 8 843 41 955 104 1044 c 1
 164 1092 164 1092 188 1112 c 0
 204 1125 215 1134 222 1138 c 0
 232 1145 232 1145 265 1167 c 0
 299 1190 299 1190 346 1224 c 0
 368 1239 388 1247 408 1247 c 0
 413 1247 418 1246 423 1245 c 0
 447 1240 466 1222 480 1191 c 0
 561 1014 626 822 674 616 c 0
 699 508 718 369 730 198 c 1
 700 108 638 28 546 -41 c 1
 532 154 499 345 445 532 c 0
 409 661 383 749 366 797 c 0
 350 844 343 866 325 867 c 0
EndSplineSet
Validated: 1
EndChar

StartChar: two
Encoding: 50 50 182
Width: 896
Flags: W
HStem: 1233 20G<117 274.5>
VStem: 177 659<172 392>
LayerCount: 2
Fore
SplineSet
162 1253 m 1
 387 1234 534 1165 601 1044 c 0
 626 999 639 952 639 902 c 0
 639 839 619 773 580 701 c 0
 576 691 563 668 541 632 c 0
 519 596 503 568 493 546 c 0
 459 474 442 405 442 337 c 0
 442 324 443 310 444 297 c 1
 573 347 701 415 826 502 c 1
 833 471 836 435 836 392 c 0
 836 378 836 364 835 348 c 0
 833 287 825 240 812 207 c 1
 636 115 440 32 224 -43 c 1
 201 11 187 60 181 106 c 0
 178 126 177 148 177 172 c 0
 177 203 179 236 183 273 c 1
 189 328 204 380 225 430 c 0
 247 480 276 537 314 601 c 0
 338 641 356 680 368 718 c 0
 376 743 380 769 380 794 c 0
 380 807 379 820 377 833 c 0
 371 872 354 903 326 927 c 0
 310 940 292 951 273 960 c 0
 254 969 230 975 201 980 c 0
 172 986 149 989 132 992 c 0
 116 994 87 996 45 998 c 0
 4 1001 -24 1002 -39 1004 c 1
 5 1106 72 1189 162 1253 c 1
EndSplineSet
Validated: 1
EndChar

StartChar: three
Encoding: 51 51 183
Width: 940
Flags: W
HStem: 989 255<75.3617 299.875>
VStem: 605 236<343.425 495.04>
LayerCount: 2
Fore
SplineSet
121 1244 m 1
 301 1244 425 1224 493 1183 c 0
 544 1152 574 1106 582 1044 c 0
 583 1036 583 1028 583 1019 c 0
 583 999 581 977 576 953 c 0
 569 920 560 891 550 869 c 0
 534 835 534 835 509 780 c 1
 573 763 627 744 668 724 c 0
 710 703 744 676 771 642 c 0
 807 600 829 552 837 500 c 0
 839 486 841 472 841 457 c 0
 841 417 832 374 814 329 c 1
 799 298 781 268 758 240 c 0
 735 212 708 187 676 164 c 0
 644 141 613 121 582 102 c 0
 551 84 513 66 468 48 c 0
 399 20 399 20 351 3 c 0
 318 -9 276 -24 224 -41 c 1
 230 61 255 161 299 258 c 1
 313 263 345 272 393 285 c 0
 442 298 483 310 517 323 c 0
 551 335 574 349 585 365 c 1
 598 379 605 396 605 413 c 0
 605 424 602 435 598 446 c 0
 586 478 558 503 514 522 c 0
 420 562 315 590 198 606 c 1
 275 695 325 775 342 847 c 0
 343 854 342 862 342 869 c 0
 342 891 335 911 321 928 c 0
 302 952 273 968 236 976 c 0
 190 985 138 989 81 989 c 0
 41 989 -1 987 -46 983 c 1
 -5 1100 51 1187 121 1244 c 1
EndSplineSet
Validated: 1
EndChar

StartChar: four
Encoding: 52 52 184
Width: 1082
Flags: W
HStem: 249 251<277 535.271>
VStem: 97 227<515.476 694.276>
LayerCount: 2
Fore
SplineSet
473 910 m 1
 444 888 414 844 381 778 c 0
 349 712 331 656 326 609 c 0
 325 596 324 585 324 575 c 0
 324 545 329 525 339 515 c 0
 349 505 367 500 393 500 c 0
 402 500 412 501 423 502 c 0
 451 505 502 521 579 548 c 1
 568 591 568 591 553 653 c 0
 538 715 538 715 529 750 c 0
 523 773 515 800 505 829 c 0
 495 859 484 886 473 910 c 1
579 1271 m 1
 629 1166 669 1066 699 971 c 0
 729 877 759 762 790 626 c 1
 821 637 887 662 988 703 c 1
 990 692 990 679 990 664 c 0
 990 635 987 599 981 557 c 0
 972 495 960 453 944 432 c 1
 929 424 916 418 905 414 c 0
 889 408 889 408 870 400 c 0
 856 395 844 390 833 384 c 1
 844 335 856 262 869 164 c 1
 831 90 773 22 695 -41 c 1
 687 6 665 125 630 317 c 1
 597 309 597 309 546 296 c 0
 495 283 495 283 466 276 c 0
 447 271 423 266 396 261 c 0
 369 257 342 251 316 249 c 0
 303 248 290 249 277 249 c 0
 225 249 184 260 153 279 c 0
 116 303 97 346 97 406 c 0
 97 408 97 409 97 411 c 0
 101 574 137 724 207 860 c 0
 298 1039 422 1176 579 1271 c 1
EndSplineSet
Validated: 1
EndChar

StartChar: five
Encoding: 53 53 185
Width: 942
Flags: W
HStem: 1234 20G<22 87>
LayerCount: 2
Fore
SplineSet
27 1254 m 1
 147 1231 381 1193 729 1142 c 1
 706 1042 666 962 609 903 c 1
 576 910 517 921 430 938 c 0
 344 954 278 968 232 978 c 1
 234 973 237 965 241 952 c 0
 244 940 247 931 248 927 c 0
 250 922 252 915 255 905 c 0
 258 894 261 886 264 881 c 0
 267 875 270 868 273 859 c 0
 276 851 280 843 285 835 c 0
 292 823 292 823 300 807 c 1
 477 784 596 762 657 741 c 0
 711 721 755 690 790 646 c 0
 825 602 843 554 843 500 c 0
 843 475 827 430 794 366 c 0
 761 302 733 253 710 220 c 1
 600 126 441 39 234 -41 c 1
 231 -31 230 -19 230 -3 c 0
 230 24 234 59 241 102 c 0
 253 169 267 221 283 256 c 1
 407 302 518 359 616 428 c 1
 612 470 599 498 579 511 c 0
 558 524 517 536 456 546 c 0
 434 550 399 554 351 559 c 0
 302 564 267 569 244 573 c 0
 200 581 171 598 157 625 c 0
 98 745 53 879 24 1026 c 0
 16 1064 13 1101 13 1137 c 0
 13 1177 17 1216 27 1254 c 1
EndSplineSet
Validated: 1
EndChar

StartChar: six
Encoding: 54 54 186
Width: 1010
Flags: W
HStem: -25 242<480.57 634.59> 1236 20G<433 471>
VStem: 77 236<551.998 955.008>
LayerCount: 2
Fore
SplineSet
469 1256 m 1
 473 1233 474 1209 474 1186 c 0
 474 1165 473 1144 470 1123 c 0
 464 1080 453 1043 439 1012 c 1
 420 998 403 988 387 982 c 0
 370 976 357 967 348 956 c 0
 333 935 323 904 317 861 c 0
 315 841 313 822 313 802 c 0
 313 779 315 755 319 732 c 0
 352 526 408 365 488 247 c 0
 501 228 519 218 542 217 c 0
 544 217 545 217 547 217 c 0
 568 217 587 223 604 236 c 0
 676 289 725 352 753 425 c 1
 719 475 675 512 621 537 c 0
 568 561 514 576 461 580 c 1
 480 686 512 770 556 829 c 1
 568 831 580 829 592 829 c 0
 641 829 691 819 745 794 c 0
 812 764 861 724 894 672 c 0
 919 634 934 582 938 516 c 0
 939 504 939 492 939 481 c 0
 939 429 932 381 918 336 c 0
 882 213 804 114 684 39 c 0
 637 9 587 -11 537 -20 c 0
 520 -23 503 -25 486 -25 c 0
 453 -25 420 -19 388 -6 c 0
 340 13 303 48 276 99 c 0
 187 267 125 440 90 618 c 0
 81 666 77 709 77 746 c 0
 77 757 76 767 77 776 c 0
 79 819 91 872 109 934 c 0
 131 1003 178 1071 251 1137 c 0
 324 1203 397 1242 469 1256 c 1
EndSplineSet
Validated: 1
EndChar

StartChar: seven
Encoding: 55 55 187
Width: 936
Flags: W
HStem: 1007 247<100.301 223.802>
VStem: 305 238<229.537 488.475>
LayerCount: 2
Fore
SplineSet
116 1254 m 1
 353 1208 545 1161 693 1114 c 0
 725 1104 746 1087 757 1062 c 0
 764 1047 767 1032 767 1015 c 0
 767 1004 766 993 763 981 c 0
 750 926 720 853 673 764 c 0
 626 674 596 614 582 584 c 0
 556 523 543 464 543 407 c 0
 543 344 559 283 591 224 c 1
 563 129 518 41 456 -41 c 1
 418 -2 384 44 354 99 c 0
 324 154 308 208 305 263 c 0
 305 266 305 269 305 273 c 0
 305 320 312 369 326 417 c 0
 341 469 362 525 388 585 c 0
 415 644 432 685 439 707 c 0
 455 756 463 796 463 829 c 0
 463 881 442 913 401 923 c 0
 274 956 124 984 -48 1007 c 1
 -7 1114 48 1196 116 1254 c 1
EndSplineSet
Validated: 1
EndChar

StartChar: eight
Encoding: 56 56 188
Width: 1046
Flags: W
HStem: -32 232<451.689 605.061> 1241 20G<199.5 279.5>
VStem: 27 185<898.541 1058.05> 125 254<293.18 575.159> 524 232<821.062 959.266> 719 230<288.506 456.177>
LayerCount: 2
Fore
SplineSet
418 584 m 1xd4
 392 554 379 515 379 466 c 0
 379 460 380 453 380 446 c 0
 384 389 403 329 437 266 c 0
 462 222 493 200 529 200 c 0
 551 200 574 207 599 222 c 0
 637 242 667 265 691 290 c 0
 709 311 719 333 719 358 c 0
 719 382 713 404 701 423 c 0
 689 443 674 459 655 471 c 0
 602 507 523 545 418 584 c 1xd4
230 1060 m 1
 219 1050 213 1032 212 1007 c 0
 212 1004 212 1001 212 997 c 0
 212 976 217 955 227 935 c 0
 241 909 270 883 315 858 c 0
 360 833 403 814 445 799 c 1
 475 814 497 833 511 856 c 0
 520 870 524 885 524 901 c 0xe8
 524 910 522 920 519 930 c 1
 509 955 474 981 415 1007 c 0
 356 1033 294 1051 230 1060 c 1
230 1261 m 1
 329 1254 423 1235 512 1203 c 0
 601 1171 667 1128 710 1072 c 0
 741 1033 756 991 756 947 c 0xe8
 756 919 750 890 737 860 c 0
 712 801 675 758 625 730 c 1
 719 697 787 671 828 650 c 0
 885 621 922 577 939 518 c 0
 946 495 949 472 949 448 c 0
 949 411 941 373 925 335 c 1
 880 213 797 118 678 49 c 0
 582 -5 503 -32 439 -32 c 0
 433 -32 427 -32 422 -32 c 0
 386 -28 356 -18 330 0 c 0
 305 18 279 47 254 82 c 0
 219 130 192 172 174 210 c 0
 156 247 142 292 131 345 c 0
 127 367 125 389 125 410 c 0xd4
 125 447 131 484 143 519 c 0
 163 575 195 620 239 655 c 1
 174 678 124 708 90 744 c 0
 55 781 33 828 27 887 c 0
 26 897 27 907 27 917 c 0
 27 976 45 1035 79 1094 c 0
 118 1163 169 1219 230 1261 c 1
EndSplineSet
Validated: 1
EndChar

StartChar: nine
Encoding: 57 57 189
Width: 1041
Flags: W
HStem: 1019 217<259.145 459.6>
VStem: 35 210<799.012 1008.11> 664 230<453.601 503.833 526.113 771.08>
LayerCount: 2
Fore
SplineSet
341 275 m 1
 410 304 468 336 517 369 c 0
 566 403 616 445 664 495 c 1
 665 514 664 532 664 549 c 0
 664 595 659 638 650 678 c 0
 638 732 614 791 580 855 c 0
 562 887 539 914 512 938 c 0
 485 961 457 978 430 989 c 0
 403 1000 376 1008 351 1013 c 0
 325 1018 304 1020 288 1019 c 0
 271 1018 262 1014 259 1009 c 0
 249 990 245 968 245 943 c 0
 245 925 247 907 251 886 c 0
 265 821 299 773 353 742 c 0
 362 737 373 735 386 735 c 0
 418 735 463 750 522 780 c 1
 525 760 526 740 526 721 c 0
 526 662 513 606 486 550 c 1
 470 539 457 531 445 524 c 0
 433 517 417 509 398 499 c 0
 378 490 362 483 348 480 c 0
 335 478 317 475 297 472 c 0
 276 469 259 470 244 476 c 1
 197 489 155 526 117 587 c 0
 79 649 53 717 41 794 c 0
 37 817 35 840 35 863 c 0
 35 924 49 983 77 1040 c 0
 114 1118 176 1176 263 1213 c 0
 297 1229 335 1236 378 1236 c 0
 424 1236 474 1228 529 1210 c 0
 636 1176 718 1121 775 1044 c 0
 827 974 862 893 880 800 c 0
 889 750 894 701 894 652 c 0
 894 612 891 573 884 534 c 0
 873 466 849 403 813 345 c 0
 777 287 731 234 673 188 c 0
 616 141 554 100 488 63 c 0
 422 27 346 -8 261 -41 c 1
 261 -1 270 54 288 124 c 0
 305 194 323 244 341 275 c 1
EndSplineSet
Validated: 1
EndChar

StartChar: colon
Encoding: 58 58 190
Width: 599
Flags: W
VStem: 17 492
LayerCount: 2
Fore
SplineSet
167 961 m 1
 263 914 341 860 401 797 c 1
 368 720 320 646 258 575 c 1
 164 610 84 663 17 734 c 1
 61 834 112 910 167 961 c 1
275 355 m 1
 371 307 449 253 509 191 c 1
 477 116 429 42 365 -32 c 1
 275 2 195 55 125 126 c 1
 171 231 221 307 275 355 c 1
EndSplineSet
Validated: 1
EndChar

StartChar: semicolon
Encoding: 59 59 191
Width: 626
Flags: W
VStem: 330 194<-347.611 21.1758>
LayerCount: 2
Fore
SplineSet
468 360 m 1
 505 239 524 114 524 -15 c 0
 524 -125 510 -238 483 -353 c 1
 433 -398 383 -426 330 -439 c 1
 330 -429 330 -419 330 -409 c 0
 330 -390 330 -370 330 -351 c 0
 330 -146 298 26 236 164 c 1
 267 212 301 251 337 282 c 0
 373 312 416 338 468 360 c 1
176 961 m 1
 271 914 349 860 410 797 c 1
 377 720 329 646 266 575 c 1
 173 610 93 663 26 734 c 1
 70 834 120 910 176 961 c 1
EndSplineSet
Validated: 1
EndChar

StartChar: less
Encoding: 60 60 192
Width: 846
Flags: W
LayerCount: 2
Fore
SplineSet
34 469 m 1
 38 532 51 590 75 643 c 1
 676 1084 l 1
 677 1067 678 1050 678 1033 c 0
 678 964 666 897 643 833 c 1
 305 589 l 1
 840 312 l 1
 825 232 790 160 736 99 c 1
 34 469 l 1
EndSplineSet
Validated: 1
EndChar

StartChar: equal
Encoding: 61 61 193
Width: 1329
Flags: W
HStem: 299 201<264.296 1061.7> 664 201<200.096 996.704>
LayerCount: 2
Fore
SplineSet
271 500 m 1
 1125 500 l 1
 1108 423 1084 356 1055 299 c 1
 201 299 l 1
 218 379 242 447 271 500 c 1
207 865 m 1
 1060 865 l 1
 1043 787 1019 720 990 664 c 1
 137 664 l 1
 154 744 177 811 207 865 c 1
EndSplineSet
Validated: 1
EndChar

StartChar: greater
Encoding: 62 62 194
Width: 843
Flags: W
LayerCount: 2
Fore
SplineSet
761 650 m 1
 758 589 744 531 720 478 c 1
 125 36 l 1
 123 56 122 76 122 96 c 0
 122 159 132 218 152 273 c 1
 500 527 l 1
 -43 804 l 1
 -29 885 6 956 61 1017 c 1
 761 650 l 1
EndSplineSet
Validated: 1
EndChar

StartChar: question
Encoding: 63 63 195
Width: 916
Flags: W
HStem: 1068 232<34 303.136>
VStem: 280 237<640.265 753.297>
LayerCount: 2
Fore
SplineSet
512 357 m 1
 600 319 678 265 746 193 c 1
 708 106 660 32 602 -31 c 1
 513 3 432 56 362 128 c 1
 404 229 454 305 512 357 c 1
179 1300 m 1
 220 1300 258 1299 292 1296 c 0
 326 1293 363 1287 404 1278 c 0
 444 1269 479 1257 509 1241 c 0
 538 1225 565 1203 591 1174 c 0
 616 1146 634 1112 645 1073 c 0
 649 1059 651 1044 651 1028 c 0
 651 966 617 894 551 814 c 0
 531 790 519 767 517 745 c 0
 515 723 519 703 528 685 c 0
 538 668 554 647 577 625 c 1
 523 531 457 466 377 430 c 1
 313 490 280 554 280 623 c 0
 280 627 280 631 280 635 c 0
 281 662 287 688 299 711 c 0
 310 734 322 752 335 765 c 0
 348 779 361 794 374 811 c 0
 386 828 397 844 401 859 c 0
 402 866 401 873 401 882 c 0
 401 894 400 909 396 925 c 1
 387 952 371 976 348 995 c 0
 325 1014 296 1029 259 1039 c 0
 223 1048 188 1055 154 1059 c 0
 121 1063 81 1066 34 1068 c 1
 76 1166 125 1244 179 1300 c 1
EndSplineSet
Validated: 1
EndChar

StartChar: at
Encoding: 64 64 196
Width: 1565
Flags: W
HStem: -261 94<602.335 1069.95> 92 109<994 1193.34> 97 120<663.402 799.935> 758 80<763.071 921.016> 1097 84<656.147 1108.98>
VStem: 128 130<185.071 688.019> 454 177<246.424 579.295> 1369 87<403.45 845.651>
LayerCount: 2
Fore
SplineSet
910 754 m 1xbf
 896 757 885 758 877 758 c 0
 809 758 751 724 703 655 c 0
 655 587 631 501 631 398 c 0
 631 277 672 217 754 217 c 0
 806 217 857 253 910 324 c 1
 971 664 l 1
 910 754 l 1xbf
905 229 m 1
 819 141 740 97 666 97 c 0xbf
 604 97 554 122 514 172 c 0
 474 221 454 287 454 370 c 0
 454 482 485 579 548 662 c 0
 589 718 638 761 695 792 c 0
 752 823 810 838 870 838 c 0
 923 838 977 823 1034 794 c 1
 1063 833 l 1
 1179 833 l 1
 1170 809 1155 750 1133 655 c 1
 1072 365 l 2
 1063 322 1058 287 1058 259 c 0
 1058 243 1064 230 1074 218 c 0
 1085 207 1099 201 1116 201 c 0
 1166 201 1213 230 1258 288 c 1
 1332 382 1369 496 1369 630 c 0
 1369 771 1326 884 1239 969 c 0
 1153 1055 1037 1097 893 1097 c 0
 722 1097 578 1042 461 930 c 0
 325 802 258 639 258 442 c 0
 258 258 311 111 419 0 c 0
 527 -111 668 -167 843 -167 c 0
 990 -167 1134 -126 1277 -43 c 1
 1307 -111 l 1
 1131 -211 961 -261 799 -261 c 0
 609 -261 448 -197 316 -68 c 0
 191 53 128 216 128 418 c 0
 128 648 209 837 370 986 c 0
 510 1116 684 1181 893 1181 c 0
 1062 1181 1198 1131 1301 1031 c 0
 1404 931 1456 799 1456 637 c 0
 1456 508 1425 396 1364 300 c 0
 1323 237 1272 186 1213 148 c 0
 1153 111 1095 92 1039 92 c 0xdf
 949 92 905 138 905 229 c 1
EndSplineSet
Validated: 1
EndChar

StartChar: A
Encoding: 65 65 197
Width: 1111
Flags: W
HStem: 0 84<-19 79.4406 241 348 681 788 1056.83 1142> 406 96<358 659> 1137 20G<461.722 656.424>
LayerCount: 2
Fore
SplineSet
469 1157 m 1
 649 1157 l 1
 1041 101 l 1
 1142 84 l 1
 1142 0 l 1
 681 0 l 1
 681 84 l 1
 788 94 l 1
 800 116 l 1
 698 406 l 1
 326 406 l 1
 224 118 l 1
 241 96 l 1
 348 84 l 1
 348 0 l 1
 -19 0 l 1
 -19 84 l 1
 84 99 l 1
 469 1157 l 1
507 923 m 1
 358 502 l 1
 659 502 l 1
 507 923 l 1
EndSplineSet
Validated: 1
EndChar

StartChar: B
Encoding: 66 66 198
Width: 1071
Flags: W
HStem: 0 97<49 150 399 687.101> 541 94<399 629.556> 1053 92<49 150 400.493 638.112>
VStem: 177 222<119 538 635 1029> 705 235<730.54 987.836> 768 239<171.743 465.22>
LayerCount: 2
Fore
SplineSet
49 1145 m 1xf4
 561 1145 l 2
 814 1145 940 1056 940 877 c 0xf8
 940 742 859 653 696 609 c 1
 795 608 872 583 926 534 c 0
 980 485 1007 419 1007 335 c 0
 1007 226 970 144 897 86 c 0
 823 29 717 -0 577 0 c 2
 49 0 l 1
 49 84 l 1
 150 92 l 1
 177 119 l 1
 177 1029 l 1
 150 1053 l 1
 49 1062 l 1
 49 1145 l 1xf4
399 637 m 1
 410 635 425 635 445 635 c 0
 534 635 600 653 642 689 c 0
 684 724 705 781 705 857 c 0
 705 988 626 1053 468 1053 c 0
 454 1053 431 1052 399 1050 c 1
 399 637 l 1
399 97 m 1
 438 95 465 94 481 94 c 0
 581 94 654 112 700 148 c 0
 745 185 768 243 768 324 c 0xf4
 768 469 683 541 512 541 c 0
 469 541 431 540 399 538 c 1
 399 97 l 1
EndSplineSet
Validated: 1
EndChar

StartChar: C
Encoding: 67 67 199
Width: 1088
Flags: W
HStem: -20 107<536.671 844.284> 1055 111<527.726 848.562>
VStem: 70 251<337.309 813.362> 903 123<265.987 335 817 889.875>
LayerCount: 2
Fore
SplineSet
1026 41 m 1
 911 0 791 -20 667 -20 c 0
 544 -20 440 5 353 56 c 0
 265 110 195 182 145 272 c 0
 95 363 70 463 70 572 c 0
 70 750 129 896 247 1009 c 1
 356 1113 499 1166 678 1166 c 0
 792 1166 909 1145 1026 1103 c 1
 1026 817 l 1
 899 817 l 1
 867 1000 l 1
 843 1029 l 1
 796 1046 752 1055 708 1055 c 0
 590 1055 496 1012 426 927 c 0
 356 841 321 724 321 573 c 0
 321 421 357 302 430 216 c 0
 503 130 603 87 730 87 c 0
 759 87 794 92 835 102 c 1
 860 128 l 1
 903 335 l 1
 1026 335 l 1
 1026 41 l 1
EndSplineSet
Validated: 1
EndChar

StartChar: D
Encoding: 68 68 200
Width: 1221
Flags: W
HStem: 0 96<49 154 406 708.633> 1050 95<49 154 406 708.91>
VStem: 181 225<119 1026> 908 254<323.582 825.299>
LayerCount: 2
Fore
SplineSet
548 1145 m 2
 745 1145 896 1095 1003 994 c 0
 1109 893 1162 753 1162 572 c 0
 1162 369 1092 214 952 108 c 0
 860 36 725 0 548 0 c 2
 49 0 l 1
 49 84 l 1
 154 92 l 1
 181 119 l 1
 181 1026 l 1
 154 1053 l 1
 49 1062 l 1
 49 1145 l 1
 548 1145 l 2
406 1050 m 1
 406 96 l 1
 505 96 l 2
 774 96 908 255 908 573 c 0
 908 891 774 1050 505 1050 c 2
 406 1050 l 1
EndSplineSet
Validated: 1
EndChar

StartChar: E
Encoding: 69 69 201
Width: 1017
Flags: W
HStem: 0 97<49 154 403 799> 541 102<403 625> 877 268<790 910> 1050 95<49 154 403 742>
VStem: 181 222<119 541 643 1029> 666 100<394 497.725 686.275 790> 790 120<877 963.016> 850 116<216.018 305>
LayerCount: 2
Fore
SplineSet
49 0 m 1xdd
 49 84 l 1
 154 92 l 1
 181 119 l 1
 181 1029 l 1
 154 1053 l 1
 49 1062 l 1
 49 1145 l 1xdd
 910 1145 l 1
 910 877 l 1
 790 877 l 1xee
 765 1027 l 1
 742 1050 l 1
 403 1050 l 1
 403 643 l 1
 625 643 l 1
 649 667 l 1
 666 790 l 1
 766 790 l 1
 766 394 l 1
 666 394 l 1
 649 517 l 1
 625 541 l 1
 403 541 l 1
 403 97 l 1
 799 97 l 1
 821 125 l 1
 850 305 l 1
 966 305 l 1
 966 0 l 1
 49 0 l 1xdd
EndSplineSet
Validated: 1
EndChar

StartChar: F
Encoding: 70 70 202
Width: 942
Flags: W
HStem: 0 84<51 154 435 555> 517 104<406 635> 1046 99<406 736> 1062 83<44 154>
VStem: 181 225<119 517 621 1029> 676 101<370 475.412 662.588 768> 783 118<858 953.191>
LayerCount: 2
Fore
SplineSet
51 0 m 1xee
 51 84 l 1
 154 92 l 1
 181 119 l 1
 181 1029 l 1
 154 1053 l 1
 44 1062 l 1
 44 1145 l 1
 901 1145 l 1xde
 901 858 l 1
 783 858 l 1
 758 1024 l 1
 736 1046 l 1
 406 1046 l 1
 406 621 l 1
 635 621 l 1
 659 643 l 1
 676 768 l 1
 777 768 l 1
 777 370 l 1
 676 370 l 1
 659 495 l 1
 635 517 l 1
 406 517 l 1
 406 119 l 1
 435 92 l 1
 555 84 l 1
 555 0 l 1
 51 0 l 1xee
EndSplineSet
Validated: 1
EndChar

StartChar: G
Encoding: 71 71 203
Width: 1211
Flags: W
HStem: -20 114<539.806 831.49> 480 83<679 806 1079 1178> 1056 108<530.709 875.152>
VStem: 68 248<332.836 819.565> 833 218<96.0996 447> 927 124<817 895.631>
LayerCount: 2
Fore
SplineSet
679 563 m 1xf8
 1178 563 l 1
 1178 480 l 1
 1079 471 l 1
 1051 447 l 1xf8
 1051 49 l 1
 918 3 791 -20 669 -20 c 0
 490 -20 346 35 235 147 c 0
 124 258 68 403 68 580 c 0
 68 755 125 897 238 1004 c 0
 351 1110 502 1164 691 1164 c 0
 805 1164 925 1145 1051 1108 c 1
 1051 817 l 1
 927 817 l 1xf4
 894 998 l 1
 869 1029 l 1
 824 1047 777 1056 727 1056 c 0
 600 1056 499 1014 426 930 c 0
 352 846 316 729 316 580 c 0
 316 428 353 309 428 223 c 0
 503 137 607 94 739 94 c 0
 757 94 788 96 833 99 c 1
 833 447 l 1
 806 471 l 1
 679 480 l 1
 679 563 l 1xf8
EndSplineSet
Validated: 1
EndChar

StartChar: H
Encoding: 72 72 204
Width: 1297
Flags: W
HStem: 0 84<51 150 432 534 770 872 1152 1251> 550 102<404 898> 1062 83<51 150 432 534 770 872 1152 1251>
VStem: 177 227<119 550 652 1026> 898 227<119 550 652 1026>
LayerCount: 2
Fore
SplineSet
51 1145 m 1
 534 1145 l 1
 534 1062 l 1
 432 1053 l 1
 404 1026 l 1
 404 652 l 1
 898 652 l 1
 898 1026 l 1
 872 1053 l 1
 770 1062 l 1
 770 1145 l 1
 1251 1145 l 1
 1251 1062 l 1
 1152 1053 l 1
 1125 1026 l 1
 1125 119 l 1
 1152 92 l 1
 1251 84 l 1
 1251 0 l 1
 770 0 l 1
 770 84 l 1
 872 92 l 1
 898 119 l 1
 898 550 l 1
 404 550 l 1
 404 119 l 1
 432 92 l 1
 534 84 l 1
 534 0 l 1
 51 0 l 1
 51 84 l 1
 150 92 l 1
 177 119 l 1
 177 1026 l 1
 150 1053 l 1
 51 1062 l 1
 51 1145 l 1
EndSplineSet
Validated: 1
EndChar

StartChar: I
Encoding: 73 73 205
Width: 604
Flags: W
HStem: 0 84<51 164 447 561> 1062 83<51 164 447 561>
VStem: 191 229<119 1029>
LayerCount: 2
Fore
SplineSet
51 0 m 1
 51 84 l 1
 164 92 l 1
 191 119 l 1
 191 1029 l 1
 164 1053 l 1
 51 1062 l 1
 51 1145 l 1
 561 1145 l 1
 561 1062 l 1
 447 1053 l 1
 420 1029 l 1
 420 119 l 1
 447 92 l 1
 561 84 l 1
 561 0 l 1
 51 0 l 1
EndSplineSet
Validated: 1
EndChar

StartChar: J
Encoding: 74 74 206
Width: 793
Flags: W
HStem: -20 99<208 360.969> 1062 83<290 410 688 792>
VStem: 20 125<244.925 328> 437 223<176.555 1029>
LayerCount: 2
Fore
SplineSet
437 1029 m 1
 410 1053 l 1
 290 1062 l 1
 290 1145 l 1
 792 1145 l 1
 792 1062 l 1
 688 1053 l 1
 660 1029 l 1
 660 447 l 2
 660 287 629 169 566 93 c 0
 503 17 402 -20 265 -20 c 0
 186 -20 105 -7 20 20 c 1
 20 328 l 1
 145 328 l 1
 184 102 l 1
 208 80 l 1
 210 80 215 80 222 79 c 0
 229 79 233 79 236 79 c 0
 311 79 363 107 393 165 c 0
 422 222 437 316 437 445 c 2
 437 1029 l 1
EndSplineSet
Validated: 1
EndChar

StartChar: K
Encoding: 75 75 207
Width: 1109
Flags: W
HStem: 0 84<51 155 435 536 1024 1147> 502 80<408 456> 1062 83<51 155 435 536 720 816 985 1104>
VStem: 181 227<119 502 582 1029>
LayerCount: 2
Fore
SplineSet
51 0 m 1
 51 84 l 1
 155 92 l 1
 181 119 l 1
 181 1029 l 1
 155 1053 l 1
 51 1062 l 1
 51 1145 l 1
 536 1145 l 1
 536 1062 l 1
 435 1053 l 1
 408 1029 l 1
 408 582 l 1
 456 582 l 1
 826 1031 l 1
 816 1053 l 1
 720 1062 l 1
 720 1145 l 1
 1104 1145 l 1
 1104 1062 l 1
 985 1050 l 1
 660 662 l 1
 1024 94 l 1
 1147 84 l 1
 1147 0 l 1
 794 0 l 1
 794 60 l 1
 507 502 l 1
 408 502 l 1
 408 119 l 1
 435 92 l 1
 536 84 l 1
 536 0 l 1
 51 0 l 1
EndSplineSet
Validated: 1
EndChar

StartChar: L
Encoding: 76 76 208
Width: 926
Flags: W
HStem: 0 99<406 734> 0 84<46 150> 1062 83<46 155 433 538>
VStem: 179 227<119 1029> 782 126<219.761 335>
LayerCount: 2
Fore
SplineSet
46 0 m 1x78
 46 84 l 1x78
 150 92 l 1
 179 119 l 1
 179 1029 l 1
 155 1053 l 1
 46 1062 l 1
 46 1145 l 1
 538 1145 l 1
 538 1062 l 1
 433 1053 l 1
 406 1029 l 1
 406 99 l 1
 734 99 l 1xb8
 756 126 l 1
 782 335 l 1
 908 335 l 1
 908 0 l 1
 46 0 l 1x78
EndSplineSet
Validated: 1
EndChar

StartChar: M
Encoding: 77 77 209
Width: 1506
Flags: W
HStem: 0 84<43 152 324 430 1000 1106 1357 1473> 1063 82<43 155 1357 1473>
VStem: 176 123<126 1027> 1123 215<119 1029>
LayerCount: 2
Fore
SplineSet
43 0 m 1
 43 84 l 1
 152 96 l 1
 176 126 l 1
 176 1031 l 1
 155 1053 l 1
 43 1063 l 1
 43 1145 l 1
 490 1145 l 1
 490 1097 l 1
 756 314 l 1
 1021 1096 l 1
 1021 1145 l 1
 1473 1145 l 1
 1473 1063 l 1
 1357 1053 l 1
 1338 1029 l 1
 1338 119 l 1
 1357 92 l 1
 1473 84 l 1
 1473 0 l 1
 1000 0 l 1
 1000 84 l 1
 1106 92 l 1
 1123 119 l 1
 1123 1036 l 1
 768 0 l 1
 645 0 l 1
 299 1027 l 1
 299 126 l 1
 324 96 l 1
 430 84 l 1
 430 0 l 1
 43 0 l 1
EndSplineSet
Validated: 1
EndChar

StartChar: N
Encoding: 78 78 210
Width: 1240
Flags: W
HStem: 0 82<44 145 328 433> 1062 83<43 152 823 927 1111 1212>
VStem: 176 124<126 916> 957 125<288 1019>
LayerCount: 2
Fore
SplineSet
44 0 m 1
 44 82 l 1
 145 96 l 1
 176 126 l 1
 176 1029 l 1
 152 1053 l 1
 43 1062 l 1
 43 1145 l 1
 435 1145 l 1
 435 1099 l 1
 957 288 l 1
 957 1019 l 1
 927 1051 l 1
 823 1065 l 1
 823 1145 l 1
 1212 1145 l 1
 1212 1065 l 1
 1111 1051 l 1
 1082 1019 l 1
 1082 0 l 1
 891 0 l 1
 300 916 l 1
 300 126 l 1
 328 96 l 1
 433 82 l 1
 433 0 l 1
 44 0 l 1
EndSplineSet
Validated: 1
EndChar

StartChar: O
Encoding: 79 79 211
Width: 1283
Flags: W
HStem: -27 104<500.95 791.685> 1062 109<501.589 794.554>
VStem: 70 254<325.232 830.052> 968 256<325.384 816.635>
LayerCount: 2
Fore
SplineSet
70 579 m 0
 70 766 129 914 246 1022 c 0
 353 1121 486 1171 645 1171 c 0
 791 1171 916 1126 1021 1038 c 0
 1156 922 1224 765 1224 568 c 0
 1224 384 1163 236 1041 123 c 0
 934 23 806 -27 657 -27 c 0
 481 -27 339 28 231 139 c 0
 124 250 70 397 70 579 c 0
649 1062 m 0
 552 1062 474 1018 414 931 c 0
 354 844 324 725 324 575 c 0
 324 422 354 300 415 211 c 0
 475 121 552 77 645 77 c 0
 741 77 818 121 878 208 c 0
 938 296 968 414 968 563 c 0
 968 718 938 840 879 928 c 0
 820 1017 743 1062 649 1062 c 0
EndSplineSet
Validated: 1
EndChar

StartChar: P
Encoding: 80 80 212
Width: 1001
Flags: W
HStem: 0 84<49 150 432 553> 422 99<406 637.235> 1046 99<406 647.039> 1062 83<43 155>
VStem: 181 225<119 427 521.422 1029> 734 235<616.853 957.945>
LayerCount: 2
Fore
SplineSet
49 0 m 1xec
 49 84 l 1
 150 92 l 1
 181 119 l 1
 181 1029 l 1
 155 1053 l 1
 43 1062 l 1
 43 1145 l 1xdc
 503 1145 l 2
 664 1145 782 1118 857 1064 c 0
 932 1010 969 922 969 800 c 0
 969 682 930 589 852 522 c 0
 775 455 664 422 522 422 c 0
 496 422 457 423 406 427 c 1
 406 119 l 1
 432 92 l 1
 553 84 l 1
 553 0 l 1
 49 0 l 1xec
406 524 m 1
 436 522 456 521 468 521 c 0
 645 521 734 612 734 794 c 0
 734 874 713 937 672 980 c 0
 631 1024 572 1046 495 1046 c 2
 406 1046 l 1xec
 406 524 l 1
EndSplineSet
Validated: 1
EndChar

StartChar: Q
Encoding: 81 81 213
Width: 1283
Flags: W
HStem: -304 103<838.2 1158.14> -3 88<508.137 534 775 794.094> 1062 110<495.637 789.292>
VStem: 67 257<324.359 817.818> 534 241<-137.08 -2.4502> 969 260<323.714 811.714>
LayerCount: 2
Fore
SplineSet
775 -3 m 1
 777 -72 797 -122 835 -154 c 0
 872 -185 929 -201 1005 -201 c 0
 1054 -201 1106 -195 1162 -181 c 1
 1162 -268 l 1
 1053 -292 959 -304 881 -304 c 0
 762 -304 675 -280 619 -234 c 0
 562 -187 534 -114 534 -15 c 2
 534 -10 l 1
 392 13 278 77 194 182 c 0
 109 287 67 418 67 573 c 0
 67 704 100 822 166 927 c 0
 214 1003 281 1063 364 1107 c 0
 448 1151 539 1172 638 1172 c 0
 792 1172 919 1129 1021 1041 c 0
 1159 922 1229 763 1229 567 c 0
 1229 418 1188 291 1105 188 c 0
 1023 84 912 20 775 -3 c 1
324 579 m 0
 324 427 355 307 417 218 c 0
 479 130 558 85 654 85 c 0
 747 85 823 129 881 216 c 0
 940 303 969 422 969 572 c 0
 969 723 939 843 878 930 c 0
 817 1018 738 1062 642 1062 c 0
 547 1062 471 1018 412 932 c 0
 354 845 324 728 324 579 c 0
EndSplineSet
Validated: 1
EndChar

StartChar: R
Encoding: 82 82 214
Width: 1145
Flags: W
HStem: 0 84<53 154 430 534 1028.42 1181> 503 98<403 596.469> 1048 97<53 154 403 654.021>
VStem: 181 222<119 503 602 1029> 734 239<696.259 969.943>
LayerCount: 2
Fore
SplineSet
53 1145 m 1
 572 1145 l 2
 704 1145 804 1120 871 1071 c 0
 939 1021 973 949 973 853 c 0
 973 695 875 598 679 561 c 1
 761 542 821 507 858 456 c 0
 874 433 888 408 899 381 c 0
 909 353 920 321 931 285 c 0
 942 249 951 221 957 203 c 0
 975 156 998 125 1027 108 c 0
 1057 92 1101 84 1159 84 c 2
 1181 84 l 1
 1181 2 l 1
 1117 -7 1060 -12 1010 -12 c 0
 936 -12 877 6 833 41 c 0
 818 52 805 65 794 78 c 0
 782 91 773 102 766 110 c 0
 759 119 752 132 744 150 c 0
 736 168 731 180 729 186 c 0
 726 192 722 206 714 229 c 0
 703 263 703 263 701 268 c 0
 673 357 641 418 606 452 c 0
 571 486 513 503 432 503 c 2
 403 503 l 1
 403 119 l 1
 430 92 l 1
 534 84 l 1
 534 0 l 1
 53 0 l 1
 53 84 l 1
 154 92 l 1
 181 119 l 1
 181 1029 l 1
 154 1053 l 1
 53 1062 l 1
 53 1145 l 1
403 1048 m 1
 403 602 l 1
 418 601 438 601 464 601 c 0
 556 601 624 619 668 656 c 0
 712 693 734 751 734 829 c 0
 734 900 712 954 669 992 c 0
 626 1029 563 1048 481 1048 c 2
 403 1048 l 1
EndSplineSet
Validated: 1
EndChar

StartChar: S
Encoding: 83 83 215
Width: 969
Flags: W
HStem: -19 111<272.422 589.396> 831 21G<721.742 848> 1056 110<402.068 680.403>
VStem: 101 129<241.552 346> 125 221<783.825 992.187> 650 232<166.126 370.379> 725 123<831 918.993>
LayerCount: 2
Fore
SplineSet
101 38 m 1xf4
 101 346 l 1
 230 346 l 1
 258 142 l 1
 280 116 l 1
 330 100 380 92 430 92 c 0
 498 92 552 107 591 137 c 0
 631 168 650 207 650 254 c 0xf4
 650 299 635 338 606 371 c 0
 576 405 530 437 468 469 c 0
 452 476 452 476 416 493 c 0
 391 505 371 514 357 522 c 0
 342 530 324 541 302 554 c 0
 280 567 261 581 244 596 c 0
 164 663 125 741 125 829 c 0
 125 926 162 1006 236 1070 c 0
 309 1134 407 1166 527 1166 c 0
 631 1166 738 1146 848 1108 c 1
 848 831 l 1
 725 831 l 1
 696 1009 l 1
 672 1033 l 1
 641 1048 599 1056 548 1056 c 0
 486 1056 437 1041 401 1011 c 0
 365 981 346 942 346 894 c 0xea
 346 857 358 824 380 795 c 0
 402 767 437 738 485 710 c 0
 497 702 531 686 587 661 c 0
 643 637 690 612 729 587 c 0
 831 522 882 437 882 331 c 0
 882 228 841 143 759 79 c 0
 678 14 568 -19 430 -19 c 0
 316 -19 207 0 101 38 c 1xf4
EndSplineSet
Validated: 1
EndChar

StartChar: T
Encoding: 84 84 216
Width: 1029
Flags: W
HStem: 0 84<265 375 664 775> 843 302<27 145 894 1012> 1048 97<200 404 635 840>
VStem: 27 118<843 940.166> 404 231<119 1048> 894 118<843 933.465>
CounterMasks: 1 1c
LayerCount: 2
Fore
SplineSet
27 1145 m 1xdc
 1012 1145 l 1
 1012 843 l 1
 894 843 l 1xdc
 865 1026 l 1
 840 1048 l 1
 635 1048 l 1
 635 119 l 1
 664 92 l 1
 775 84 l 1
 775 0 l 1
 265 0 l 1
 265 84 l 1
 375 92 l 1
 404 119 l 1
 404 1048 l 1
 200 1048 l 1xbc
 172 1026 l 1
 145 843 l 1
 27 843 l 1
 27 1145 l 1xdc
EndSplineSet
Validated: 1
EndChar

StartChar: U
Encoding: 85 85 217
Width: 1203
Flags: W
HStem: -20 134<492.99 833.565> 1062 83<34 142 418 524 797 906 1080 1184>
VStem: 166 228<215.042 1029> 932 124<221.301 1022>
LayerCount: 2
Fore
SplineSet
34 1145 m 1
 524 1145 l 1
 524 1062 l 1
 418 1053 l 1
 394 1029 l 1
 394 432 l 2
 394 320 415 240 457 189 c 0
 499 139 571 114 672 114 c 0
 766 114 832 141 872 194 c 0
 912 247 932 331 932 447 c 2
 932 1022 l 1
 906 1051 l 1
 797 1062 l 1
 797 1145 l 1
 1184 1145 l 1
 1184 1062 l 1
 1080 1051 l 1
 1056 1022 l 1
 1056 430 l 2
 1056 273 1021 159 951 87 c 0
 880 15 765 -20 606 -20 c 0
 436 -20 315 26 241 119 c 0
 210 159 190 204 180 253 c 0
 170 302 166 364 166 439 c 2
 166 1029 l 1
 142 1053 l 1
 34 1062 l 1
 34 1145 l 1
EndSplineSet
Validated: 1
EndChar

StartChar: V
Encoding: 86 86 218
Width: 1083
Flags: W
HStem: -3 21G<456.586 644.255> 1062 83<-36 41.1413 335 433 753 855 1056.81 1126>
LayerCount: 2
Fore
SplineSet
-36 1145 m 1
 433 1145 l 1
 433 1062 l 1
 335 1053 l 1
 316 1027 l 1
 599 249 l 1
 874 1027 l 1
 855 1053 l 1
 753 1062 l 1
 753 1145 l 1
 1126 1145 l 1
 1126 1062 l 1
 1015 1039 l 1
 637 -3 l 1
 464 -3 l 1
 77 1041 l 1
 -36 1062 l 1
 -36 1145 l 1
EndSplineSet
Validated: 1
EndChar

StartChar: W
Encoding: 87 87 219
Width: 1614
Flags: W
HStem: 0 21G<381.682 558.927 1070.94 1247.05> 1062 83<3 63.012 345 451 1239 1310.76 1551.54 1611>
LayerCount: 2
Fore
SplineSet
387 0 m 1
 111 1038 l 1
 3 1062 l 1
 3 1145 l 1
 451 1145 l 1
 451 1063 l 1
 345 1051 l 1
 331 1027 l 1
 522 319 l 1
 768 1145 l 1
 940 1145 l 1
 1193 300 l 1
 1372 1017 l 1
 1352 1041 l 1
 1239 1062 l 1
 1239 1145 l 1
 1611 1145 l 1
 1611 1062 l 1
 1504 1038 l 1
 1242 0 l 1
 1077 0 l 1
 812 874 l 1
 553 0 l 1
 387 0 l 1
EndSplineSet
Validated: 1
EndChar

StartChar: X
Encoding: 88 88 220
Width: 1087
Flags: W
HStem: 0 82<0 91.9191 283 394 604 712 1024.71 1099> 1063 82<24 114.232 404 507 698 792 975 1080>
LayerCount: 2
Fore
SplineSet
24 1145 m 1
 507 1145 l 1
 507 1063 l 1
 404 1055 l 1
 391 1033 l 1
 585 715 l 1
 807 1027 l 1
 792 1051 l 1
 698 1063 l 1
 698 1145 l 1
 1080 1145 l 1
 1080 1063 l 1
 975 1050 l 1
 657 620 l 1
 985 104 l 1
 1099 82 l 1
 1099 0 l 1
 604 0 l 1
 604 82 l 1
 712 96 l 1
 724 118 l 1
 515 459 l 1
 273 121 l 1
 283 92 l 1
 394 82 l 1
 394 0 l 1
 0 0 l 1
 0 82 l 1
 109 99 l 1
 442 555 l 1
 131 1046 l 1
 24 1063 l 1
 24 1145 l 1
EndSplineSet
Validated: 1
EndChar

StartChar: Y
Encoding: 89 89 221
Width: 1041
Flags: W
HStem: 0 85<276 391 672 788> 1062 83<-19 61.7569 352 447 698 773.571 999.109 1070>
VStem: 418 227<118 451>
LayerCount: 2
Fore
SplineSet
-19 1145 m 1
 447 1145 l 1
 447 1062 l 1
 352 1053 l 1
 336 1033 l 1
 570 599 l 1
 814 1017 l 1
 800 1044 l 1
 698 1063 l 1
 698 1145 l 1
 1070 1145 l 1
 1070 1062 l 1
 969 1043 l 1
 645 492 l 1
 645 118 l 1
 672 94 l 1
 788 85 l 1
 788 0 l 1
 276 0 l 1
 276 85 l 1
 391 94 l 1
 418 118 l 1
 418 451 l 1
 90 1044 l 1
 -19 1062 l 1
 -19 1145 l 1
EndSplineSet
Validated: 1
EndChar

StartChar: Z
Encoding: 90 90 222
Width: 1010
Flags: W
HStem: 0 101<331 768> 843 21G<106 229.951> 1046 99<287 672>
VStem: 106 121<843 940.166> 816 123<235.735 331>
LayerCount: 2
Fore
SplineSet
106 1145 m 1
 928 1145 l 1
 928 1051 l 1
 331 101 l 1
 768 101 l 1
 785 125 l 1
 816 331 l 1
 939 331 l 1
 939 0 l 1
 75 0 l 1
 75 94 l 1
 672 1046 l 1
 287 1046 l 1
 254 1026 l 1
 227 843 l 1
 106 843 l 1
 106 1145 l 1
EndSplineSet
Validated: 1
EndChar

StartChar: bracketleft
Encoding: 91 91 223
Width: 832
Flags: W
HStem: -290 247<447 708.154> 1121 248<242 495.436>
LayerCount: 2
Fore
SplineSet
242 1121 m 1
 447 -43 l 1
 785 -43 l 1
 781 -122 753 -205 701 -290 c 1
 297 -290 l 1
 51 1103 l 1
 71 1207 102 1296 147 1369 c 1
 579 1369 l 1
 572 1280 542 1198 488 1121 c 1
 242 1121 l 1
EndSplineSet
Validated: 1
EndChar

StartChar: backslash
Encoding: 92 92 224
Width: 885
Flags: W
HStem: 1233 20G<-39.5 10>
LayerCount: 2
Fore
SplineSet
143 1239 m 1
 364 826 635 397 956 -49 c 1
 906 -65 852 -73 794 -73 c 0
 752 -73 707 -69 660 -60 c 1
 642 -27 642 -27 608 34 c 0
 444 317 444 317 358 461 c 0
 302 556 227 676 135 818 c 0
 43 961 -53 1102 -154 1241 c 1
 -109 1249 -63 1253 -16 1253 c 0
 36 1253 89 1248 143 1239 c 1
EndSplineSet
Validated: 1
EndChar

StartChar: bracketright
Encoding: 93 93 225
Width: 832
Flags: W
HStem: -290 247<202.156 457> 1121 248<-7.03293 253>
LayerCount: 2
Fore
SplineSet
457 -43 m 1
 253 1121 l 1
 -85 1121 l 1
 -81 1201 -51 1283 0 1369 c 1
 403 1369 l 1
 649 -24 l 1
 629 -127 598 -216 555 -290 c 1
 121 -290 l 1
 128 -201 158 -119 212 -43 c 1
 457 -43 l 1
EndSplineSet
Validated: 1
EndChar

StartChar: asciicircum
Encoding: 94 94 226
Width: 1706
Flags: W
HStem: 748 471
LayerCount: 2
Fore
SplineSet
942 1219 m 1
 1360 748 l 1
 1273 748 l 1
 852 1079 l 1
 430 748 l 1
 343 748 l 1
 763 1219 l 1
 942 1219 l 1
EndSplineSet
Validated: 1
EndChar

StartChar: underscore
Encoding: 95 95 227
Width: 853
Flags: W
HStem: -403 144<0 853>
LayerCount: 2
Fore
SplineSet
853 -259 m 1
 853 -403 l 1
 0 -403 l 1
 0 -259 l 1
 853 -259 l 1
EndSplineSet
Validated: 1
EndChar

StartChar: grave
Encoding: 96 96 228
Width: 853
Flags: W
HStem: 942 324
VStem: 147 377
LayerCount: 2
Fore
SplineSet
147 1266 m 1
 358 1266 l 1
 524 942 l 1
 408 942 l 1
 147 1266 l 1
EndSplineSet
Validated: 1
EndChar

StartChar: a
Encoding: 97 97 229
Width: 928
Flags: W
HStem: -15 131<259 467.13> 0 75<821 911> 445 87<434.022 585> 761 91<344.252 547.168>
VStem: 68 226<146.18 348.796> 108 235<594.938 747.664> 585 214<147.128 445 521.706 717.629>
LayerCount: 2
Fore
SplineSet
585 97 m 1x76
 474 22 376 -15 292 -15 c 0
 226 -15 172 5 131 47 c 0
 89 88 68 142 68 207 c 0xba
 68 298 105 364 178 404 c 0
 252 445 388 488 587 532 c 1
 587 584 l 2
 587 645 574 690 548 719 c 0
 522 747 481 761 425 761 c 0
 401 761 374 758 343 751 c 1
 343 591 l 1
 186 591 l 2
 134 591 108 612 108 654 c 0
 108 705 143 751 212 791 c 0
 282 831 371 852 480 852 c 0
 598 852 681 829 728 783 c 0
 775 738 799 660 799 550 c 2
 799 108 l 1
 821 84 l 1
 911 75 l 1
 911 0 l 1
 608 0 l 1
 585 97 l 1x76
585 167 m 1
 585 445 l 1
 480 422 404 395 360 367 c 0
 316 338 294 298 294 244 c 0
 294 204 305 173 328 150 c 0
 350 127 381 116 420 116 c 0
 463 116 518 133 585 167 c 1
EndSplineSet
Validated: 1
EndChar

StartChar: b
Encoding: 98 98 230
Width: 984
Flags: W
HStem: -2 92<350 587.252> 717 133<415.692 605.256> 1114 67<15 60.3376> 1241 20G<204.75 350>
VStem: 138 212<90.0565 711.107 773 1114> 705 229<246.835 610.742>
LayerCount: 2
Fore
SplineSet
268 1261 m 1
 350 1261 l 1
 350 773 l 1
 442 824 525 850 597 850 c 0
 695 850 776 814 839 742 c 0
 902 671 934 577 934 463 c 0
 934 261 844 120 664 39 c 0
 601 12 505 -2 374 -2 c 2
 328 -2 l 1
 138 2 l 1
 138 1114 l 1
 15 1114 l 1
 15 1181 l 1
 268 1261 l 1
350 92 m 1
 362 91 381 90 404 90 c 0
 508 90 584 117 632 171 c 0
 681 224 705 307 705 418 c 0
 705 515 683 589 640 640 c 0
 597 691 536 717 457 717 c 0
 429 717 393 712 350 703 c 1
 350 92 l 1
EndSplineSet
Validated: 1
EndChar

StartChar: c
Encoding: 99 99 231
Width: 812
Flags: W
HStem: -14 135<407.687 693.343> 765 83<402.867 557.154>
VStem: 60 232<250.407 612.77> 558 224<579.99 763.311>
LayerCount: 2
Fore
SplineSet
792 77 m 1
 682 16 574 -14 469 -14 c 0
 346 -14 247 25 172 103 c 0
 97 181 60 282 60 406 c 0
 60 536 101 642 183 724 c 0
 266 807 371 848 500 848 c 0
 585 848 654 831 705 795 c 0
 756 760 782 716 782 662 c 0
 782 628 770 600 748 579 c 0
 725 557 695 546 659 546 c 0
 621 546 588 557 558 579 c 1
 558 759 l 1
 541 763 527 765 515 765 c 0
 454 765 401 735 358 677 c 0
 314 618 292 542 292 447 c 0
 292 346 316 266 364 208 c 0
 411 150 475 121 555 121 c 0
 629 121 708 147 792 198 c 1
 792 77 l 1
EndSplineSet
Validated: 1
EndChar

StartChar: d
Encoding: 100 100 232
Width: 1017
Flags: W
HStem: -15 145<385.313 557.299> 0 75<896 983> 758 95<403.752 661.496> 1113 68<539 584.696> 1241 20G<730.25 872>
VStem: 63 229<233.758 613.421> 664 208<147.401 745.563 836 1113>
LayerCount: 2
Fore
SplineSet
664 1113 m 1xbe
 539 1113 l 1
 539 1181 l 1
 794 1261 l 1
 872 1261 l 1
 872 109 l 1
 896 82 l 1
 983 75 l 1
 983 0 l 1
 664 0 l 1x7e
 664 96 l 1
 564 22 474 -15 394 -15 c 0
 298 -15 218 23 156 99 c 0
 94 175 63 274 63 396 c 0
 63 532 104 643 185 727 c 0
 267 811 373 853 503 853 c 0
 552 853 606 848 664 836 c 1
 664 1113 l 1xbe
664 162 m 1
 664 732 l 1
 615 749 573 758 538 758 c 0
 464 758 404 728 359 670 c 0
 314 611 292 532 292 432 c 0
 292 336 312 262 352 209 c 0
 393 156 449 130 521 130 c 0xbe
 558 130 606 141 664 162 c 1
EndSplineSet
Validated: 1
EndChar

StartChar: e
Encoding: 101 101 233
Width: 894
Flags: W
HStem: -15 133<398.564 722.203> 435 91<290 616> 759 94<356.321 569.765>
VStem: 63 219<243.62 435 526 623.125> 616 224<526 681.984>
LayerCount: 2
Fore
SplineSet
838 212 m 1
 838 85 l 1
 723 18 605 -15 485 -15 c 0
 357 -15 255 24 178 102 c 0
 102 181 63 284 63 413 c 0
 63 543 103 649 182 730 c 0
 261 812 362 853 485 853 c 0
 597 853 685 820 747 753 c 0
 809 686 840 591 840 468 c 2
 840 435 l 1
 282 435 l 1
 282 430 l 2
 282 332 306 256 355 201 c 0
 404 145 471 118 556 118 c 0
 646 118 740 149 838 212 c 1
616 526 m 1
 616 544 l 2
 616 615 603 668 578 705 c 0
 552 741 515 759 468 759 c 0
 415 759 373 739 341 697 c 0
 309 656 292 598 290 526 c 1
 616 526 l 1
EndSplineSet
Validated: 1
EndChar

StartChar: f
Encoding: 102 102 234
Width: 581
Flags: W
HStem: 0 79<53 138 399 514> 707 102<372 601>
VStem: 162 210<114 707 823 1038.75>
LayerCount: 2
Fore
SplineSet
53 0 m 1
 53 79 l 1
 138 87 l 1
 162 114 l 1
 162 707 l 1
 51 707 l 1
 51 771 l 1
 162 823 l 1
 162 986 220 1111 336 1196 c 1
 399 1244 468 1268 543 1268 c 0
 592 1268 631 1257 660 1234 c 0
 689 1211 703 1181 703 1143 c 0
 703 1096 670 1060 604 1038 c 1
 439 1184 l 1
 394 1139 372 1052 372 925 c 2
 372 911 l 1
 372 809 l 1
 601 809 l 1
 601 707 l 1
 372 707 l 1
 372 113 l 1
 399 87 l 1
 514 79 l 1
 514 0 l 1
 53 0 l 1
EndSplineSet
Validated: 1
EndChar

StartChar: g
Encoding: 103 103 235
Width: 940
Flags: W
HStem: -370 90<331.16 606.274> 287 77<378.481 535.649> 701 98<763 947> 768 80<364.077 539.692>
VStem: 58 208<-216.354 -9.20277> 94 218<415.999 708.331> 212 163<123.5 247.416> 591 209<422.381 699.225> 667 203<-201 -34.4114>
LayerCount: 2
Fore
SplineSet
695 799 m 1xe4
 947 799 l 1
 947 701 l 1
 763 701 l 1
 788 658 800 614 800 570 c 0
 800 487 768 419 702 366 c 0
 637 313 549 287 439 287 c 0
 417 287 400 287 389 288 c 1
 380 265 375 243 375 225 c 0xe3
 375 212 377 196 381 179 c 1
 497 164 l 1
 629 144 724 118 783 85 c 0
 841 52 870 1 870 -68 c 0
 870 -151 827 -222 742 -282 c 0
 656 -341 546 -370 411 -370 c 0
 300 -370 213 -349 151 -306 c 0
 89 -264 58 -207 58 -137 c 0xe880
 58 -83 74 -40 105 -6 c 0
 136 28 179 47 234 51 c 1
 219 82 212 110 212 137 c 0xe2
 212 189 243 243 305 299 c 1
 237 318 185 350 148 394 c 0
 112 439 94 492 94 555 c 0
 94 642 127 713 192 767 c 0
 257 821 346 848 459 848 c 0xd4
 535 848 614 832 695 799 c 1xe4
456 768 m 0xd5
 412 768 378 750 352 715 c 0
 325 680 312 631 312 570 c 0
 312 506 325 456 351 419 c 0
 376 382 410 364 452 364 c 0
 493 364 527 382 552 420 c 0
 578 457 591 508 591 572 c 0
 591 632 578 680 552 715 c 0
 527 750 494 768 456 768 c 0xd5
338 32 m 1
 290 -7 266 -55 266 -109 c 0
 266 -156 285 -196 323 -230 c 0
 360 -263 407 -280 464 -280 c 0
 525 -280 573 -264 611 -233 c 0
 649 -202 667 -164 667 -119 c 0xc880
 667 -80 653 -51 625 -34 c 0
 596 -17 549 -3 483 9 c 2
 338 32 l 1
EndSplineSet
Validated: 1
EndChar

StartChar: h
Encoding: 104 104 236
Width: 1018
Flags: W
HStem: 0 77<41 128 387 463 582 655 910 1000> 701 149<484.233 732> 1114 67<27 72.3376> 1241 20G<216.75 362>
VStem: 152 210<109 683.567 746 1114> 679 208<109 655.582>
LayerCount: 2
Fore
SplineSet
280 1261 m 1
 362 1261 l 1
 362 746 l 1
 490 815 588 850 654 850 c 0
 810 850 887 755 887 567 c 2
 887 109 l 1
 910 84 l 1
 1000 77 l 1
 1000 0 l 1
 582 0 l 1
 582 77 l 1
 655 84 l 1
 679 109 l 1
 679 517 l 2
 679 581 667 627 642 657 c 0
 617 687 578 701 526 701 c 0
 484 701 429 692 362 672 c 1
 362 109 l 1
 387 84 l 1
 463 77 l 1
 463 0 l 1
 41 0 l 1
 41 77 l 1
 128 84 l 1
 152 109 l 1
 152 1114 l 1
 27 1114 l 1
 27 1181 l 1
 280 1261 l 1
EndSplineSet
Validated: 1
EndChar

StartChar: i
Encoding: 105 105 237
Width: 520
Flags: W
HStem: 0 77<51 143 403 498> 827 20G<235.741 377> 981 255<190.129 367.87>
VStem: 154 250<1019.13 1197.82> 167 210<109 698>
LayerCount: 2
Fore
SplineSet
276 1236 m 0xf0
 314 1236 345 1224 369 1200 c 0
 393 1176 404 1146 404 1111 c 0
 404 1073 393 1042 369 1018 c 0
 345 994 315 981 278 981 c 0
 243 981 213 993 189 1017 c 0
 166 1041 154 1071 154 1108 c 0
 154 1144 165 1174 189 1199 c 0
 212 1223 241 1236 276 1236 c 0xf0
295 847 m 1
 377 847 l 1
 377 109 l 1
 403 84 l 1
 498 77 l 1
 498 0 l 1
 51 0 l 1
 51 77 l 1
 143 84 l 1
 167 109 l 1
 167 698 l 1xe8
 55 698 l 1
 55 766 l 1
 295 847 l 1
EndSplineSet
Validated: 1
EndChar

StartChar: j
Encoding: 106 106 238
Width: 506
Flags: W
HStem: 698 67<65 110.106> 827 20G<260.073 394> 981 255<197.129 373.824>
VStem: 160 253<1018.13 1197.82> 186 208<-148.167 698>
LayerCount: 2
Fore
SplineSet
186 698 m 1xe8
 65 698 l 1
 65 765 l 1
 323 847 l 1
 394 847 l 1
 394 167 l 2
 394 73 388 -5 375 -67 c 0
 363 -128 338 -182 302 -229 c 0
 269 -271 227 -304 177 -329 c 0
 126 -353 73 -365 19 -365 c 0
 -28 -365 -65 -354 -94 -332 c 0
 -122 -310 -137 -281 -137 -246 c 0
 -137 -218 -128 -194 -110 -173 c 0
 -92 -152 -68 -139 -38 -133 c 1
 130 -288 l 1
 167 -237 186 -125 186 49 c 2
 186 698 l 1xe8
160 1108 m 0xf0
 160 1145 172 1176 195 1200 c 0
 219 1224 250 1236 288 1236 c 0
 324 1236 353 1223 377 1199 c 0
 401 1174 413 1143 413 1106 c 0
 413 1071 400 1041 375 1017 c 0
 350 993 320 981 285 981 c 0
 250 981 220 993 196 1017 c 0
 172 1041 160 1071 160 1108 c 0xf0
EndSplineSet
Validated: 1
EndChar

StartChar: k
Encoding: 107 107 239
Width: 943
Flags: W
HStem: 0 75<43 131 387 473 874 975> 386 56<365 403> 754 75<560 635 797 908> 1114 67<31 78.1296> 1241 20G<228.25 365>
VStem: 155 210<109 386 442 1114>
LayerCount: 2
Fore
SplineSet
43 0 m 1
 43 75 l 1
 131 84 l 1
 155 109 l 1
 155 1114 l 1
 31 1114 l 1
 31 1181 l 1
 294 1261 l 1
 365 1261 l 1
 365 442 l 1
 403 442 l 1
 647 727 l 1
 635 746 l 1
 560 754 l 1
 560 829 l 1
 908 829 l 1
 908 754 l 1
 797 741 l 1
 602 524 l 1
 874 84 l 1
 975 75 l 1
 975 0 l 1
 647 0 l 1
 647 67 l 1
 449 386 l 1
 365 386 l 1
 365 106 l 1
 387 82 l 1
 473 75 l 1
 473 0 l 1
 43 0 l 1
EndSplineSet
Validated: 1
EndChar

StartChar: l
Encoding: 108 108 240
Width: 518
Flags: W
HStem: 0 75<39 138 398 497> 1113 66<39 84.1059> 1241 20G<234.073 372>
VStem: 162 210<113 1113>
LayerCount: 2
Fore
SplineSet
39 0 m 1
 39 75 l 1
 138 85 l 1
 162 109 l 1
 162 1113 l 1
 39 1113 l 1
 39 1179 l 1
 297 1261 l 1
 372 1261 l 1
 372 113 l 1
 398 85 l 1
 497 75 l 1
 497 0 l 1
 39 0 l 1
EndSplineSet
Validated: 1
EndChar

StartChar: m
Encoding: 109 109 241
Width: 1522
Flags: W
HStem: 0 77<53 140 399 471 579 649 905 981 1087 1161 1417 1507> 703 150<495.395 688.409 1001.2 1230.91>
VStem: 164 211<109 687.131> 672 209<113 658.676> 1184 210<109 656.627>
LayerCount: 2
Fore
SplineSet
855 734 m 1
 989 811 1090 850 1157 850 c 0
 1315 850 1394 755 1394 567 c 2
 1394 109 l 1
 1417 84 l 1
 1507 77 l 1
 1507 0 l 1
 1087 0 l 1
 1087 77 l 1
 1161 84 l 1
 1184 109 l 1
 1184 517 l 2
 1184 582 1172 629 1148 658 c 0
 1123 687 1083 701 1027 701 c 0
 989 701 940 691 881 669 c 1
 881 109 l 1
 905 84 l 1
 981 75 l 1
 981 0 l 1
 579 0 l 1
 579 77 l 1
 649 84 l 1
 672 113 l 1
 672 527 l 2
 672 588 660 632 636 660 c 0
 611 689 572 703 519 703 c 0
 478 703 430 693 375 672 c 1
 375 109 l 1
 399 84 l 1
 471 77 l 1
 471 0 l 1
 53 0 l 1
 53 77 l 1
 140 84 l 1
 164 109 l 1
 164 698 l 1
 53 698 l 1
 53 766 l 1
 294 847 l 1
 375 847 l 1
 375 746 l 1
 497 817 591 853 655 853 c 0
 742 853 808 814 855 734 c 1
EndSplineSet
Validated: 1
EndChar

StartChar: n
Encoding: 110 110 242
Width: 1032
Flags: W
HStem: 0 77<53 140 399 474 594 667 922 1012> 701 149<495.549 737.909>
VStem: 164 211<109 683.567> 691 208<109 655.582>
LayerCount: 2
Fore
SplineSet
53 0 m 1
 53 77 l 1
 140 84 l 1
 164 109 l 1
 164 698 l 1
 48 698 l 1
 48 766 l 1
 294 847 l 1
 375 847 l 1
 375 746 l 1
 502 815 599 850 667 850 c 0
 822 850 899 755 899 567 c 2
 899 109 l 1
 922 84 l 1
 1012 77 l 1
 1012 0 l 1
 594 0 l 1
 594 77 l 1
 667 84 l 1
 691 109 l 1
 691 517 l 2
 691 581 679 627 655 657 c 0
 630 687 591 701 538 701 c 0
 497 701 443 692 375 672 c 1
 375 109 l 1
 399 84 l 1
 474 77 l 1
 474 0 l 1
 53 0 l 1
EndSplineSet
Validated: 1
EndChar

StartChar: o
Encoding: 111 111 243
Width: 984
Flags: W
HStem: -14 91<388.58 610.834> 761 91<387.758 608.918>
VStem: 63 237<206.674 626.835> 698 236<209.72 628.285>
LayerCount: 2
Fore
SplineSet
505 852 m 0
 636 852 740 812 817 733 c 0
 895 654 934 547 934 411 c 0
 934 284 893 181 813 103 c 0
 733 25 626 -14 492 -14 c 0
 363 -14 259 26 181 104 c 0
 102 183 63 286 63 415 c 0
 63 547 103 653 183 732 c 0
 264 812 371 852 505 852 c 0
498 761 m 0
 437 761 389 732 353 672 c 0
 318 613 300 530 300 422 c 0
 300 311 318 226 353 166 c 0
 389 107 436 77 497 77 c 0
 560 77 610 106 645 164 c 0
 680 222 698 306 698 416 c 0
 698 527 680 612 644 672 c 0
 608 731 560 761 498 761 c 0
EndSplineSet
Validated: 1
EndChar

StartChar: p
Encoding: 112 112 244
Width: 1008
Flags: W
HStem: -374 79<39 131 389 495> -2 92<364 608.88> 698 149<460.424 641.313> 698 68<38 82.0699>
VStem: 155 209<-261 9 94.2305 687.952> 724 232<234.165 605.336>
LayerCount: 2
Fore
SplineSet
39 -374 m 1xec
 39 -295 l 1
 131 -287 l 1
 155 -261 l 1
 155 698 l 1
 38 698 l 1
 38 766 l 1xdc
 287 847 l 1
 364 847 l 1
 364 744 l 1
 467 816 557 852 633 852 c 0
 725 852 802 814 864 739 c 0
 925 664 956 567 956 449 c 0
 956 312 915 203 833 121 c 0
 751 39 641 -2 503 -2 c 0
 466 -2 419 2 364 9 c 1
 364 -265 l 1
 389 -288 l 1
 497 -295 l 1
 495 -374 l 1
 39 -374 l 1xec
364 102 m 1
 400 94 436 90 473 90 c 0
 549 90 610 120 655 179 c 0
 701 238 724 319 724 420 c 0
 724 510 703 580 663 630 c 0
 623 680 568 705 498 705 c 0
 462 705 417 694 364 672 c 1
 364 102 l 1
EndSplineSet
Validated: 1
EndChar

StartChar: q
Encoding: 113 113 245
Width: 981
Flags: W
HStem: -372 78<519 628 889 975> -7 135<393.568 580.682> 758 94<410.861 652.778>
VStem: 63 231<235.105 605.401> 654 210<-263 73 133.168 754.855>
LayerCount: 2
Fore
SplineSet
869 829 m 1
 865 771 864 738 864 730 c 2
 864 -265 l 1
 889 -288 l 1
 975 -295 l 1
 975 -372 l 1
 519 -372 l 1
 519 -294 l 1
 628 -287 l 1
 654 -263 l 1
 654 73 l 1
 557 20 472 -7 399 -7 c 0
 302 -7 221 30 158 104 c 0
 95 178 63 274 63 391 c 0
 63 536 110 650 204 730 c 0
 298 811 431 852 602 852 c 0
 670 852 758 844 869 829 c 1
654 749 m 1
 620 755 591 758 568 758 c 0
 480 758 412 729 364 672 c 0
 317 616 294 534 294 427 c 0
 294 331 315 257 358 206 c 0
 400 154 459 128 534 128 c 0
 571 128 610 132 654 140 c 1
 654 749 l 1
EndSplineSet
Validated: 1
EndChar

StartChar: r
Encoding: 114 114 246
Width: 718
Flags: W
HStem: 0 77<49 140 399 521> 647 203<480.5 622.5> 698 68<41 85.4239>
VStem: 164 210<109 623.27 672 698>
LayerCount: 2
Fore
SplineSet
49 0 m 1xd0
 49 77 l 1
 140 84 l 1
 164 109 l 1
 164 698 l 1
 41 698 l 1
 41 766 l 1xb0
 292 847 l 1
 374 847 l 1
 367 672 l 1
 425 735 492 793 567 847 c 1
 583 849 595 850 604 850 c 0
 641 850 678 840 717 821 c 1
 695 585 l 1
 606 585 l 1
 581 626 544 647 495 647 c 0
 466 647 426 631 374 599 c 1
 374 109 l 1
 399 84 l 1
 521 77 l 1
 521 0 l 1
 49 0 l 1xd0
EndSplineSet
Validated: 1
EndChar

StartChar: s
Encoding: 115 115 247
Width: 762
Flags: W
HStem: -19 94<208.472 463.791> 584 227<572 674> 758 95<320.134 543.014>
VStem: 70 104<165.839 276> 82 210<569.9 732.969> 498 202<109.468 283.943> 572 102<584 691.942>
LayerCount: 2
Fore
SplineSet
674 811 m 1xca
 674 584 l 1
 572 584 l 1xca
 555 712 l 1
 534 730 l 1
 496 749 458 758 422 758 c 0
 381 758 349 749 326 730 c 0
 303 712 292 687 292 655 c 0xaa
 292 622 303 596 326 578 c 0
 349 559 390 535 451 505 c 0
 510 476 510 476 537 463 c 0
 554 453 576 441 602 424 c 0
 629 408 647 393 658 379 c 0
 669 365 678 348 687 329 c 0
 695 309 700 287 700 263 c 0
 700 176 669 108 608 57 c 0
 546 7 461 -19 352 -19 c 0
 267 -19 174 -5 70 24 c 1
 70 276 l 1
 174 276 l 1xb4
 193 130 l 1
 210 111 l 1
 254 87 302 75 353 75 c 0
 399 75 434 86 460 108 c 0
 486 131 498 160 498 198 c 0
 498 216 495 232 489 245 c 0
 483 258 472 270 456 282 c 0
 440 293 425 302 411 309 c 0
 398 316 376 326 346 340 c 0
 315 353 291 365 273 374 c 0
 207 407 159 440 128 474 c 0
 97 509 82 550 82 599 c 0
 82 674 112 735 172 783 c 0
 231 830 313 853 416 853 c 0xac
 503 853 589 839 674 811 c 1xca
EndSplineSet
Validated: 1
EndChar

StartChar: t
Encoding: 116 116 248
Width: 610
Flags: W
HStem: -9 125<317 577.062> 707 102<355 608>
VStem: 143 212<153.139 707>
LayerCount: 2
Fore
SplineSet
143 707 m 1
 32 707 l 1
 32 771 l 1
 159 843 l 1
 247 1021 l 1
 355 1021 l 1
 355 809 l 1
 608 809 l 1
 608 707 l 1
 355 707 l 1
 355 282 l 2
 355 219 365 176 385 152 c 0
 405 128 442 116 497 116 c 0
 539 116 576 120 608 128 c 1
 608 46 l 1
 509 10 422 -9 346 -9 c 0
 288 -9 241 4 205 29 c 0
 177 47 160 69 154 95 c 0
 147 120 143 159 143 210 c 2
 143 707 l 1
EndSplineSet
Validated: 1
EndChar

StartChar: u
Encoding: 117 117 249
Width: 1024
Flags: W
HStem: -15 146<306 556.384> 0 77<905 993> 832 20G<221.22 362 742.976 881>
VStem: 150 212<178.419 703> 671 210<147.031 703>
LayerCount: 2
Fore
SplineSet
280 852 m 1xb8
 362 852 l 1
 362 323 l 2
 362 255 374 207 399 177 c 0
 424 146 466 131 524 131 c 0xb8
 561 131 610 141 671 159 c 1
 671 703 l 1
 560 703 l 1
 560 770 l 1
 802 852 l 1
 881 852 l 1
 881 109 l 1
 905 84 l 1
 993 77 l 1
 993 0 l 1
 671 0 l 1x78
 671 94 l 1
 559 21 464 -15 384 -15 c 0
 228 -15 150 82 150 276 c 2
 150 703 l 1
 39 703 l 1
 39 770 l 1
 280 852 l 1xb8
EndSplineSet
Validated: 1
EndChar

StartChar: v
Encoding: 118 118 250
Width: 875
Flags: W
HStem: 0 21G<357.642 526.908> 753 78<-10 92 335 423 587 674 812 911>
LayerCount: 2
Fore
SplineSet
-10 831 m 1
 423 831 l 1
 423 753 l 1
 335 744 l 1
 316 722 l 1
 493 224 l 1
 688 720 l 1
 674 744 l 1
 587 753 l 1
 587 831 l 1
 911 831 l 1
 911 753 l 1
 812 741 l 1
 519 0 l 1
 365 0 l 1
 92 742 l 1
 -10 753 l 1
 -10 831 l 1
EndSplineSet
Validated: 1
EndChar

StartChar: w
Encoding: 119 119 251
Width: 1363
Flags: W
HStem: 0 21G<315.07 498.623 877.834 1062.29> 753 78<-2 101 338 422 1062 1152 1289 1384>
LayerCount: 2
Fore
SplineSet
-2 831 m 1
 422 831 l 1
 422 753 l 1
 338 741 l 1
 319 717 l 1
 457 225 l 1
 657 831 l 1
 828 831 l 1
 1014 225 l 1
 1164 719 l 1
 1152 742 l 1
 1062 753 l 1
 1062 831 l 1
 1384 831 l 1
 1384 753 l 1
 1289 741 l 1
 1056 0 l 1
 884 0 l 1
 695 613 l 1
 492 0 l 1
 321 0 l 1
 101 742 l 1
 -2 753 l 1
 -2 831 l 1
EndSplineSet
Validated: 1
EndChar

StartChar: x
Encoding: 120 120 252
Width: 906
Flags: W
HStem: 0 75<19 52.3474 317.575 350 507 561.309 867.984 906> 753 78<24 81.7566 370 435 560 620.436 808.701 874>
LayerCount: 2
Fore
SplineSet
24 831 m 1
 435 831 l 1
 435 759 l 1
 370 749 l 1
 362 730 l 1
 498 527 l 1
 647 741 l 1
 560 756 l 1
 560 831 l 1
 874 831 l 1
 874 753 l 1
 780 741 l 1
 561 457 l 1
 816 90 l 1
 906 75 l 1
 906 0 l 1
 507 0 l 1
 507 67 l 1
 567 82 l 1
 573 99 l 1
 423 328 l 1
 263 92 l 1
 350 75 l 1
 350 0 l 1
 19 0 l 1
 19 75 l 1
 119 94 l 1
 358 399 l 1
 121 739 l 1
 24 753 l 1
 24 831 l 1
EndSplineSet
Validated: 1
EndChar

StartChar: y
Encoding: 121 121 253
Width: 878
Flags: W
HStem: 756 73<-7 91.4405 340 427 587 678 827.073 915>
LayerCount: 2
Fore
SplineSet
-7 829 m 1
 427 829 l 1
 427 756 l 1
 340 746 l 1
 323 722 l 1
 507 239 l 1
 693 720 l 1
 678 746 l 1
 587 756 l 1
 587 829 l 1
 915 829 l 1
 915 756 l 1
 823 741 l 1
 493 -60 l 2
 452 -159 403 -236 346 -291 c 0
 290 -346 233 -374 176 -374 c 0
 135 -374 100 -361 72 -335 c 0
 43 -310 29 -280 29 -247 c 0
 29 -197 59 -157 118 -126 c 1
 266 -229 l 1
 313 -191 357 -122 399 -20 c 1
 96 741 l 1
 -7 756 l 1
 -7 829 l 1
EndSplineSet
Validated: 1
EndChar

StartChar: z
Encoding: 122 122 254
Width: 844
Flags: W
HStem: 0 96<316 631> 572 257<92 203> 737 92<242 519>
VStem: 92 111<572 690.904> 678 116<172.821 280>
LayerCount: 2
Fore
SplineSet
79 0 m 1xb8
 79 106 l 1
 519 737 l 1
 242 737 l 1xb8
 220 713 l 1
 203 572 l 1
 92 572 l 1
 92 829 l 1xd8
 768 829 l 1
 768 741 l 1
 316 96 l 1
 631 96 l 1
 657 123 l 1
 678 280 l 1
 794 280 l 1
 794 0 l 1
 79 0 l 1xb8
EndSplineSet
Validated: 1
EndChar

StartChar: braceleft
Encoding: 123 123 255
Width: 841
Flags: W
HStem: -230 92<555.845 719> 449 97<79 259.658> 1116 87<559.314 719>
VStem: 312 198<-92.7461 382.985 611.827 1069.77>
LayerCount: 2
Fore
SplineSet
719 1203 m 1
 719 1116 l 1
 635 1114 580 1097 551 1067 c 0
 523 1036 509 981 509 903 c 2
 509 795 l 2
 509 705 489 637 450 590 c 0
 410 542 348 511 261 497 c 1
 346 483 409 452 450 404 c 0
 490 357 510 290 510 203 c 2
 510 79 l 2
 510 -5 524 -61 551 -91 c 0
 579 -121 634 -137 719 -138 c 1
 719 -229 l 1
 713 -229 704 -229 693 -230 c 0
 682 -230 673 -230 667 -230 c 0
 536 -230 445 -207 392 -160 c 0
 339 -114 312 -31 312 87 c 2
 312 225 l 2
 312 308 298 366 269 399 c 0
 240 432 188 449 113 449 c 2
 79 449 l 1
 79 546 l 1
 113 546 l 2
 189 546 241 562 270 595 c 0
 298 627 312 684 312 765 c 2
 312 908 l 2
 312 1016 341 1092 398 1137 c 0
 455 1181 550 1203 683 1203 c 2
 719 1203 l 1
EndSplineSet
Validated: 1
EndChar

StartChar: bar
Encoding: 124 124 256
Width: 853
Flags: W
VStem: 353 149<-403 1304>
LayerCount: 2
Fore
SplineSet
502 1304 m 1
 502 -403 l 1
 353 -403 l 1
 353 1304 l 1
 502 1304 l 1
EndSplineSet
Validated: 1
EndChar

StartChar: braceright
Encoding: 125 125 257
Width: 841
Flags: W
HStem: -230 92<106 268.387> 449 95<563.218 746> 1116 87<106 266.709>
VStem: 316 196<-92.7461 383.983 611.077 1067.89>
LayerCount: 2
Fore
SplineSet
106 1203 m 1
 142 1203 l 2
 277 1203 373 1181 429 1137 c 0
 486 1094 514 1017 514 908 c 2
 514 765 l 2
 514 684 528 627 556 594 c 0
 585 561 635 544 708 544 c 0
 712 544 718 545 726 545 c 0
 735 546 741 546 746 546 c 1
 746 449 l 1
 712 449 l 2
 637 449 585 432 556 399 c 0
 527 366 512 308 512 225 c 2
 512 87 l 2
 512 -31 486 -114 433 -160 c 0
 380 -207 288 -230 157 -230 c 0
 151 -230 143 -230 131 -230 c 0
 120 -229 112 -229 106 -229 c 1
 106 -138 l 1
 190 -137 246 -121 274 -91 c 0
 302 -61 316 -5 316 79 c 2
 316 203 l 2
 316 291 336 358 375 405 c 0
 415 453 478 483 563 497 c 1
 476 511 413 542 375 590 c 0
 336 637 317 705 317 795 c 2
 317 903 l 2
 317 981 303 1036 274 1067 c 0
 245 1097 189 1114 106 1116 c 1
 106 1203 l 1
EndSplineSet
Validated: 1
EndChar

StartChar: asciitilde
Encoding: 126 126 258
Width: 1421
Flags: W
HStem: 382 144<762.207 1136.13> 495 142<297.391 684.807>
LayerCount: 2
Fore
SplineSet
1275 500 m 1x80
 1161 422 1055 382 957 382 c 0x80
 907 382 854 392 799 411 c 0
 778 418 778 418 732 434 c 0
 701 445 678 453 661 458 c 0
 645 463 624 469 600 476 c 0
 575 483 553 488 532 491 c 0
 511 494 490 495 469 495 c 0
 382 495 275 451 148 362 c 1
 148 517 l 1
 266 597 373 637 471 637 c 0x40
 537 637 618 620 715 587 c 0
 723 585 737 580 756 573 c 0
 775 567 789 561 798 558 c 0
 806 555 819 550 836 545 c 0
 853 540 867 536 878 534 c 0
 889 532 902 530 916 528 c 0
 931 527 945 526 959 526 c 0
 1051 526 1157 568 1275 654 c 1
 1275 500 l 1x80
EndSplineSet
Validated: 1
EndChar

StartChar: sterling
Encoding: 163 163 259
Width: 1047
Flags: W
HStem: 1014 252<493.826 642.127>
VStem: 135 215<684.252 950.811> 294 202<191 375.662>
LayerCount: 2
Fore
SplineSet
227 427 m 1xa0
 126 387 l 1
 121 423 119 456 119 486 c 0
 119 514 121 540 125 563 c 1
 169 579 l 1
 146 646 135 709 135 768 c 0
 135 823 145 875 166 923 c 0
 208 1022 276 1102 370 1161 c 0
 465 1221 571 1256 688 1266 c 1
 684 1174 668 1090 638 1014 c 1
 481 1000 389 968 360 916 c 0
 353 903 350 886 350 865 c 0xc0
 350 829 360 782 381 724 c 0
 389 700 389 700 404 657 c 1
 484 686 552 713 608 741 c 1
 614 709 618 678 618 648 c 0
 618 620 615 592 609 565 c 1
 596 560 581 555 567 550 c 0
 552 544 534 537 515 528 c 0
 485 515 485 515 461 505 c 1
 484 432 496 360 496 289 c 0
 496 256 493 223 488 191 c 1
 512 192 548 206 596 232 c 0
 643 258 706 296 783 346 c 0
 899 422 899 422 947 451 c 1
 952 416 954 381 954 345 c 0
 954 284 947 221 934 155 c 1
 855 114 778 78 701 45 c 0
 625 13 545 -14 460 -34 c 0
 412 -46 372 -52 338 -52 c 0
 311 -52 288 -48 270 -41 c 1
 286 21 294 82 294 141 c 0
 294 240 271 336 227 427 c 1xa0
EndSplineSet
Validated: 1
EndChar

